<svg width="20" height="176" viewBox="0 0 20 176" fill="none" xmlns="http://www.w3.org/2000/svg">
<g id="Group 2131328417">
<g id="Group">
<path id="Vector" d="M17.3432 13.6972H13.087V8.48833C13.087 8.35882 13.0178 8.23461 12.8947 8.14303C12.7715 8.05145 12.6044 8 12.4302 8H7.53477C7.36057 8 7.1935 8.05145 7.07032 8.14303C6.94715 8.23461 6.87795 8.35882 6.87795 8.48833V11.1742H2.65681C2.48262 11.1742 2.31555 11.2256 2.19237 11.3172C2.0692 11.4088 2 11.533 2 11.6625V19.5117C2 19.6412 2.0692 19.7654 2.19237 19.857C2.31555 19.9486 2.48262 20 2.65681 20H17.3432C17.5174 20 17.6845 19.9486 17.8076 19.857C17.9308 19.7654 18 19.6412 18 19.5117V14.1856C18 14.0561 17.9308 13.9318 17.8076 13.8403C17.6845 13.7487 17.5174 13.6972 17.3432 13.6972ZM3.33114 12.1346H6.89546V19.0071H3.33114V12.1346ZM11.7909 19.0071H8.22659V11.6462C8.23113 11.6116 8.23113 11.5767 8.22659 11.5421V8.96039H11.8084L11.7909 19.0071ZM16.7039 19.0071H13.122V14.6739H16.7039V19.0071Z" fill="#62656E"/>
<path id="Vector_2" d="M8.18208 3.72825C8.21884 3.76558 8.24637 3.8117 8.26232 3.86264C8.27828 3.91358 8.28218 3.96784 8.27367 4.0207L8.01265 5.61223C8.00249 5.67308 8.00879 5.73571 8.03088 5.79299C8.05296 5.85028 8.08992 5.89997 8.13759 5.93639C8.18525 5.97282 8.24171 5.99453 8.30056 5.9991C8.3594 6.00366 8.4183 5.99088 8.47057 5.9622L9.84431 5.20956C9.88915 5.18354 9.93958 5.16989 9.99085 5.16989C10.0421 5.16989 10.0925 5.18354 10.1374 5.20956L11.5111 5.9622C11.5634 5.99088 11.6223 6.00366 11.6811 5.9991C11.74 5.99453 11.7964 5.97282 11.8441 5.93639C11.8917 5.89997 11.9287 5.85028 11.9508 5.79299C11.9729 5.73571 11.9792 5.67308 11.969 5.61223L11.7126 4.0207C11.7031 3.96822 11.7061 3.9141 11.7212 3.86311C11.7364 3.81212 11.7633 3.7658 11.7996 3.72825L12.9032 2.60171C12.9458 2.55876 12.976 2.50414 12.9905 2.44409C13.0049 2.38404 13.0029 2.32098 12.9848 2.26204C12.9667 2.2031 12.9331 2.15066 12.8879 2.11071C12.8427 2.07076 12.7877 2.04488 12.7292 2.03604L11.2043 1.80594C11.1539 1.79667 11.1063 1.77541 11.065 1.74383C11.0238 1.71225 10.9899 1.67118 10.9662 1.62378L10.2839 0.185621C10.2579 0.129954 10.2176 0.083024 10.1674 0.050209C10.1172 0.017394 10.0592 0 10 0C9.94084 0 9.88282 0.017394 9.83263 0.050209C9.78243 0.083024 9.74205 0.129954 9.71608 0.185621L9.03379 1.62378C9.01063 1.67164 8.97699 1.71307 8.93561 1.74473C8.89423 1.77639 8.84629 1.79738 8.7957 1.80594L7.27084 2.03604C7.21229 2.04488 7.1573 2.07076 7.11211 2.11071C7.06692 2.15066 7.03335 2.2031 7.01521 2.26204C6.99708 2.32098 6.99511 2.38404 7.00954 2.44409C7.02397 2.50414 7.05421 2.55876 7.09683 2.60171L8.18208 3.72825Z" fill="#62656E"/>
</g>
<g id="Group_2">
<path id="Vector_3" d="M10.6297 60.7663L9.99974 59.4259L9.36963 60.7663C9.29913 60.9175 9.15758 61.0232 8.99259 61.0481L7.53644 61.2708L8.60695 62.368C8.71792 62.4815 8.76846 62.641 8.74264 62.7978L8.49561 64.3143L9.75729 63.6167C9.908 63.5333 10.0911 63.5333 10.2418 63.6167L11.5035 64.3143L11.2565 62.7978C11.2308 62.641 11.2812 62.4815 11.3922 62.368L12.4627 61.2708L11.0065 61.0481C10.8417 61.0232 10.7002 60.9175 10.6297 60.7663Z" fill="#62656E"/>
<path id="Vector_4" d="M10.0005 55.9997C6.6864 55.9997 4.00006 58.6862 4.00006 62C4.00006 65.314 6.6864 68.0003 10.0005 68.0003C13.3144 68.0003 16.0009 65.314 16.0009 62C15.9972 58.6876 13.3129 56.0034 10.0005 55.9997ZM13.858 61.273L12.2847 62.8859L12.6568 65.1697C12.6875 65.3587 12.6079 65.5485 12.4513 65.6588C12.2948 65.7692 12.0889 65.7804 11.9214 65.6877L10.0005 64.6255L8.07938 65.6875C7.91183 65.7802 7.706 65.769 7.54944 65.6588C7.39305 65.5484 7.31321 65.3585 7.34398 65.1695L7.71607 62.8857L6.14272 61.2728C6.01125 61.139 5.96602 60.9427 6.02571 60.7647C6.08523 60.5869 6.23941 60.4574 6.42491 60.4296L8.57948 60.1L9.54817 58.0374C9.64046 57.8744 9.81314 57.7737 10.0005 57.7737C10.1876 57.7737 10.3603 57.8744 10.4526 58.0374L11.4215 60.1L13.5758 60.4296C13.7613 60.4574 13.9155 60.5869 13.9752 60.7649C14.0347 60.9427 13.9895 61.139 13.858 61.2728V61.273Z" fill="#62656E"/>
<path id="Vector_5" d="M19.1109 62.3593C18.9714 62.1403 18.9714 61.8601 19.1109 61.6409L19.737 60.6649C19.9895 60.2705 20.0644 59.788 19.9434 59.3355C19.8221 58.8832 19.5162 58.5027 19.1003 58.2874L18.0701 57.7551C17.8401 57.6351 17.7002 57.3932 17.7108 57.134L17.7654 55.9752C17.7868 55.5072 17.6103 55.0516 17.279 54.7201C16.9452 54.3933 16.4918 54.2179 16.0248 54.2347L14.8666 54.2884C14.6071 54.3008 14.3645 54.1607 14.2453 53.9302L13.713 52.9002C13.4976 52.4841 13.1171 52.1782 12.6646 52.0569C12.2121 51.9357 11.7296 52.0106 11.335 52.2631L10.3595 52.8881C10.1405 53.0285 9.85979 53.0287 9.6406 52.8886L8.66495 52.2631C8.27033 52.0104 7.78763 51.9355 7.33515 52.0567C6.88266 52.178 6.50196 52.4843 6.2868 52.9004L5.75465 53.9302C5.63178 54.1572 5.39171 54.2959 5.13352 54.2885L3.97511 54.2347C3.50816 54.2168 3.0544 54.3924 2.72112 54.7201C2.38986 55.0516 2.21334 55.5073 2.23476 55.9756L2.28951 57.133C2.30032 57.3923 2.16023 57.6348 1.93005 57.7549L0.900014 58.2872C0.48397 58.5025 0.17798 58.8832 0.0569391 59.3357C-0.064285 59.7882 0.0106102 60.2707 0.26313 60.6653L0.88921 61.6402C1.02893 61.8594 1.02893 62.1396 0.88921 62.3586L0.262947 63.3351C0.0104272 63.7295 -0.0644681 64.212 0.056756 64.6645C0.177797 65.1168 0.483787 65.4973 0.899831 65.7127L1.93005 66.2448C2.16005 66.3647 2.29995 66.6068 2.28951 66.8659L2.23476 68.0247C2.21315 68.4925 2.3895 68.9477 2.72057 69.279C3.05165 69.6101 3.50706 69.7866 3.97493 69.765L5.13315 69.7113C5.39171 69.702 5.63288 69.8411 5.75429 70.0697L6.28661 71.0999C6.50196 71.5161 6.88248 71.8221 7.33515 71.9433C7.78781 72.0645 8.27033 71.9894 8.66495 71.7367L9.64042 71.1118C9.85961 70.9713 10.1401 70.9711 10.3593 71.1112L11.335 71.7367C11.7294 71.9894 12.2121 72.0643 12.6648 71.9431C13.1173 71.8219 13.4978 71.5157 13.7131 71.0995L14.2453 70.0695C14.3716 69.8457 14.6095 69.7084 14.8664 69.711L16.0248 69.7648C16.4927 69.7864 16.9481 69.6099 17.2792 69.2786C17.6104 68.9474 17.7866 68.4918 17.7648 68.0239L17.7104 66.8668C17.6996 66.6074 17.8397 66.3649 18.0699 66.2448L19.0999 65.7125C19.516 65.4971 19.822 65.1164 19.9432 64.664C20.0644 64.2115 19.9895 63.729 19.7368 63.3346L19.1109 62.3593ZM10.0001 69.0005C6.13371 69.0005 2.99946 65.8663 2.99946 62C2.99946 58.1339 6.13371 54.9998 10.0001 54.9998C13.8662 54.9998 17.0005 58.1339 17.0005 62C16.9959 65.8645 13.8644 68.9959 10.0001 69.0005Z" fill="#62656E"/>
</g>
<g id="Group 1597882054">
<path id="Star 3" d="M9.52447 109.464C9.67415 109.003 10.3259 109.003 10.4755 109.464L11.2348 111.8C11.3018 112.006 11.4937 112.146 11.7104 112.146H14.1675C14.6519 112.146 14.8532 112.766 14.4614 113.05L12.4735 114.495C12.2983 114.622 12.2249 114.848 12.2919 115.054L13.0512 117.391C13.2009 117.851 12.6736 118.234 12.2818 117.95L10.2939 116.505C10.1186 116.378 9.88135 116.378 9.70611 116.505L7.71824 117.95C7.32638 118.234 6.79914 117.851 6.94882 117.391L7.70812 115.054C7.77505 114.848 7.70172 114.622 7.52648 114.495L5.53861 113.05C5.14675 112.766 5.34814 112.146 5.8325 112.146H8.28964C8.50626 112.146 8.69824 112.006 8.76517 111.8L9.52447 109.464Z" fill="#62656E"/>
<g id="Group 1597882373">
<path id="Vector_6" d="M10.3837 110.256L11.2936 112.18C11.3235 112.244 11.3679 112.3 11.4231 112.342C11.4783 112.383 11.5425 112.41 11.6101 112.42L13.6394 112.731C13.7171 112.742 13.7901 112.776 13.8502 112.829C13.9103 112.882 13.955 112.951 13.9794 113.029C14.0037 113.107 14.0066 113.191 13.9877 113.27C13.9689 113.35 13.9291 113.422 13.8728 113.48L12.4052 114.978C12.3563 115.027 12.3196 115.089 12.2983 115.156C12.2769 115.224 12.2715 115.296 12.2826 115.367L12.6307 117.486C12.6432 117.567 12.6339 117.65 12.6039 117.726C12.5739 117.801 12.5243 117.867 12.4607 117.915C12.3971 117.963 12.322 117.992 12.2437 117.998C12.1654 118.004 12.0871 117.987 12.0175 117.949L10.1938 116.948C10.1328 116.914 10.0649 116.897 9.99605 116.897C9.92717 116.897 9.85931 116.914 9.79826 116.948L7.9825 117.949C7.91314 117.987 7.83489 118.005 7.7566 117.999C7.67832 117.993 7.60316 117.964 7.53969 117.916C7.47622 117.868 7.42698 117.802 7.39757 117.726C7.36816 117.65 7.35974 117.566 7.37331 117.486L7.71747 115.367C7.72898 115.297 7.72421 115.225 7.70356 115.157C7.6829 115.089 7.64697 115.028 7.59879 114.978L6.1272 113.48C6.07092 113.422 6.0311 113.35 6.01227 113.27C5.99343 113.191 5.99633 113.107 6.02065 113.029C6.04496 112.951 6.0897 112.882 6.1498 112.829C6.20989 112.776 6.28293 112.742 6.3606 112.731L8.39393 112.42C8.46102 112.409 8.52465 112.382 8.57965 112.34C8.63465 112.298 8.67944 112.243 8.71039 112.18L9.61628 110.256C9.65031 110.179 9.7045 110.115 9.77247 110.069C9.84045 110.024 9.9194 110 10 110C10.0806 110 10.1596 110.024 10.2275 110.069C10.2955 110.115 10.3497 110.179 10.3837 110.256Z" fill="#62656E"/>
<path id="Vector_7" d="M12.2465 123.981C12.1949 123.987 12.1427 123.987 12.0911 123.981L9.99275 123.46L7.89009 123.981C7.78865 124.006 7.68266 124.006 7.58117 123.981C7.47967 123.956 7.38569 123.907 7.30724 123.838L5.68384 122.393L3.58121 121.872C3.48336 121.844 3.39342 121.793 3.31848 121.723C3.24355 121.654 3.18568 121.568 3.14946 121.473L2.38095 119.437L0.761883 117.992C0.683381 117.923 0.623028 117.835 0.586142 117.737C0.549255 117.638 0.536942 117.532 0.550303 117.428L0.80937 115.258L0.0408382 113.223C0.00443737 113.124 -0.00787952 113.019 0.00489394 112.914C0.0176674 112.81 0.0551761 112.711 0.114255 112.624L1.34474 110.836L1.60378 108.666C1.61696 108.561 1.65528 108.461 1.71543 108.374C1.77559 108.287 1.8558 108.216 1.9492 108.167L3.86186 107.156L5.09235 105.364C5.15278 105.277 5.23299 105.207 5.32619 105.159C5.4194 105.11 5.52283 105.085 5.62771 105.086H7.78648L9.70346 104.075C9.79596 104.026 9.89896 104 10.0035 104C10.1081 104 10.2111 104.026 10.3036 104.075L12.2206 105.086H14.3793C14.4836 105.086 14.5862 105.111 14.6787 105.159C14.7712 105.208 14.8506 105.278 14.9104 105.364L16.1409 107.156L18.0536 108.15C18.1464 108.199 18.2259 108.27 18.2853 108.357C18.3447 108.444 18.3823 108.544 18.3946 108.649L18.658 110.819L19.8842 112.607C19.9443 112.693 19.9824 112.792 19.9952 112.897C20.008 113.001 19.9951 113.107 19.9576 113.205L19.1891 115.241L19.4524 117.411C19.4649 117.515 19.4517 117.621 19.4141 117.72C19.3765 117.818 19.3155 117.906 19.2366 117.975L17.6175 119.42L16.849 121.455C16.8139 121.552 16.7565 121.638 16.6814 121.708C16.6063 121.777 16.5157 121.828 16.4172 121.855L14.3146 122.375L12.6955 123.82C12.5709 123.928 12.4108 123.986 12.2465 123.981ZM9.99275 122.124C10.0444 122.117 10.0966 122.117 10.1482 122.124L12.0738 122.601L13.559 121.277C13.6361 121.207 13.7297 121.158 13.831 121.134L15.761 120.657L16.4647 118.791C16.4995 118.692 16.559 118.604 16.6374 118.535L18.1269 117.211L17.8852 115.232C17.8719 115.128 17.8853 115.022 17.924 114.924L18.6278 113.058L17.5009 111.418C17.4398 111.33 17.4012 111.229 17.3886 111.122L17.1512 109.143L15.3767 108.236C15.2838 108.186 15.204 108.115 15.1436 108.028L14.0167 106.388H12.0306C11.9269 106.387 11.8247 106.362 11.7327 106.314L9.97546 105.385L8.21823 106.314C8.12454 106.362 8.02107 106.387 7.916 106.388H5.92995L4.80308 108.028C4.74424 108.115 4.66581 108.186 4.57424 108.236L2.85587 109.161L2.61409 111.14C2.60317 111.246 2.56606 111.347 2.50615 111.435L1.37929 113.075L2.08304 114.941C2.11827 115.04 2.13008 115.145 2.11757 115.249L1.88011 117.228L3.36534 118.552C3.44373 118.622 3.50442 118.71 3.54237 118.808L4.2461 120.674L6.17173 121.152C6.27435 121.175 6.36939 121.224 6.44805 121.295L7.93328 122.618L9.85888 122.141C9.90276 122.13 9.94765 122.125 9.99275 122.124Z" fill="#62656E"/>
</g>
</g>
<g id="wallet-minus">
<path id="Vector_8" d="M11.8848 169.332H7.7181" stroke="#62656E" stroke-width="1.5" stroke-miterlimit="10" stroke-linecap="round" stroke-linejoin="round"/>
<path id="Vector_9" d="M10.55 158.098L10.525 158.157L8.1083 163.765H5.7333C5.16663 163.765 4.62497 163.882 4.1333 164.09L5.59163 160.607L5.62497 160.523L5.6833 160.39C5.69997 160.34 5.71663 160.29 5.74163 160.248C6.8333 157.723 8.06663 157.148 10.55 158.098Z" stroke="#62656E" stroke-width="1.5" stroke-linecap="round" stroke-linejoin="round"/>
<path id="Vector_10" d="M15.0417 163.932C14.6667 163.815 14.2667 163.765 13.8667 163.765H8.10832L10.525 158.157L10.55 158.098C10.675 158.14 10.7917 158.198 10.9167 158.248L12.7583 159.023C13.7833 159.448 14.5 159.89 14.9333 160.423C15.0167 160.523 15.0833 160.615 15.1417 160.723C15.2167 160.84 15.275 160.957 15.3083 161.082C15.3417 161.157 15.3667 161.232 15.3833 161.298C15.6083 161.998 15.475 162.857 15.0417 163.932Z" stroke="#62656E" stroke-width="1.5" stroke-linecap="round" stroke-linejoin="round"/>
<path id="Vector_11" d="M17.9348 167.832V169.457C17.9348 169.624 17.9264 169.79 17.9181 169.957C17.7598 172.865 16.1348 174.332 13.0514 174.332H6.55143C6.35143 174.332 6.15143 174.315 5.95977 174.29C3.30977 174.115 1.8931 172.699 1.7181 170.049C1.6931 169.857 1.67643 169.657 1.67643 169.457V167.832C1.67643 166.157 2.6931 164.715 4.1431 164.09C4.6431 163.882 5.17643 163.765 5.7431 163.765H13.8764C14.2848 163.765 14.6848 163.824 15.0514 163.932C16.7098 164.44 17.9348 165.99 17.9348 167.832Z" stroke="#62656E" stroke-width="1.5" stroke-linecap="round" stroke-linejoin="round"/>
<path id="Vector_12" d="M5.59167 160.607L4.13333 164.09C2.68333 164.715 1.66667 166.157 1.66667 167.832V165.39C1.66667 163.024 3.35 161.049 5.59167 160.607Z" stroke="#62656E" stroke-width="1.5" stroke-linecap="round" stroke-linejoin="round"/>
<path id="Vector_13" d="M17.9322 165.39V167.831C17.9322 165.998 16.7155 164.44 15.0488 163.94C15.4822 162.856 15.6072 162.006 15.3988 161.298C15.3822 161.223 15.3572 161.148 15.3238 161.081C16.8738 161.881 17.9322 163.523 17.9322 165.39Z" stroke="#62656E" stroke-width="1.5" stroke-linecap="round" stroke-linejoin="round"/>
</g>
</g>
</svg>
