<svg width="20" height="20" viewBox="0 0 20 20" fill="none" xmlns="http://www.w3.org/2000/svg">
<g id="Group 2131328634">
<path id="image 71 (Traced)" fill-rule="evenodd" clip-rule="evenodd" d="M11.1802 3.05746C11.0795 3.09443 10.9325 3.171 10.8535 3.22759C10.7745 3.28418 10.658 3.40569 10.5946 3.49765C10.5313 3.58957 10.4615 3.70825 10.4396 3.76134C10.4177 3.81447 9.7303 5.98431 8.91207 8.58321C7.55105 12.906 7.42317 13.3333 7.41063 13.5997C7.39965 13.8328 7.41194 13.9321 7.47224 14.0983C7.51367 14.2124 7.61646 14.385 7.70063 14.4818C7.78483 14.5786 7.9305 14.7004 8.02438 14.7525C8.11823 14.8046 9.62072 15.328 11.3632 15.9156L14.5314 16.9841L14.8658 16.9835C15.1634 16.9831 15.221 16.9717 15.3888 16.8809C15.4924 16.8248 15.6447 16.7071 15.7271 16.6194C15.8095 16.5317 15.9054 16.3981 15.9401 16.3225C15.9748 16.2469 16.6769 14.0476 17.5003 11.4351L18.9975 6.68529L18.9998 6.35722C19.0018 6.05735 18.9921 6.00822 18.8861 5.78558C18.8175 5.64132 18.7118 5.4903 18.6269 5.41519C18.5481 5.34543 18.4172 5.25608 18.3361 5.21667C18.2549 5.17722 16.7637 4.66552 15.0223 4.07951C12.323 3.17122 11.8197 3.01233 11.6096 3.00214C11.4351 2.9937 11.3098 3.00982 11.1802 3.05746ZM6.39974 3.3336C6.3223 3.35892 6.20919 3.40642 6.1484 3.4392C6.0876 3.47196 5.96595 3.57312 5.87801 3.66403C5.79008 3.75494 5.67345 3.92332 5.61889 4.03821L5.51969 4.24706V9.48743V14.7278L5.61245 14.9323C5.66349 15.0448 5.76635 15.2068 5.84109 15.2923C5.91578 15.3778 6.03244 15.4837 6.10031 15.5276C6.16818 15.5715 6.30181 15.6347 6.39721 15.668C6.53157 15.7149 6.70223 15.7285 7.15405 15.7282L7.73741 15.7279L7.54468 15.6136C7.43865 15.5508 7.23272 15.3746 7.08706 15.2221C6.90144 15.0278 6.78274 14.8633 6.69047 14.6725C6.61803 14.5228 6.53485 14.3027 6.50566 14.1834C6.47645 14.0641 6.45254 13.8162 6.45254 13.6325C6.45254 13.3856 6.47497 13.2192 6.53854 12.9942C6.58585 12.8268 7.28169 10.6019 8.08486 8.04997C8.88802 5.49802 9.55594 3.38141 9.56911 3.34637C9.59167 3.28629 9.50656 3.28283 8.0668 3.28512C6.93946 3.28691 6.50376 3.29957 6.39974 3.3336ZM3.08756 4.71756C2.06061 5.0686 1.63111 5.2321 1.51051 5.31788C1.41934 5.38273 1.29163 5.51144 1.22671 5.60391C1.1618 5.69639 1.08119 5.86593 1.04757 5.98071C1.00374 6.13035 0.991775 6.25943 1.00522 6.43732C1.01994 6.63237 1.34298 7.69897 2.5188 11.4348C3.34098 14.0471 4.04825 16.2545 4.09049 16.3401C4.13277 16.4258 4.22951 16.5601 4.30547 16.6386C4.38147 16.7172 4.52735 16.8256 4.62965 16.8796C4.76912 16.9533 4.8843 16.982 5.09009 16.9948C5.34097 17.0104 5.40511 16.9983 5.83859 16.8547C6.09933 16.7683 6.30058 16.6869 6.28579 16.6738C6.27101 16.6608 6.1365 16.605 5.98682 16.5499C5.83718 16.4947 5.64709 16.4 5.5644 16.3394C5.48174 16.2788 5.34509 16.1616 5.26078 16.0789C5.17644 15.9963 5.04904 15.8468 4.97762 15.7468C4.90623 15.6467 4.80411 15.4626 4.75071 15.3377C4.69731 15.2128 4.63035 14.9953 4.60191 14.8544C4.55762 14.6347 4.5516 13.8583 4.55974 9.41348C4.56604 5.97325 4.55741 4.22992 4.53404 4.23203C4.51468 4.23378 3.86376 4.45227 3.08756 4.71756ZM12.5878 7.04873C12.6984 7.0785 12.8507 7.14324 12.9264 7.19262C13.0021 7.242 13.1189 7.34081 13.1859 7.41224C13.253 7.48364 13.3555 7.63591 13.4137 7.75054C13.4719 7.86517 13.5465 8.04498 13.5795 8.15004C13.6124 8.25511 13.6476 8.3411 13.6576 8.3411C13.6676 8.3411 13.7475 8.27581 13.8352 8.19601C13.9229 8.1162 14.0837 8.00706 14.1926 7.95346C14.3355 7.88311 14.4653 7.85138 14.6591 7.83937C14.8556 7.82722 14.9782 7.83992 15.1167 7.88675C15.2207 7.92194 15.3723 7.99047 15.4535 8.03905C15.5347 8.0876 15.6622 8.19037 15.7367 8.26744C15.8113 8.34448 15.917 8.50213 15.9718 8.61775C16.0265 8.73336 16.0881 8.93956 16.1085 9.07599C16.1356 9.25715 16.1344 9.39871 16.104 9.60086C16.0776 9.77645 16.0125 9.98589 15.926 10.1738C15.851 10.3367 15.7122 10.5677 15.6176 10.6871C15.523 10.8065 15.3349 11.0003 15.1997 11.1179C15.0644 11.2355 14.8171 11.4192 14.65 11.5261C14.4829 11.6331 14.1693 11.8042 13.9531 11.9063C13.7369 12.0084 13.3249 12.1723 13.0376 12.2706C12.7502 12.3689 12.4759 12.4543 12.428 12.4604C12.3551 12.4697 12.301 12.4183 12.0955 12.144C11.9605 11.9639 11.7632 11.6773 11.6572 11.5072C11.5511 11.337 11.3916 11.0586 11.3027 10.8885C11.2139 10.7184 11.0932 10.4564 11.0345 10.3062C10.9758 10.1561 10.8948 9.91601 10.8545 9.7727C10.8142 9.62936 10.7679 9.33586 10.7517 9.12046C10.7305 8.84035 10.735 8.65199 10.7675 8.45886C10.7924 8.31035 10.8674 8.07162 10.9341 7.92835C11.0008 7.78507 11.1141 7.59802 11.186 7.51268C11.2579 7.42735 11.3826 7.31104 11.4632 7.2542C11.5437 7.19732 11.6967 7.11653 11.8032 7.0746C11.911 7.03221 12.0834 6.99756 12.1919 6.99651C12.2991 6.99545 12.4773 7.01896 12.5878 7.04873Z" fill="#62656E"/>
</g>
</svg>
