<svg width="16" height="16" viewBox="0 0 16 16" fill="none" xmlns="http://www.w3.org/2000/svg">
<g id="Group">
<path id="Vector" d="M2.67465 13.9888C4.02673 15.1942 5.72172 15.8958 7.53004 16V13.6321C7.53004 10.2675 10.2675 7.53047 13.6317 7.53047H15.9996C15.8958 5.72215 15.1938 4.02716 13.9883 2.67508L2.67465 13.9888Z" fill="#919399"/>
<path id="Vector_2" d="M13.6322 8.4696C10.7855 8.4696 8.46973 10.7854 8.46973 13.6321V16C10.4339 15.8871 12.2643 15.0692 13.6668 13.6667C15.0693 12.2642 15.8872 10.4333 16.0001 8.4696H13.6322Z" fill="#919399"/>
<path id="Vector_3" d="M13.3249 2.01124C11.9729 0.805829 10.2779 0.103749 8.46954 0V2.3679C8.46954 5.73247 5.73205 8.46954 2.3679 8.46954H0C0.103749 10.2779 0.805829 11.9729 2.01124 13.3249L13.3249 2.01124Z" fill="#919399"/>
<path id="Vector_4" d="M2.3679 7.53038C5.21456 7.53038 7.53038 5.21456 7.53038 2.3679V0C5.56622 0.112916 3.73581 0.930829 2.33332 2.33332C0.930829 3.73581 0.112916 5.56622 0 7.53038H2.3679Z" fill="#919399"/>
</g>
</svg>
