<svg width="20" height="20" viewBox="0 0 20 20" fill="none" xmlns="http://www.w3.org/2000/svg">
<g id="Group 2131328632">
<g id="Black">
<path id="Vector" d="M4.29921 3.11896C2.61417 3.6907 1.27559 5.52025 0.362205 8.52594C0.0472441 9.60407 0 10.0778 0 12.4464C0 15.5665 0.188976 16.3179 1.10236 16.7589C2.22047 17.3143 2.83465 17.004 4.88189 14.8314L6.28346 13.3449H10H13.7165L15.1181 14.8314C17.1654 17.004 17.7795 17.3143 18.8976 16.7589C19.811 16.3179 20 15.5665 20 12.4464C20 10.0778 19.9528 9.60407 19.6378 8.52594C18.8661 5.97764 17.811 4.31144 16.4724 3.49467C15.8583 3.11896 15.5748 3.05362 14.5354 3.05362C13.4331 3.06995 13.2283 3.11896 12.063 3.75604C10.3465 4.68715 9.68504 4.68715 7.98425 3.78871C6.66142 3.08629 5.19685 2.82493 4.29921 3.11896ZM14.4724 5.76528C15.2126 6.36968 14.8661 7.54583 13.937 7.54583C12.9291 7.54583 12.5984 5.97764 13.5118 5.58559C14 5.38957 14 5.38957 14.4724 5.76528ZM5.9685 6.33701C6.14173 6.40236 6.22047 6.64738 6.22047 7.13744V7.8562L6.89764 7.9052C7.54331 7.95421 7.55906 7.97054 7.55906 8.52594C7.55906 9.09768 7.55906 9.09768 6.8189 9.14668L6.06299 9.19569V9.93078V10.6659L5.48031 10.6169C4.89764 10.5679 4.88189 10.5515 4.83465 9.88177C4.7874 9.19569 4.7874 9.19569 4.12598 9.14668C3.48031 9.09768 3.46457 9.08134 3.46457 8.52594C3.46457 7.95421 3.46457 7.95421 4.22047 7.9052L4.96063 7.8562V7.15378C4.96063 6.77807 5.00787 6.40236 5.07087 6.35335C5.19685 6.20633 5.6378 6.20633 5.9685 6.33701ZM17.2913 7.49682C17.8898 8.19924 17.5276 9.17935 16.6614 9.17935C15.7953 9.17935 15.3543 8.16657 15.937 7.51315C16.2677 7.13744 16.9606 7.13744 17.2913 7.49682ZM14.5984 8.967C15.1969 9.53873 14.7717 10.6495 13.937 10.6495C13.0866 10.6495 12.6457 9.55507 13.2441 8.95066C13.5591 8.60762 14.2362 8.62395 14.5984 8.967Z" fill="#62656E"/>
</g>
</g>
</svg>
