<svg width="20" height="20" viewBox="0 0 20 20" fill="none" xmlns="http://www.w3.org/2000/svg">
<g id="Group 2131328639">
<path id="Vector" d="M7.48452 1.38319C6.87389 1.9663 6.75836 2.69935 7.15445 3.49904L7.46802 4.16545H6.82438C6.29626 4.16545 6.04871 4.28207 5.60311 4.7319C5.04199 5.29835 4.94297 5.63156 5.02549 6.9977C5.10801 8.53044 6.42829 11.5959 7.45152 12.6622C7.94662 13.1953 8.01264 13.3619 8.01264 14.1949C8.01264 15.3612 8.50775 16.9772 9.08537 17.7436C10.3066 19.3763 13.0132 19.4263 14.3335 17.8435C14.8946 17.1605 15.0927 16.0442 14.9607 14.2782L14.8616 12.8121L14.086 14.2949C13.2113 15.9276 13.1618 16.1275 13.5743 16.0942C14.119 16.0609 14.0199 16.7606 13.3928 17.3937C12.4026 18.3933 11.0658 18.3933 10.0921 17.4104C9.46495 16.7773 9.16789 15.811 9.16789 14.3282C9.16789 13.3786 9.2009 13.2786 9.72901 12.8121C10.4057 12.229 11.6764 9.69666 12.056 8.24722C12.6997 5.6982 12.023 4.16545 10.2406 4.16545H9.64649L9.97657 3.73228C10.8678 2.59939 10.0591 1 8.62327 1C8.09516 1 7.78159 1.09996 7.48452 1.38319ZM9.13488 1.93298C9.92705 2.48277 9.26691 3.88223 8.34271 3.58234C7.60005 3.3491 7.50103 2.2162 8.21068 1.86633C8.72229 1.63309 8.70579 1.63309 9.13488 1.93298Z" fill="#62656E"/>
</g>
</svg>
