<svg width="10" height="10" viewBox="0 0 10 10" fill="none" xmlns="http://www.w3.org/2000/svg">
<g id="Frame" clip-path="url(#clip0_1_7131)">
<path id="Vector" d="M9.68742 3.64017C9.6894 4.37129 9.40471 5.07406 8.89445 5.59767C8.88771 5.60907 8.87956 5.61957 8.87018 5.62892L5.55572 8.94347C5.48318 9.01602 5.39705 9.07357 5.30227 9.11283C5.20748 9.15209 5.10589 9.1723 5.00329 9.1723C4.9007 9.1723 4.79911 9.15209 4.70432 9.11283C4.60953 9.07357 4.52341 9.01602 4.45086 8.94347L1.13619 5.62892C0.741919 5.23615 0.473143 4.73515 0.363937 4.18944C0.25473 3.64372 0.310012 3.07788 0.522773 2.56362C0.735534 2.04936 1.09619 1.60986 1.55903 1.30082C2.02187 0.991776 2.56605 0.827117 3.12258 0.827712H3.12492C3.77199 0.828128 4.39921 1.05123 4.90119 1.45953C4.92913 1.48218 4.964 1.49454 4.99996 1.49454C5.03593 1.49454 5.0708 1.48218 5.09873 1.45953C5.51084 1.12264 6.01015 0.909729 6.53855 0.845566C7.06695 0.781403 7.6027 0.868631 8.08346 1.0971C8.56421 1.32556 8.9702 1.68587 9.25415 2.13608C9.53811 2.58629 9.68836 3.10789 9.68742 3.64017Z" fill="white"/>
</g>
<defs>
<clipPath id="clip0_1_7131">
<rect width="10" height="10" fill="white"/>
</clipPath>
</defs>
</svg>
