<svg width="52" height="52" viewBox="0 0 52 52" fill="none" xmlns="http://www.w3.org/2000/svg">
<g id="Group 2131327890">
<g id="Rectangle 36544" filter="url(#filter0_d_1_7152)">
<rect x="4" width="44" height="44" rx="12" fill="url(#paint0_radial_1_7152)" fill-opacity="0.24" shape-rendering="crispEdges"/>
<rect x="4.5" y="0.5" width="43" height="43" rx="11.5" stroke="white" stroke-opacity="0.01" shape-rendering="crispEdges"/>
</g>
<path id="Shape" d="M29.405 13.7919C31.9895 13.8953 33.1956 15.1359 33.3334 17.7204C33.3679 18.7197 33.4024 19.0299 33.4024 21.5799C33.4024 24.13 33.4024 24.4401 33.3334 25.4395C33.2301 28.024 32.024 29.2301 29.405 29.3679C28.4056 29.4024 28.0955 29.4368 25.5455 29.4368C22.9954 29.4368 22.6853 29.4368 21.6859 29.3679C19.1014 29.2645 17.8953 28.024 17.7575 25.4395C17.723 24.4401 17.6885 24.13 17.6885 21.5799C17.6885 19.0299 17.6885 18.7197 17.7575 17.7204C17.8608 15.1359 19.067 13.9298 21.6859 13.7919C22.6853 13.7575 22.9954 13.723 25.5455 13.723C28.0955 13.723 28.4056 13.723 29.405 13.7919ZM25.5455 12C22.9609 12 22.6163 12 21.617 12.0689C18.1365 12.2412 16.2068 14.1365 16.0689 17.617C16.0345 18.6508 16 18.9609 16 21.5455C16 24.13 16 24.4746 16.0689 25.4739C16.2412 28.9544 18.1365 30.8841 21.617 31.022C22.6508 31.0565 22.9609 31.0909 25.5455 31.0909C28.13 31.0909 28.4746 31.0909 29.4739 31.022C32.9544 30.8497 34.8841 28.9544 35.022 25.4739C35.0564 24.4401 35.0909 24.13 35.0909 21.5455C35.0909 18.9609 35.0909 18.6163 35.022 17.617C34.8497 14.1365 32.9544 12.2068 29.4739 12.0689C28.4746 12 28.13 12 25.5455 12ZM25.5455 16.6521C22.8231 16.6521 20.6521 18.8576 20.6521 21.5455C20.6521 24.2678 22.8576 26.4388 25.5455 26.4388C28.2678 26.4388 30.4388 24.2333 30.4388 21.5455C30.4388 18.8576 28.2333 16.6521 25.5455 16.6521ZM25.5455 24.7502C23.788 24.7502 22.3751 23.3374 22.3751 21.5799C22.3751 19.8225 23.788 18.4096 25.5455 18.4096C27.3029 18.4096 28.7158 19.8225 28.7158 21.5799C28.7158 23.3029 27.3029 24.7502 25.5455 24.7502ZM30.6456 15.3082C30.0253 15.3082 29.5084 15.8251 29.5084 16.4454C29.5084 17.0656 30.0253 17.5825 30.6456 17.5825C31.2658 17.5825 31.7827 17.0656 31.7827 16.4454C31.7827 15.8251 31.2658 15.3082 30.6456 15.3082Z" fill="#DC4276"/>
</g>
<defs>
<filter id="filter0_d_1_7152" x="0" y="0" width="52" height="52" filterUnits="userSpaceOnUse" color-interpolation-filters="sRGB">
<feFlood flood-opacity="0" result="BackgroundImageFix"/>
<feColorMatrix in="SourceAlpha" type="matrix" values="0 0 0 0 0 0 0 0 0 0 0 0 0 0 0 0 0 0 127 0" result="hardAlpha"/>
<feOffset dy="4"/>
<feGaussianBlur stdDeviation="2"/>
<feComposite in2="hardAlpha" operator="out"/>
<feColorMatrix type="matrix" values="0 0 0 0 0 0 0 0 0 0 0 0 0 0 0 0 0 0 0.07 0"/>
<feBlend mode="normal" in2="BackgroundImageFix" result="effect1_dropShadow_1_7152"/>
<feBlend mode="normal" in="SourceGraphic" in2="effect1_dropShadow_1_7152" result="shape"/>
</filter>
<radialGradient id="paint0_radial_1_7152" cx="0" cy="0" r="1" gradientUnits="userSpaceOnUse" gradientTransform="translate(26) rotate(90) scale(44)">
<stop stop-color="#DC4276"/>
<stop offset="0.927083" stop-color="#DC4276" stop-opacity="0.6"/>
</radialGradient>
</defs>
</svg>
