<svg width="20" height="20" viewBox="0 0 20 20" fill="none" xmlns="http://www.w3.org/2000/svg">
<g id="Group 2131328629">
<g id="Group">
<g id="Black">
<path id="Vector" d="M7.45001 2.05924C7.25939 2.14683 7.10939 2.29385 7.02814 2.47528L6.95314 2.64106L6.94376 4.1175L6.93439 5.59395L7.05314 5.60959C7.32501 5.65025 7.58126 5.72845 7.74689 5.82229C7.87501 5.89424 8.26564 6.26022 9.16564 7.15797L10.4063 8.39355L10.6656 8.14644C11.3344 7.49893 11.5625 7.27058 11.5625 7.25181C11.5625 7.2393 11.5 7.19864 11.4219 7.1611C11.1906 7.04849 11.0719 6.77009 11.1531 6.52611C11.175 6.46354 11.2469 6.36658 11.3125 6.30401C11.5219 6.1132 11.7906 6.11633 12.0031 6.30714C12.075 6.37283 12.1406 6.46667 12.1625 6.54175C12.1813 6.60744 12.2125 6.65748 12.2313 6.6481C12.5 6.52611 12.6906 6.46667 12.8594 6.45103L13.0656 6.43226L13.0563 4.53666L13.0469 2.64106L12.9719 2.47528C12.8906 2.29385 12.7406 2.14683 12.55 2.05924C12.4281 2.00294 12.2875 1.99981 10 1.99981C7.71251 1.99981 7.57189 2.00294 7.45001 2.05924ZM8.52189 2.87879C8.64064 2.92259 8.78126 3.05709 8.83126 3.17909C8.97814 3.52005 8.71564 3.90792 8.34064 3.90792C8.06876 3.90792 7.81251 3.65142 7.81251 3.38241C7.81251 3.02268 8.19064 2.75367 8.52189 2.87879ZM10.1781 4.53666C10.2969 4.58046 10.4375 4.71496 10.4875 4.83696C10.6313 5.17166 10.3656 5.56579 10 5.56579C9.72501 5.56579 9.46876 5.31242 9.46876 5.04028C9.46876 4.68055 9.84689 4.41154 10.1781 4.53666Z" fill="#62656E"/>
<path id="Vector_2" d="M6.6656 6.17294C6.59373 6.19484 6.47185 6.25115 6.39998 6.29494C6.32498 6.33873 5.53123 7.11136 4.63435 8.01224C2.77185 9.87969 2.83123 9.80774 2.8281 10.2738C2.8281 10.7743 2.77185 10.7055 4.6781 12.6105C6.46873 14.3997 6.45623 14.3872 6.84685 14.4341C7.04998 14.4592 7.34998 14.3935 7.5281 14.2871C7.68123 14.1964 10.7875 11.0934 10.9219 10.8994C11.0594 10.6992 11.1375 10.3958 11.1125 10.1643C11.0687 9.77959 11.0531 9.76082 9.25935 7.96845C7.81873 6.52954 7.58748 6.31058 7.4281 6.23863C7.20935 6.13854 6.86248 6.10725 6.6656 6.17294ZM7.25935 7.08634C7.3906 7.17392 7.49998 7.36786 7.49998 7.52114C7.49998 7.65251 7.39998 7.85584 7.29685 7.93717C6.8656 8.27812 6.2531 7.7964 6.48748 7.30217C6.63123 6.99562 6.97498 6.90178 7.25935 7.08634ZM4.43435 9.80462C4.55935 9.86718 4.6781 10.0205 4.72185 10.1643C4.79373 10.4052 4.64685 10.6773 4.3906 10.7774C3.85623 10.9808 3.43123 10.2832 3.84998 9.8922C3.99373 9.75769 4.2656 9.71703 4.43435 9.80462ZM7.23748 9.8359C7.55935 10.0236 7.58435 10.4521 7.28435 10.6961C7.02498 10.9119 6.64685 10.8212 6.48123 10.5053C6.3531 10.2582 6.50935 9.88282 6.78123 9.77959C6.89998 9.7358 7.10935 9.76082 7.23748 9.8359ZM9.95935 9.80774C10.1687 9.91097 10.2969 10.1925 10.2375 10.4271C10.2094 10.5397 10.0375 10.7274 9.9156 10.7774C9.5656 10.9245 9.1531 10.6148 9.19685 10.2363C9.23748 9.87343 9.6281 9.65134 9.95935 9.80774ZM7.1656 12.5542C7.3906 12.648 7.53123 12.9108 7.48748 13.1516C7.46248 13.2768 7.3156 13.4613 7.18435 13.5301C6.9656 13.6427 6.63748 13.5364 6.50935 13.308C6.26248 12.8732 6.70935 12.3602 7.1656 12.5542Z" fill="#62656E"/>
<path id="Vector_3" d="M12.8406 6.97336C12.5593 7.02341 12.4468 7.111 11.6031 7.95244L10.7843 8.76886L11.0437 9.03788C11.4812 9.48519 11.625 9.78861 11.625 10.2703C11.625 10.6301 11.5531 10.8803 11.3625 11.165C11.3125 11.2432 10.975 11.606 10.6125 11.972L9.95621 12.6351L11.1562 13.8394C12.5593 15.2439 12.5625 15.2471 13.0156 15.2471C13.5187 15.2471 13.3875 15.3503 15.3031 13.4391C17.2343 11.509 17.1687 11.5935 17.1718 11.118C17.1718 10.6207 17.2312 10.6957 15.4281 8.88773C14.5656 8.02126 13.7906 7.26114 13.7031 7.19545C13.4406 6.99526 13.1437 6.92018 12.8406 6.97336ZM13.2093 10.605C13.4093 10.6801 13.5625 10.8959 13.5625 11.1024C13.5625 11.387 13.3593 11.6029 13.075 11.6279C12.9375 11.6404 12.8843 11.6279 12.7687 11.5591C12.4687 11.3839 12.4125 10.9648 12.6593 10.7364C12.8312 10.58 13.0218 10.5331 13.2093 10.605Z" fill="#62656E"/>
<path id="Vector_4" d="M8.75007 13.8342C7.87819 14.6975 7.76569 14.7882 7.37819 14.9008C7.18444 14.9571 6.80319 14.9665 6.59382 14.9165C6.27819 14.8445 6.06569 14.7038 5.63444 14.2846L5.22507 13.8842L4.74382 13.9655C3.39069 14.1939 2.46569 14.4848 2.10944 14.7976C1.94694 14.9415 1.96569 15.051 2.17194 15.2074C2.96882 15.8111 5.81882 16.2897 9.01257 16.3554C11.0063 16.3929 12.6657 16.3241 14.2501 16.1364C16.0876 15.9174 17.4219 15.5577 17.9032 15.1511C18.1094 14.979 17.9813 14.7913 17.5157 14.5724C17.0938 14.3753 16.3344 14.1563 15.6938 14.0437L15.4657 14.0031L14.7094 14.7569C14.0282 15.4357 13.9313 15.5202 13.7251 15.6171C13.2626 15.8392 12.8001 15.8392 12.3438 15.6203C12.1251 15.5139 12.0313 15.4295 10.8594 14.2596C10.1719 13.5714 9.60007 13.0115 9.59382 13.0115C9.58444 13.0115 9.20632 13.3837 8.75007 13.8342Z" fill="#62656E"/>
<path id="Vector_5" d="M2 16.2295V16.73L2.11875 16.827C2.63438 17.2587 4.22813 17.6465 6.3625 17.8561C7.625 17.9844 8.0625 18 10.0312 18C11.8781 18 12.2312 17.9875 13.3438 17.8874C15.5906 17.6872 17.3562 17.2712 17.9031 16.8082L18 16.7269V16.2295C18 15.9574 17.9938 15.7322 17.9844 15.7322C17.975 15.7322 17.8656 15.7822 17.7406 15.8448C17.25 16.095 16.3562 16.3359 15.2844 16.5142C10.9438 17.2274 4.32188 16.8864 2.24375 15.8385C2.12812 15.7791 2.025 15.7322 2.01562 15.7322C2.00625 15.7322 2 15.9574 2 16.2295Z" fill="#62656E"/>
</g>
</g>
</g>
</svg>
