<svg width="62" height="68" viewBox="0 0 62 68" fill="none" xmlns="http://www.w3.org/2000/svg">
<g id="Logo" filter="url(#filter0_d_1_13874)">
<path id="Vector" d="M30.7574 51.8084C33.8188 51.7609 34.6934 50.7631 34.5477 50.2404L33.673 47.7697C33.673 47.7697 32.7011 48.4349 30.806 48.4824C28.3763 48.4824 27.696 47.7697 27.696 47.7697L26.8699 50.1454C26.8213 50.668 28.1819 51.8559 30.7574 51.8084Z" fill="url(#paint0_linear_1_13874)"/>
<path id="Vector_2" d="M34.5475 50.2875C34.2073 50.7151 32.9925 51.2853 30.7572 51.2853C28.7162 51.3328 27.2585 50.6201 26.8697 50.145L26.9669 50.7626C27.1127 51.1428 28.1817 52.0455 30.7572 51.998C33.8186 51.9505 34.2073 51.1903 34.4017 50.9052L34.5475 50.2875Z" fill="#492400"/>
<path id="Vector_3" d="M30.7084 48.5303C32.3992 48.5303 33.7698 48.1474 33.7698 47.675C33.7698 47.2027 32.3992 46.8197 30.7084 46.8197C29.0177 46.8197 27.647 47.2027 27.647 47.675C27.647 48.1474 29.0177 48.5303 30.7084 48.5303Z" fill="#492400"/>
<path id="Vector_4" d="M42.5166 26.2935C40.8644 24.6305 39.7467 21.8746 39.358 21.1144C38.8721 22.0172 35.6163 25.0581 34.5472 25.5807C33.381 25.5332 32.1176 25.5332 30.8542 25.5332C29.1534 25.5332 27.5012 25.5807 25.9462 25.6283C24.9744 25.2481 21.5728 22.0172 21.0383 21.0669C20.601 21.8746 19.3375 25.0581 17.491 26.6261C16.6163 26.8636 16.1304 27.1487 16.1304 27.4338C16.1304 28.5266 22.7391 29.3819 30.9027 29.3819C39.0664 29.3819 45.6751 28.5266 45.6751 27.4338C45.5779 27.0537 44.4117 26.6261 42.5166 26.2935Z" fill="url(#paint1_linear_1_13874)"/>
<path id="Vector_5" d="M39.2608 28.9068C37.803 27.2438 39.4552 22.0172 39.3094 21.1144C38.8235 22.0172 35.5677 25.0581 34.4987 25.5807C33.3324 25.5332 32.069 25.5332 30.8056 25.5332C29.1048 25.5332 27.4526 25.5807 25.8977 25.6283C24.9258 25.2481 21.5243 22.0172 20.9897 21.0669C20.8925 21.9221 21.9616 27.8614 21.3299 29.0968C20.4552 29.3344 16.0332 27.1962 16.0332 27.4813C16.0332 28.5742 22.6419 29.4294 30.8056 29.4294C38.9693 29.4294 45.578 28.5742 45.578 27.4813C45.578 27.0537 41.2046 29.2394 39.2608 28.9068Z" fill="url(#paint2_linear_1_13874)"/>
<path id="Vector_6" d="M42.2733 26.8635C40.6697 25.248 39.6492 22.7297 39.2605 22.017C38.7745 22.8723 35.5188 25.6281 34.4497 26.1983C33.2835 26.1508 32.0687 26.1508 30.8052 26.1508C29.1045 26.1508 27.5009 26.1983 25.9945 26.2458C25.0226 25.8657 21.5725 23.0148 21.0866 22.0645C20.6492 22.8723 19.483 25.6756 17.685 27.2436C16.8103 27.4812 17.3449 28.1939 17.3449 28.479C17.3449 29.5243 22.8359 29.9994 30.8538 29.9994C38.8717 29.9994 44.5572 29.1917 44.5572 28.0989C44.5572 27.6237 44.1684 27.1961 42.2733 26.8635Z" fill="url(#paint3_linear_1_13874)"/>
<path id="Vector_7" d="M26.1891 42.9706H34.4499V17.978L30.3195 8L26.1891 17.978V42.9706Z" fill="#999FA7"/>
<path id="Vector_8" d="M26.6754 42.9706H30.66L30.2227 9.04534L26.6754 18.4057V42.9706Z" fill="url(#paint4_linear_1_13874)"/>
<path id="Vector_9" d="M33.4783 42.9706H30.6598L30.1739 9.04534L33.4783 18.4057V42.9706Z" fill="url(#paint5_linear_1_13874)"/>
<path id="Vector_10" d="M29.5908 46.7715H31.0486V10.7556L30.3197 8.09476L29.5908 10.7556V46.7715Z" fill="#CFD0D3"/>
<path id="Vector_11" opacity="0.8" d="M27.1611 42.9704H34.4501C34.4501 42.9704 34.4501 41.3074 34.4501 40.8323C34.4501 40.3096 34.4501 39.9295 34.4501 39.4068C32.9923 39.6444 31.3888 40.3096 31.0486 40.2621C30.1253 40.072 28.133 39.5494 27.1611 39.2643C27.1611 39.4068 27.1611 42.9704 27.1611 42.9704Z" fill="#57595C"/>
<path id="Vector_12" d="M28.1328 47.2944C28.1328 47.2944 27.5497 48.1022 30.4167 48.1022C33.4781 48.1497 32.5062 47.2944 32.5062 47.2944V42.9706H28.1328V47.2944Z" fill="url(#paint6_linear_1_13874)"/>
<path id="Vector_13" d="M32.7007 46.1067C32.6035 46.2492 32.5063 46.3442 32.2147 46.3918C31.9718 46.4393 31.7288 46.4868 31.4858 46.4868C31.0971 46.5343 30.7084 46.5343 30.3196 46.4868C29.9309 46.4868 29.4935 46.4868 29.1048 46.4393C28.8132 46.3918 28.3273 46.2492 28.3273 46.0592C28.3273 46.2967 28.2301 46.6293 28.6188 46.8194C29.0562 47.057 29.8337 47.057 30.4168 47.057C30.9513 47.057 31.2915 47.057 31.7774 46.9619C32.0204 46.9144 32.4091 46.8669 32.5549 46.7244C32.7007 46.4868 32.5549 46.2492 32.6521 46.0116C32.7007 46.0592 32.7007 46.0592 32.7007 46.1067Z" fill="#492400"/>
<path id="Vector_14" d="M32.7002 44.3487C32.7002 44.6813 31.6311 44.7288 31.1938 44.7763C30.4649 44.8239 29.6388 44.8239 29.0071 44.6338C28.9585 44.6338 28.9099 44.5863 28.8613 44.5863C28.6669 44.5388 28.4725 44.3962 28.4239 44.3012C28.4239 44.4437 28.4239 44.6338 28.3753 44.7763C28.3268 45.0614 28.5697 45.1089 29.0071 45.204C29.493 45.299 29.9789 45.3465 30.5135 45.3465C31.048 45.3465 31.3881 45.3465 31.8741 45.2515C32.117 45.204 32.5544 45.1089 32.7002 44.9664C32.7973 44.8239 32.7002 44.5388 32.7002 44.3487Z" fill="#492400"/>
<path id="Vector_15" d="M21.3301 40.8326L30.5628 43.7785L39.6984 41.0227L37.949 38.9795L30.5142 40.7376L23.0794 38.9795L21.3301 40.8326Z" fill="url(#paint7_linear_1_13874)"/>
<path id="Vector_16" d="M21.3301 40.8326L30.5628 43.7785L30.5142 40.7376L23.0794 38.9795L21.3301 40.8326Z" fill="url(#paint8_linear_1_13874)"/>
<path id="Vector_17" d="M22.4476 42.2579L30.5627 43.7783L38.7263 42.4004L39.7468 40.9275L30.5141 42.733L21.2813 40.8324L22.4476 42.2579Z" fill="url(#paint9_linear_1_13874)"/>
<path id="Vector_18" d="M21.8158 40.3095L30.514 42.1151L39.1636 40.4521L39.7467 40.9272L30.514 42.7328L21.2812 40.8322L21.8158 40.3095Z" fill="#BA934F"/>
<path id="Vector_19" d="M30.5147 36.6508C36.6604 36.6508 41.6426 35.7573 41.6426 34.6552C41.6426 33.5531 36.6604 32.6596 30.5147 32.6596C24.3689 32.6596 19.3868 33.5531 19.3868 34.6552C19.3868 35.7573 24.3689 36.6508 30.5147 36.6508Z" fill="url(#paint10_linear_1_13874)"/>
<path id="Vector_20" d="M19.3863 34.228C19.3863 35.3208 24.3914 36.2236 30.5141 36.2236C36.6369 36.2236 41.642 35.3208 41.642 34.228C41.642 34.133 42.2737 30.997 50.0001 22.7295C45.0921 24.5826 39.018 28.9539 37.9975 28.8114C35.2277 28.3837 30.6599 20.4013 30.6599 20.4013C30.6599 20.4013 25.3632 28.4787 22.3505 28.5263C20.7955 28.5738 15.7904 24.2024 12.0001 22.587C17.5397 28.5263 19.3863 34.0855 19.3863 34.228Z" fill="url(#paint11_linear_1_13874)"/>
<path id="Vector_21" d="M19.3863 34.2282C19.3863 35.321 24.3914 36.2238 30.5141 36.2238C32.4579 36.2238 34.4016 36.1288 36.3453 35.9387C37.8517 35.7486 39.5039 35.7962 39.3095 33.8481C39.1638 32.4226 38.3863 31.1397 38.1433 29.7618C38.1433 29.6668 38.1433 28.8115 38.0461 28.8115C37.8517 28.8115 37.706 28.7165 37.5116 28.6215C35.8594 27.5286 34.4502 26.1507 33.3326 24.5827C32.3607 23.2999 31.6318 21.7319 30.6113 20.4965C30.4656 22.0645 31.0487 24.2026 30.5627 25.7231C30.417 26.1032 29.2993 25.9132 29.2993 26.3408C29.2993 26.7209 29.3479 27.0535 29.3479 27.4336C29.3479 27.9563 29.1049 28.4314 28.862 28.9066C27.7929 30.8547 25.8006 32.4701 23.5653 32.4701C23.128 32.4701 22.642 32.3751 22.3505 32.09C21.9131 31.6624 21.9617 30.9497 22.1075 30.332C22.2533 29.7143 22.4962 28.9066 21.9131 28.5264C21.6216 28.3364 21.2328 28.2414 20.9413 28.0988C20.018 27.6237 19.1433 27.006 18.3172 26.4358C16.2763 25.1054 14.2354 23.6325 12.0001 22.6347C17.5397 28.5264 19.3863 34.0856 19.3863 34.2282Z" fill="url(#paint12_linear_1_13874)"/>
<path id="Vector_22" d="M19.3861 34.8457C19.3861 35.891 24.3912 36.7938 30.514 36.7938C36.6368 36.7938 41.6419 35.9385 41.6419 34.8457C41.6419 34.7507 42.1278 31.4722 49.4654 23.3472C44.6547 25.4378 39.0178 29.7616 37.9974 29.6191C35.2275 29.1915 30.6598 21.5416 30.6598 21.5416C30.6598 21.5416 25.3631 29.2865 22.3017 29.3815C20.7467 29.429 16.179 24.7251 12.3887 23.1571C18.0255 28.9064 19.3861 34.7031 19.3861 34.8457Z" fill="url(#paint13_linear_1_13874)"/>
<g id="Group" opacity="0.79">
<path id="Vector_23" d="M30.7086 36.7938C30.8058 35.3683 30.7572 33.8479 30.8058 32.4224C30.903 28.9064 30.903 25.3428 30.8058 21.8267C30.7086 21.6367 30.66 21.5416 30.66 21.5416C30.66 21.5416 29.0079 23.9649 27.0155 26.103C27.0641 27.1483 27.1613 28.1461 27.2585 29.1915C27.4529 31.6622 27.4529 34.2755 27.793 36.7463C28.6677 36.7938 29.591 36.7938 30.5142 36.7938C30.5628 36.7938 30.66 36.7938 30.7086 36.7938Z" fill="#F1FF83"/>
<path id="Vector_24" d="M27.1124 33.7535C26.8694 31.4728 26.5778 29.1921 26.2863 26.9114C25.606 27.5766 24.9743 28.1468 24.2939 28.6219C24.5369 30.2374 24.7313 31.8529 24.9743 33.4209C25.0228 33.8485 25.2172 35.2264 25.4116 36.6043C26.0433 36.6519 26.7236 36.6994 27.4525 36.7469C27.3553 35.4165 27.161 34.1336 27.1124 33.7535Z" fill="#F1FF83"/>
<path id="Vector_25" d="M34.4502 26.9112C33.9642 26.341 33.4783 25.7233 32.9924 25.1056C32.7008 29.0018 32.4092 32.898 32.1177 36.7942C32.3606 36.7942 32.555 36.7942 32.798 36.7942C33.3325 33.4682 33.867 30.1897 34.4502 26.9112Z" fill="#F1FF83"/>
</g>
<path id="Vector_26" d="M42.3703 32.4228C40.4752 32.993 35.8588 33.3731 30.5135 33.3731C25.1683 33.3731 20.5519 32.993 18.6567 32.4228C18.0736 32.6128 17.7335 32.8029 17.7335 32.993C17.7335 33.8482 23.4675 34.5134 30.5135 34.5134C37.5596 34.5134 43.2936 33.8007 43.2936 32.993C43.2936 32.8029 42.9534 32.6128 42.3703 32.4228Z" fill="url(#paint14_linear_1_13874)"/>
<path id="Vector_27" d="M41.5933 34.7033C39.7954 35.2735 35.5191 35.6536 30.514 35.6536C25.5089 35.6536 21.1841 35.2735 19.4347 34.7033C18.8516 34.8933 18.5601 35.0834 18.5601 35.2735C18.5601 36.1287 23.9053 36.7939 30.514 36.7939C37.1227 36.7939 42.468 36.0812 42.468 35.2735C42.468 35.0834 42.1764 34.8933 41.5933 34.7033Z" fill="url(#paint15_linear_1_13874)"/>
<path id="Vector_28" d="M43.0513 32.7075C41.9336 33.4202 36.7341 33.9429 30.4656 33.9429C24.1971 33.9429 19.0462 33.4202 17.9285 32.7075C17.7827 32.8026 17.6855 32.8976 17.6855 32.9926C17.6855 33.8479 23.4196 34.5131 30.4656 34.5131C37.5116 34.5131 43.2457 33.8004 43.2457 32.9926C43.2942 32.8976 43.1971 32.8026 43.0513 32.7075Z" fill="url(#paint16_linear_1_13874)"/>
<path id="Vector_29" d="M42.2737 34.9877C41.2046 35.7004 36.3453 36.2231 30.5141 36.2231C24.6829 36.2231 19.8236 35.7004 18.7545 34.9877C18.6087 35.0827 18.5601 35.1778 18.5601 35.2728C18.5601 36.1281 23.9054 36.7933 30.5141 36.7933C37.1228 36.7933 42.4681 36.0806 42.4681 35.2728C42.4681 35.1778 42.4195 35.0827 42.2737 34.9877Z" fill="url(#paint17_linear_1_13874)"/>
</g>
<defs>
<filter id="filter0_d_1_13874" x="0.44865" y="0.780359" width="61.1029" height="67.1027" filterUnits="userSpaceOnUse" color-interpolation-filters="sRGB">
<feFlood flood-opacity="0" result="BackgroundImageFix"/>
<feColorMatrix in="SourceAlpha" type="matrix" values="0 0 0 0 0 0 0 0 0 0 0 0 0 0 0 0 0 0 127 0" result="hardAlpha"/>
<feOffset dy="4.33178"/>
<feGaussianBlur stdDeviation="5.77571"/>
<feComposite in2="hardAlpha" operator="out"/>
<feColorMatrix type="matrix" values="0 0 0 0 0 0 0 0 0 0 0 0 0 0 0 0 0 0 0.37 0"/>
<feBlend mode="normal" in2="BackgroundImageFix" result="effect1_dropShadow_1_13874"/>
<feBlend mode="normal" in="SourceGraphic" in2="effect1_dropShadow_1_13874" result="shape"/>
</filter>
<linearGradient id="paint0_linear_1_13874" x1="26.9135" y1="49.801" x2="34.5729" y2="49.801" gradientUnits="userSpaceOnUse">
<stop offset="0.0268817" stop-color="#804904"/>
<stop offset="0.2742" stop-color="#573309"/>
<stop offset="0.6935" stop-color="#623908"/>
<stop offset="0.9516" stop-color="#804904"/>
</linearGradient>
<linearGradient id="paint1_linear_1_13874" x1="16.0707" y1="25.2975" x2="45.5908" y2="25.2975" gradientUnits="userSpaceOnUse">
<stop offset="0.0215054" stop-color="#EFDFC4"/>
<stop offset="0.4785" stop-color="#FFC826"/>
<stop offset="0.5914" stop-color="#FFC826"/>
<stop offset="0.9677" stop-color="#EFDFC4"/>
</linearGradient>
<linearGradient id="paint2_linear_1_13874" x1="16.0707" y1="25.2975" x2="45.5908" y2="25.2975" gradientUnits="userSpaceOnUse">
<stop offset="0.0101" stop-color="#DC9600"/>
<stop offset="0.1452" stop-color="#804904"/>
<stop offset="0.8602" stop-color="#804904"/>
<stop offset="1" stop-color="#E3A30A"/>
</linearGradient>
<linearGradient id="paint3_linear_1_13874" x1="17.1862" y1="25.9939" x2="44.5576" y2="25.9939" gradientUnits="userSpaceOnUse">
<stop offset="0.0477345" stop-color="#DC9600"/>
<stop offset="0.2312" stop-color="#804904"/>
<stop offset="0.7581" stop-color="#804904"/>
<stop offset="0.9839" stop-color="#E3A30A"/>
</linearGradient>
<linearGradient id="paint4_linear_1_13874" x1="26.6754" y1="26.0228" x2="30.6618" y2="26.0228" gradientUnits="userSpaceOnUse">
<stop stop-color="#66676A"/>
<stop offset="0.1075" stop-color="#47484B"/>
<stop offset="0.3877" stop-color="#92949A"/>
<stop offset="0.871" stop-color="#A5A6AB"/>
</linearGradient>
<linearGradient id="paint5_linear_1_13874" x1="33.4783" y1="26.0228" x2="30.1619" y2="26.0228" gradientUnits="userSpaceOnUse">
<stop stop-color="#66676A"/>
<stop offset="0.1075" stop-color="#47484B"/>
<stop offset="0.3877" stop-color="#92949A"/>
<stop offset="0.871" stop-color="#A5A6AB"/>
</linearGradient>
<linearGradient id="paint6_linear_1_13874" x1="28.0797" y1="45.5615" x2="32.6469" y2="45.5615" gradientUnits="userSpaceOnUse">
<stop offset="0.0268817" stop-color="#804904"/>
<stop offset="0.2742" stop-color="#573309"/>
<stop offset="0.6935" stop-color="#623908"/>
<stop offset="0.9516" stop-color="#804904"/>
</linearGradient>
<linearGradient id="paint7_linear_1_13874" x1="21.3109" y1="41.3671" x2="39.7199" y2="41.3671" gradientUnits="userSpaceOnUse">
<stop offset="0.1398" stop-color="#573309"/>
<stop offset="0.8602" stop-color="#804904"/>
</linearGradient>
<linearGradient id="paint8_linear_1_13874" x1="21.3109" y1="41.3671" x2="30.5599" y2="41.3671" gradientUnits="userSpaceOnUse">
<stop offset="0.0967742" stop-color="#804904"/>
<stop offset="0.8877" stop-color="#DC9600"/>
</linearGradient>
<linearGradient id="paint9_linear_1_13874" x1="21.291" y1="42.2963" x2="39.7558" y2="42.2963" gradientUnits="userSpaceOnUse">
<stop offset="0.0101" stop-color="#DC9600"/>
<stop offset="0.1452" stop-color="#804904"/>
<stop offset="0.8602" stop-color="#804904"/>
<stop offset="1" stop-color="#E3A30A"/>
</linearGradient>
<linearGradient id="paint10_linear_1_13874" x1="19.3668" y1="34.6658" x2="41.6331" y2="34.6658" gradientUnits="userSpaceOnUse">
<stop offset="0.0376344" stop-color="#E4BA66"/>
<stop offset="0.2849" stop-color="#FFC826"/>
<stop offset="0.451" stop-color="#DC9600"/>
<stop offset="0.9032" stop-color="#804904"/>
</linearGradient>
<linearGradient id="paint11_linear_1_13874" x1="11.9481" y1="28.2966" x2="49.9754" y2="28.2966" gradientUnits="userSpaceOnUse">
<stop offset="0.0215054" stop-color="#EFDFC4"/>
<stop offset="0.4785" stop-color="#FFC826"/>
<stop offset="0.5914" stop-color="#FFC826"/>
<stop offset="0.9677" stop-color="#EFDFC4"/>
</linearGradient>
<linearGradient id="paint12_linear_1_13874" x1="11.9481" y1="28.3323" x2="39.3191" y2="28.3323" gradientUnits="userSpaceOnUse">
<stop offset="0.0101" stop-color="#DC9600"/>
<stop offset="0.1452" stop-color="#804904"/>
<stop offset="0.8602" stop-color="#804904"/>
<stop offset="1" stop-color="#E3A30A"/>
</linearGradient>
<linearGradient id="paint13_linear_1_13874" x1="12.4248" y1="29.1548" x2="49.4479" y2="29.1548" gradientUnits="userSpaceOnUse">
<stop offset="0.0376344" stop-color="#E4BA66"/>
<stop offset="0.2849" stop-color="#FFC826"/>
<stop offset="0.451" stop-color="#DC9600"/>
<stop offset="0.9032" stop-color="#804904"/>
</linearGradient>
<linearGradient id="paint14_linear_1_13874" x1="17.6991" y1="33.4697" x2="43.2984" y2="33.4697" gradientUnits="userSpaceOnUse">
<stop offset="0.0215054" stop-color="#EFDFC4"/>
<stop offset="0.4785" stop-color="#FFC826"/>
<stop offset="0.5914" stop-color="#FFC826"/>
<stop offset="0.9677" stop-color="#EFDFC4"/>
</linearGradient>
<linearGradient id="paint15_linear_1_13874" x1="18.5252" y1="35.7764" x2="42.4734" y2="35.7764" gradientUnits="userSpaceOnUse">
<stop offset="0.0215054" stop-color="#EFDFC4"/>
<stop offset="0.4785" stop-color="#FFC826"/>
<stop offset="0.5914" stop-color="#FFC826"/>
<stop offset="0.9677" stop-color="#EFDFC4"/>
</linearGradient>
<linearGradient id="paint16_linear_1_13874" x1="17.6998" y1="33.6143" x2="43.2991" y2="33.6143" gradientUnits="userSpaceOnUse">
<stop offset="0.0101" stop-color="#DC9600"/>
<stop offset="0.1452" stop-color="#804904"/>
<stop offset="0.8602" stop-color="#804904"/>
<stop offset="1" stop-color="#E3A30A"/>
</linearGradient>
<linearGradient id="paint17_linear_1_13874" x1="18.5252" y1="35.9199" x2="42.4735" y2="35.9199" gradientUnits="userSpaceOnUse">
<stop offset="0.0101" stop-color="#DC9600"/>
<stop offset="0.1452" stop-color="#804904"/>
<stop offset="0.8602" stop-color="#804904"/>
<stop offset="1" stop-color="#E3A30A"/>
</linearGradient>
</defs>
</svg>
