<svg width="20" height="20" viewBox="0 0 20 20" fill="none" xmlns="http://www.w3.org/2000/svg">
<g id="Group 2131328635">
<g id="Group 2131328533">
<path id="Subtract" fill-rule="evenodd" clip-rule="evenodd" d="M7.25 4H6C2.8 4 2 4.75 2 7.75V8.125C3.104 8.125 4 8.965 4 10C4 11.035 3.104 11.875 2 11.875V12.25C2 15.25 2.8 16 6 16H7.25V13C7.25 12.5858 7.58579 12.25 8 12.25C8.41421 12.25 8.75 12.5858 8.75 13V16H14C17.2 16 18 15.25 18 12.25C16.896 12.25 16 11.41 16 10.375C16 9.34 16.896 8.5 18 8.5V7.75C18 4.75 17.2 4 14 4H8.75V7C8.75 7.41421 8.41421 7.75 8 7.75C7.58579 7.75 7.25 7.41421 7.25 7V4Z" fill="#62656E"/>
</g>
</g>
</svg>
