<svg width="38" height="38" viewBox="0 0 38 38" fill="none" xmlns="http://www.w3.org/2000/svg">
<g id="Group" opacity="0.64">
<path id="Vector" d="M27.9915 37.5117C28.1274 37.415 28.2859 36.9074 28.2859 36.714C28.2859 36.3998 28.0594 36.1339 27.7651 36.0614C27.4707 35.9889 27.131 36.0856 26.8593 36.2064C26.5197 36.3515 26.2027 36.5448 25.9083 36.7624C26.1574 36.3756 26.3838 36.0131 26.6329 35.6263C26.1121 35.8439 25.5913 36.0372 25.0705 36.2548C25.3875 35.9889 25.7045 35.723 25.9989 35.4571C25.4328 35.4571 24.8667 35.5296 24.3232 35.6747C24.7308 35.4813 25.1158 35.2396 25.4328 34.9254C24.7987 34.877 24.1874 34.8287 23.5533 34.7803C23.893 34.6595 24.2327 34.5386 24.595 34.4178C24.0968 34.4178 23.5986 34.4178 23.0778 34.4178C23.4175 34.3211 23.7345 34.2002 24.0515 34.0552C23.5307 33.9827 23.0325 33.886 22.5344 33.741C22.9646 33.5718 23.3948 33.3784 23.8251 33.2092C23.4854 33.04 23.1684 32.7983 22.8061 32.6291C22.3306 32.4116 21.8324 32.2424 21.3343 32.0732C20.3606 31.759 19.3643 31.5415 18.3453 31.3964C17.6434 31.2997 16.9188 31.2514 16.2847 30.9614C16.0583 30.8647 15.8319 30.7196 15.6734 30.5263C15.4469 30.2604 15.3564 29.922 15.1752 29.632C14.677 28.7618 13.6581 28.3509 12.8882 27.8191C12.4127 27.4808 11.8692 27.094 11.6654 26.4897C11.5522 26.1997 11.5522 25.8855 11.6202 25.5954C11.6654 25.4021 11.756 25.2329 11.8239 25.0637C11.9145 24.7978 11.9598 24.5803 12.0957 24.3385C12.2089 24.1452 12.3674 23.976 12.458 23.7584C12.6844 23.3234 12.6844 22.7674 12.9108 22.3082C13.092 21.9456 13.4769 21.8006 13.6581 21.4139C13.7487 21.2205 13.7939 21.0271 13.8619 20.8096C13.9977 20.3262 14.043 19.7219 14.2242 19.2627C14.4053 18.8276 14.9261 18.7067 15.2205 19.0693C15.4243 19.311 15.4469 19.6736 15.5828 19.9636C15.6281 20.0603 15.7186 20.1328 15.8092 20.1328C15.8545 20.1328 15.8998 20.0845 15.9451 20.0603C16.0809 19.9153 16.1489 19.7219 16.1942 19.5285C16.3753 18.8518 16.5338 18.1508 16.647 17.4499C16.6923 17.1356 16.7603 16.7731 17.0093 16.5555C17.3037 16.2897 17.7566 16.483 18.0283 16.7006C18.8208 17.3048 18.934 18.7793 18.9793 19.7219C19.002 20.0845 19.002 20.4712 19.1378 20.8096C19.3416 21.2688 19.7719 21.5589 20.1794 21.8248C20.6323 22.1148 21.0852 22.4049 21.5381 22.6949C21.7645 22.9125 21.9909 23.1058 22.24 23.3234C22.2627 23.2267 22.2853 23.13 22.308 23.0333C22.557 23.3234 22.8288 23.6134 23.1458 23.831C23.4628 24.0243 23.8704 24.121 24.2327 24.0002C23.3948 23.2992 22.3985 22.6224 21.7192 21.7523C21.1758 21.0271 20.9267 20.0845 21.0399 19.1902C21.0852 18.8759 21.1758 18.5375 21.3569 18.2717C21.5381 18.0058 21.8324 17.8124 22.1268 17.7882C22.7608 17.7641 23.4175 18.465 23.8704 18.8276C24.0968 19.021 24.3006 19.2385 24.5497 19.4319C24.844 19.6494 25.2063 19.7944 25.5007 20.0361C25.4554 19.7703 25.4328 19.4802 25.4328 19.2143C25.7724 19.6977 26.0441 20.2537 26.2027 20.8579C26.1574 20.5679 26.1574 20.2537 26.18 19.9636C26.497 20.3504 26.7235 20.7854 26.9046 21.2688C26.882 20.9546 26.8593 20.6646 26.814 20.3745C27.199 20.9546 27.516 21.6072 27.7424 22.284C27.7424 22.0181 27.6971 21.7523 27.6518 21.5106C27.9689 21.8489 28.2179 22.2115 28.4444 22.6224C28.5349 22.8158 28.6029 23.0575 28.7161 23.2509C28.8067 23.4201 28.9652 23.5409 29.0558 23.7101C29.2369 23.9518 29.4407 24.2177 29.5766 24.5077C29.6898 24.7494 29.7577 24.967 29.9162 25.1845C30.0521 24.8703 30.0521 24.5077 30.0294 24.1694C30.437 24.7978 30.4823 25.5229 30.9352 26.1272C31.1163 26.3689 32.2711 27.1907 32.2711 27.4082C32.2711 27.0215 32.2938 26.6348 32.2938 26.2722C32.5655 26.8523 32.8599 27.4324 33.1995 27.9642C33.1316 27.5533 33.1995 27.1424 33.2448 26.7315C33.7656 27.8917 34.2185 29.1002 34.8752 30.2121C35.5092 31.2997 36.347 31.8798 37.4339 32.3633C37.3207 32.3149 36.981 32.4358 36.8452 32.4358C36.6187 32.4358 36.4149 32.4116 36.1885 32.3149C35.8262 32.1699 35.4865 31.904 35.2375 31.5415C35.8715 32.4841 36.5055 32.9675 37.5698 33.2576C37.2527 33.1609 36.8904 33.2818 36.5508 33.1851C36.1885 33.0642 35.8488 32.9192 35.5318 32.6775C35.9394 33.1367 36.4602 33.4993 37.0263 33.6685C36.7319 33.741 36.4376 33.6927 36.1659 33.596C36.7093 33.8377 37.298 34.0311 37.8868 34.1277C37.4339 34.4178 36.8678 34.5145 36.3696 34.3694C36.7772 34.5386 37.1622 34.6595 37.5698 34.8045C37.0716 34.8529 36.5734 34.8287 36.0979 34.7078C36.5734 35.0462 37.1169 35.2396 37.6603 35.3121C37.2301 35.3604 36.7999 35.3363 36.3923 35.2879C36.8678 35.6505 37.4113 35.8922 38 36.0131C37.5018 36.1097 36.9584 36.0856 36.4829 35.9164C36.7319 36.1097 36.981 36.3031 37.2075 36.4723C36.7999 36.424 36.3923 36.3273 36.0073 36.1823C35.8941 36.1339 35.9847 37.0524 35.9621 37.1491C35.8715 37.4391 35.5998 37.5358 35.3507 37.5358C34.377 37.9226 32.9957 38.0676 31.9541 37.9709C30.6861 37.6809 29.3275 37.5358 27.9915 37.5117Z" fill="#02ABDA"/>
<path id="Vector_2" d="M27.267 35.3374C26.8594 35.4341 26.4518 35.555 26.0216 35.6517C26.2707 35.5066 26.5198 35.3133 26.6783 35.0716C26.3386 35.0716 25.9989 35.0716 25.6819 35.0716C25.7725 35.0716 25.8631 35.0232 25.8857 34.9265C25.5687 34.7815 25.2517 34.6607 24.9121 34.5881C25.1611 34.5398 25.4102 34.4673 25.6593 34.419C25.1838 34.3223 24.7309 34.2014 24.2554 34.1047C24.5271 34.008 24.8215 33.9597 25.1158 33.9839C24.5498 33.7422 23.9837 33.5488 23.3949 33.3796C23.7346 33.3796 24.0742 33.3796 24.4139 33.3796C22.6024 32.3403 20.5418 31.6635 18.5039 31.3976C17.8019 31.3009 17.1 31.2526 16.4433 30.9625C16.2169 30.8658 15.9905 30.7208 15.832 30.5274C15.6055 30.2616 15.5149 29.9232 15.3338 29.6331C14.3148 27.8928 11.2127 27.9895 11.9146 25.2824C12.1637 24.2914 12.5486 23.3245 13.0015 22.406C13.0694 22.5027 13.0921 22.5994 13.0694 22.7203C13.2053 22.4544 13.3638 22.1885 13.4997 21.9226C13.5902 22.116 13.6582 22.2852 13.7487 22.4786C13.862 21.4634 14.111 20.4724 14.496 19.5539C14.6092 19.2638 14.813 18.9254 15.13 18.9013C15.5149 18.8771 15.7187 19.3363 15.832 19.7231C15.8999 19.0705 16.0131 18.442 16.1716 17.8136C16.1943 17.6927 16.398 17.596 16.398 17.7169C16.5339 17.2818 16.6245 16.4842 17.1 16.3392C17.4623 16.2183 17.8925 16.3392 18.2095 16.5809C18.9794 17.1851 19.1153 18.6837 19.1606 19.6264C19.1832 19.989 19.1832 20.3757 19.3191 20.7141C19.5229 21.1733 19.9305 21.4634 20.338 21.7293C20.7909 22.0193 21.2438 22.3094 21.6967 22.5994C21.9231 22.8169 22.1495 23.0345 22.3986 23.2279C22.4213 23.1312 22.4439 23.0345 22.4665 22.9378C22.7156 23.2278 22.9647 23.5421 23.3044 23.7354C23.644 23.9288 24.029 24.0255 24.3686 23.9046C23.5308 23.2037 22.5571 22.5269 21.8778 21.6326C21.3344 20.9074 21.0853 19.9648 21.1985 19.0463C21.2438 18.7079 21.3117 18.3937 21.4929 18.1278C21.674 17.8619 21.9684 17.6686 22.2627 17.6444C22.8968 17.6202 23.5308 18.3212 23.9837 18.7079C24.6403 19.2397 25.3196 19.7956 25.7952 20.4965C25.8631 20.5932 25.931 20.6899 26.0442 20.7383C26.1575 20.7866 26.2933 20.7383 26.316 20.6174C26.4971 20.7866 26.633 20.9558 26.7688 21.1733C26.7915 21.1008 26.7915 21.0283 26.8141 20.9558C26.9953 21.3425 27.2443 21.7051 27.5161 22.0193C27.5387 21.9468 27.5387 21.8743 27.5387 21.8018C27.6972 22.0193 27.8331 22.2368 27.9916 22.4786C27.9916 22.3335 27.9689 22.2127 27.9689 22.0676C28.7841 23.0345 29.5087 24.0738 30.1427 25.1857C30.2107 25.1373 30.2786 25.0407 30.3012 24.944C30.256 25.089 31.207 26.4667 31.3655 26.6359C31.7957 27.1194 32.3392 27.3852 32.7015 27.9895C32.792 27.8445 32.8373 27.6511 32.8147 27.4819C33.1317 27.8445 33.4261 28.207 33.6978 28.5938C33.7204 28.4488 33.7204 28.3037 33.6978 28.1829C33.7657 28.3762 33.8336 28.5696 33.9242 28.7871C33.9242 28.6179 33.9242 28.4488 33.9469 28.2796C34.6262 29.5606 35.2149 30.9384 36.3471 31.8568C35.9848 31.9294 35.5772 31.7843 35.3055 31.4943C35.4866 32.1227 35.9395 32.6786 36.483 32.9687C36.1659 33.0412 35.8489 32.9929 35.5772 32.8237C36.0527 33.4763 36.8 33.8872 37.5698 33.8872C37.0717 34.1289 36.5282 34.2014 35.9848 34.1289C36.2112 34.2256 36.4377 34.3706 36.6415 34.5398C36.5056 34.5881 36.3697 34.6365 36.2339 34.6848C36.3924 34.8299 36.5509 34.9749 36.7094 35.1199C36.5735 35.2649 36.732 35.5066 36.9132 35.555C37.0943 35.6033 37.2981 35.6033 37.434 35.7242C37.049 35.7242 36.6867 35.7242 36.3018 35.7242C36.415 35.7725 36.5056 35.845 36.5962 35.9417C36.415 35.9901 36.2339 36.0384 36.0527 36.0142C36.1433 36.5702 36.3471 37.4645 35.4866 37.4645C34.513 37.8512 33.1543 37.9962 32.1127 37.8996C30.7768 37.7787 29.4634 37.6337 28.1048 37.6095C28.3992 37.6095 28.218 36.3284 28.1048 36.1834C27.8104 35.7725 27.3349 35.845 26.9273 35.9901C26.9273 35.7967 27.1538 35.3616 27.267 35.3374Z" fill="#3B69AD"/>
<path id="Vector_3" opacity="0.43" d="M26.9953 32.0264C27.7878 32.3648 28.6935 32.9449 29.2143 33.67C29.5993 34.2018 30.3465 35.0719 30.1427 35.7971C30.3239 35.217 30.3465 34.5885 30.2559 33.9842C30.7088 34.7335 31.0258 35.5553 31.2523 36.4013C31.4787 35.8937 31.5013 35.2895 31.3428 34.7577C31.7731 35.3378 32.1127 36.0146 32.3392 36.7155C32.4524 36.0871 32.3845 35.4345 32.158 34.8302C32.7694 35.4828 33.2223 36.2805 33.4487 37.1748C33.6299 36.8122 33.6978 36.353 33.6525 35.9421C33.9695 36.2321 34.4903 36.8364 34.5356 37.2956C34.5582 37.634 34.1733 37.5615 33.8563 37.6099C33.2902 37.6824 32.6562 37.8274 32.0901 37.7791C30.7541 37.6582 29.4408 37.5132 28.0822 37.489C28.3765 37.489 28.1954 36.208 28.0822 36.0629C27.7878 35.652 27.3123 35.7245 26.9047 35.8696C26.9726 35.7729 27.1991 35.3378 27.3123 35.3136C26.9047 35.4103 26.4971 35.5312 26.0669 35.6279C26.316 35.4828 26.565 35.2895 26.7235 35.0478C26.3839 35.0478 26.0442 35.0478 25.7272 35.0478C25.8178 35.0478 25.9084 34.9994 25.931 34.9027C25.614 34.7577 25.297 34.6369 24.9573 34.5643C25.2064 34.516 25.4555 34.4435 25.7046 34.3951C25.2291 34.2985 24.7762 34.1776 24.3007 34.0809C24.5724 33.9842 24.8668 33.9359 25.1611 33.9601C25.0026 33.9359 24.7762 33.815 24.6177 33.7425C24.4592 33.67 24.3007 33.5975 24.1422 33.5492C24.3233 33.525 24.5045 33.5008 24.6856 33.4283C24.4592 33.2833 24.2101 33.2108 23.9837 33.0899C23.7346 32.9691 23.4855 32.8482 23.2591 32.7274C22.7609 32.4856 22.2401 32.2923 21.7419 32.1231C20.7003 31.7605 19.6361 31.5188 18.5718 31.3738C17.8699 31.2771 17.1679 31.2288 16.5113 30.9387C16.2848 30.842 16.0584 30.697 15.8999 30.5036C15.6734 30.2378 15.5829 29.8994 15.4017 29.6093C14.3828 27.869 11.2806 27.9657 11.9825 25.2586C12.2316 24.2676 12.6166 23.3007 13.0694 22.3822C13.1374 22.4789 13.16 22.5756 13.1374 22.6965C13.2732 22.4306 13.4317 22.1647 13.5676 21.8988C13.6582 22.0922 13.7261 22.2614 13.8167 22.4547C13.9299 21.4396 14.179 20.4486 14.5639 19.5301C14.6771 19.24 14.8809 18.9016 15.1979 18.8775C15.5829 18.8533 15.7867 19.3125 15.8999 19.6993C15.9678 19.0467 16.081 18.4182 16.2395 17.7898C16.2622 17.6689 16.466 17.5722 16.466 17.6931C16.6018 17.258 16.6924 16.4604 17.1679 16.3154C17.5302 16.1945 17.9605 16.3154 18.2775 16.5571C19.0474 17.1613 19.1832 18.6599 19.2285 19.6026C19.2511 19.9652 19.2511 20.3519 19.387 20.6903C19.5908 21.1495 19.9984 21.4396 20.406 21.7055C20.8588 21.9955 21.3117 22.2856 21.7646 22.5756C21.991 22.7931 22.2175 23.0107 22.4665 23.204C22.4892 23.1074 22.5118 23.0107 22.5345 22.914C22.7836 23.204 23.0326 23.5183 23.3723 23.7116C23.7119 23.905 24.0969 24.0017 24.4365 23.8808C23.5987 23.1799 22.625 22.5031 21.9457 21.6088C21.5155 21.0287 21.2438 20.2794 21.1985 19.5301C21.1759 19.0708 21.357 18.1523 21.9684 18.7324C22.1722 18.9258 22.2627 19.2642 22.308 19.5542C22.5798 20.7386 23.1006 22.068 24.2101 22.3097C24.0289 22.3339 23.8478 22.3822 23.644 22.4064C24.0742 22.6239 24.4818 22.9382 24.7762 23.3491C24.6403 23.3491 24.5045 23.3732 24.3912 23.3732C24.6856 23.615 24.98 23.8567 25.2744 24.0984C25.3649 24.1709 25.4781 24.2676 25.5008 24.3884C25.5234 24.5093 25.4329 24.6785 25.3196 24.6543C25.7499 25.3311 26.2254 25.8387 26.4971 26.6121C26.5198 26.6605 26.5424 26.7088 26.5197 26.7813C26.4971 26.8538 26.4518 26.878 26.3839 26.9022C25.7046 27.1681 24.4818 25.5486 23.9837 25.1377C24.0516 25.5244 24.0742 25.9112 24.0969 26.2979C22.9647 25.2344 21.9004 24.1467 20.723 23.1315C20.089 22.5514 19.4323 21.9472 19.1379 21.1012C18.9568 20.5694 18.9568 20.0135 18.8888 19.4576C18.8436 18.95 18.753 18.4424 18.6171 17.9348C18.5265 17.5964 18.4133 17.258 18.1869 17.0405C17.9378 16.8229 17.5529 16.7504 17.3264 16.9921C17.1906 17.1372 17.1453 17.3305 17.1 17.5239C16.9188 18.4182 16.7377 19.3367 16.7377 20.2552C16.7377 21.1737 17.0094 22.1164 17.5982 22.7931C18.0284 23.3007 18.6398 23.6391 18.8888 24.2676C18.9341 24.4126 18.9794 24.5576 19.07 24.6785C19.3191 25.041 19.8399 24.9202 20.2475 24.9927C20.9268 25.0894 21.4249 25.6453 21.9231 26.1287C22.9194 27.1197 24.029 27.9415 25.2517 28.57C23.9157 28.4249 22.6024 28.0866 21.357 27.579C20.5418 27.2647 19.7719 26.8538 19.07 26.2979C18.5945 25.9112 18.1869 25.4761 17.7793 25.0169C16.6018 23.7116 15.3338 22.2614 15.1753 20.4486C15.1526 20.1827 15.1526 19.8926 14.9941 19.6751C14.8356 19.4576 14.4733 19.3851 14.3601 19.6268C14.3148 19.6993 14.3148 19.7718 14.2922 19.8685C14.1563 21.077 14.0431 22.4064 14.6318 23.4458C15.0394 24.1709 15.764 24.6785 16.1716 25.4278C16.3528 25.7662 16.466 26.1529 16.7603 26.3946C17.2132 26.7813 17.8925 26.588 18.4586 26.6605C19.2285 26.7813 19.8399 27.3856 20.4965 27.8448C20.9947 28.1832 21.5382 28.4249 22.0816 28.6908C23.0779 29.1501 24.0742 29.6093 25.0706 30.0686C25.8404 30.407 26.633 30.7937 27.0858 31.543C26.7462 31.7122 26.3612 31.5913 26.0216 31.4463C24.9347 31.0112 23.8252 30.6003 22.7383 30.1653C22.5798 30.3344 22.8062 30.5762 22.9873 30.697C24.2327 31.3254 25.6819 31.4463 26.9953 32.0264Z" fill="#541355"/>
<path id="Vector_4" opacity="0.43" d="M18.0963 24.6799C17.5982 24.0998 16.8509 23.9547 16.466 23.2538C16.0811 22.577 15.7641 21.9002 15.7867 21.0784C15.832 20.1116 15.5603 18.1537 16.3528 17.4286C16.2849 18.4196 16.2169 19.4106 16.1716 20.4258C16.1263 21.0059 16.1037 21.6343 16.3981 22.1178C16.8057 22.7945 17.6661 23.0121 18.119 23.6647C18.4586 24.1481 18.5945 24.8974 19.138 25.0666C19.5455 25.1875 20.0663 24.9216 20.406 25.2116C20.5192 25.3083 20.5871 25.4775 20.6777 25.6225C21.2665 26.6135 22.6251 26.7102 23.3497 27.5804C22.6477 27.0486 21.8325 26.686 20.9721 26.5652C20.2928 26.4443 19.5229 26.4685 19.0021 25.9851C18.6172 25.5984 18.436 25.0666 18.0963 24.6799Z" fill="#541355"/>
<path id="Vector_5" opacity="0.43" d="M11.9372 25.2584C12.1863 24.2674 12.5712 23.3005 13.0241 22.3821C13.092 22.4787 13.1147 22.5754 13.092 22.6963C13.2279 22.4304 13.3864 22.1645 13.5223 21.8986C13.6128 22.092 13.6808 22.2612 13.7714 22.4546C13.7714 22.4062 13.794 22.3337 13.794 22.2854C13.794 22.9622 13.9525 23.6873 14.4733 24.0498C14.6771 24.1949 14.9488 24.2915 15.062 24.5333C15.1753 24.7991 15.0847 25.1134 15.1979 25.3792C15.2658 25.5484 15.4243 25.6451 15.5602 25.7418C15.9678 26.0077 16.3527 26.2977 16.7603 26.5636C16.9415 26.6845 17.1226 26.8053 17.3264 26.8537C17.5076 26.8778 17.7113 26.8295 17.8925 26.8053C18.753 26.7086 19.5681 27.2404 20.2927 27.748C20.0663 27.6996 19.8172 27.6271 19.5908 27.5788C21.5155 28.9565 23.5987 30.1167 25.7725 31.0352C24.2327 30.7935 22.7382 30.3101 21.3343 29.6091C20.972 29.4158 20.6097 29.2224 20.2248 29.1257C19.8625 29.029 19.4775 29.029 19.1152 28.9324C18.4133 28.739 17.8472 28.2556 17.2132 27.9172C16.6245 27.603 15.9904 27.3854 15.4017 27.0712C14.813 26.757 14.2469 26.2977 13.9751 25.6451C13.7487 25.065 13.7714 24.3882 13.4996 23.8081C13.4543 23.7114 13.3864 23.6389 13.2958 23.6389C13.2053 23.6631 13.1826 23.784 13.16 23.8806C13.1147 24.4366 13.092 24.9683 13.0694 25.5243C13.0694 25.766 13.0694 26.0077 13.2053 26.201C13.3411 26.3944 13.5449 26.4669 13.7487 26.5636C14.4733 26.8778 15.1073 27.3854 15.6055 28.0139C15.8999 28.4006 16.1716 28.8357 16.6244 28.9565C16.8282 29.029 17.0547 29.0049 17.2811 28.9807C19.6813 28.9324 21.674 30.9627 24.0289 31.4703C24.5044 31.567 25.0026 31.6153 25.4555 31.7845C26.0216 32.002 26.4971 32.3888 26.9499 32.7755C27.6066 33.3073 28.2633 33.8632 28.7841 34.54C29.3049 35.2168 29.6898 36.0386 29.7125 36.9329C29.7125 37.0779 29.7125 37.2471 29.5993 37.3438C29.4634 37.4647 29.2822 37.4163 29.1011 37.368C29.0784 37.368 29.0558 37.3438 29.0105 37.3438C28.6935 36.8362 28.3539 36.3528 27.9236 35.9177C27.4255 35.4343 27.2896 35.7727 26.7914 35.9419C26.8594 35.8452 27.0858 35.4101 27.199 35.386C26.7914 35.4826 26.3839 35.6035 25.9536 35.7002C26.2027 35.5552 26.4518 35.3618 26.6103 35.1201C26.2706 35.1201 25.931 35.1201 25.614 35.1201C25.7045 35.1201 25.7951 35.0717 25.8178 34.9751C25.5008 34.83 25.1837 34.7092 24.8441 34.6367C25.0932 34.5883 25.3422 34.5158 25.5913 34.4675C25.1158 34.3708 24.6629 34.2499 24.1874 34.1533C24.4591 34.0566 24.7535 34.0082 25.0479 34.0324C24.4818 33.7907 23.9157 33.5973 23.327 33.4281C23.6666 33.4281 24.0063 33.4281 24.3459 33.4281C22.5344 32.3888 20.4739 31.712 18.4359 31.4461C17.734 31.3494 17.032 31.3011 16.3754 31.011C16.1489 30.9144 15.9225 30.7693 15.764 30.576C15.5376 30.3101 15.447 29.9717 15.2658 29.6816C14.3374 27.8447 11.2353 27.9413 11.9372 25.2584Z" fill="#541355"/>
<path id="Vector_6" opacity="0.6" d="M16.5113 27.0225C15.4697 26.2007 13.2959 25.7173 13.4997 23.9286C13.5449 23.4935 13.6808 23.0585 13.8393 22.6476C13.9072 22.9376 13.862 23.2518 13.8846 23.5661C13.9978 25.113 15.6055 25.9348 16.6018 26.7566C17.0094 27.095 17.3491 27.5301 17.8246 27.7476C18.3907 28.0135 19.0247 27.9168 19.6361 28.0377C20.3154 28.1827 20.9268 28.5694 21.5381 28.9562C21.9004 29.1979 22.2627 29.4396 22.6477 29.6813C21.9231 29.6088 21.3117 29.077 20.6098 28.8595C20.1569 28.7144 19.6814 28.6903 19.2285 28.5936C18.6624 28.4727 18.119 28.231 17.6208 27.8926C17.2132 27.6268 16.8736 27.3125 16.5113 27.0225Z" fill="#241539"/>
<path id="Vector_7" opacity="0.6" d="M18.5493 24.4845C18.6625 24.6295 18.7983 24.7745 18.9342 24.8954C19.1833 25.1129 19.4776 25.2821 19.772 25.4271C20.474 25.7897 21.1759 26.1764 21.8552 26.539C21.1533 26.3456 20.474 26.1522 19.772 25.9347C19.5229 25.8622 19.2512 25.7897 19.0248 25.6447C18.753 25.4755 18.5493 25.2096 18.3455 24.9437C17.8247 24.2427 17.2359 23.7835 16.6019 23.2276C16.0358 22.72 15.515 22.1641 15.6056 21.2939C15.6509 20.8588 15.7867 20.4238 15.9452 20.0128C16.0132 20.3029 15.9679 20.6171 15.9905 20.9313C16.0585 21.9465 16.8736 22.7925 17.5529 23.3968C17.7114 23.5418 17.8699 23.6626 18.0058 23.8077C18.2096 24.0252 18.3907 24.2669 18.5493 24.4845Z" fill="#241539"/>
<path id="Vector_8" opacity="0.6" d="M18.7304 29.3929C19.387 29.6104 19.9531 30.0697 20.5645 30.3839C21.9231 31.0607 23.5535 31.0849 24.7762 32.0034C24.346 31.8342 23.9158 31.7133 23.4629 31.665C22.9647 31.6166 22.4666 31.6408 21.9911 31.4958C21.0174 31.2299 20.2701 30.3597 19.2965 30.0939C18.821 29.973 17.7793 30.2147 17.5076 29.683C17.1453 29.0303 18.4587 29.2962 18.7304 29.3929Z" fill="#241539"/>
<path id="Vector_9" opacity="0.6" d="M16.0357 30.2848C15.6734 29.8739 15.4923 29.4147 15.0847 29.0279C14.6771 28.6654 14.2016 28.3995 13.7487 28.1336C13.3864 27.9402 13.0467 27.7227 12.6844 27.5293C13.2279 27.8677 13.8846 27.8194 14.4733 28.0611C15.0167 28.2786 15.5149 28.5929 15.8998 29.0521C16.0584 29.2455 16.1942 29.463 16.3754 29.6564C16.8282 30.1398 17.4396 30.3815 18.051 30.5265C18.6624 30.6715 19.2964 30.7682 19.8851 31.0099C20.1342 31.1308 20.3833 31.2516 20.655 31.3725C21.8098 31.9284 23.0779 32.0735 24.278 32.5085C24.7762 32.7019 25.297 32.9678 25.546 33.4512C23.6893 32.7261 21.8551 32.0251 19.9983 31.3242C19.387 31.1066 18.7756 30.8649 18.1416 30.8166C17.7793 30.7924 17.3943 30.8166 17.032 30.7682C16.6471 30.6957 16.2848 30.5749 16.0357 30.2848Z" fill="#241539"/>
<path id="Vector_10" d="M25.5687 24.0731C24.9573 22.9129 24.0516 22.4053 23.0326 21.7527C23.3496 21.8252 23.6893 21.8252 24.0063 21.7527C23.5081 21.6318 23.0326 21.4868 22.5345 21.366C22.8062 21.4143 23.0779 21.3901 23.3496 21.3176C22.8062 21.1726 22.308 20.8342 21.9231 20.375C22.3307 20.5925 22.7835 20.81 23.2138 20.665C22.942 20.375 22.6477 20.1332 22.308 19.9157C21.9684 19.6982 21.289 19.2389 21.2438 18.7555C21.2211 18.2479 21.7872 18.0062 22.1948 18.0787C22.4892 18.1271 22.7609 18.2963 22.9873 18.4896C23.4628 18.9005 23.8704 19.4081 24.1421 20.0124C24.1421 19.7223 24.1421 19.4323 24.1421 19.1422C24.4818 19.6257 24.7762 20.1332 25.0479 20.665C25.0026 20.4233 25.0026 20.1574 25.0479 19.9157C25.2743 20.3991 25.5008 20.9067 25.6819 21.4143C25.6819 21.1726 25.7046 20.9309 25.7046 20.6892C25.9536 21.2209 26.2027 21.7527 26.4518 22.3086C26.3839 21.8977 26.3612 21.4868 26.3839 21.0759C26.7009 21.8252 27.0632 22.5745 27.4255 23.2755C27.4028 22.9129 27.3802 22.5262 27.3575 22.1636C27.584 22.6712 27.8331 23.1788 28.0595 23.7105C28.0369 23.4205 28.0821 23.1063 28.1501 22.8162C28.2859 23.3238 28.4444 23.8556 28.5803 24.3631C28.535 24.0489 28.4897 23.7347 28.4671 23.4447C28.7162 24.2906 29.169 25.0399 29.5993 25.7651C29.8936 26.2726 30.2106 26.7802 30.505 27.2636C29.5087 26.4902 28.3539 25.9101 27.1311 25.5959C26.7915 25.4992 26.4292 25.4267 26.1574 25.185C25.931 24.8707 25.7725 24.4598 25.5687 24.0731Z" fill="#02ABDA"/>
<path id="Vector_11" d="M16.4206 21.2446C16.4432 21.4621 16.5112 21.728 16.715 21.7522C16.8282 21.7763 16.964 21.7038 17.0546 21.7763C17.1905 21.8488 17.1905 22.0664 17.1905 22.2356C17.349 22.0664 17.5301 21.8972 17.6886 21.728C17.5301 22.3081 17.8245 22.9124 18.1189 23.3958C18.3679 23.8067 18.7076 24.1451 19.1152 24.411C19.2737 24.5076 19.4322 24.6043 19.636 24.6285C19.8171 24.6527 19.9983 24.6285 20.2021 24.6285C20.655 24.6285 21.1078 24.7493 21.4928 24.9669C21.221 24.701 20.9493 24.4351 20.6776 24.1692C21.0625 24.3143 21.4475 24.4351 21.8551 24.5076C21.4248 24 20.9493 23.5408 20.4285 23.1541C20.0662 22.864 19.636 22.4773 19.7492 22.0422C19.636 22.2356 19.319 22.1631 19.2058 21.9697C19.0925 21.7763 19.1152 21.5346 19.1378 21.2929C18.9793 21.3654 18.8208 21.4379 18.6623 21.5105C18.685 21.2687 18.685 21.027 18.7076 20.7612C18.5265 21.0512 18.2321 21.2687 17.8924 21.3413C17.9604 20.4228 17.983 19.5043 17.983 18.5858C17.983 18.2957 17.983 17.9815 17.8924 17.7156C17.8019 17.4498 17.5981 17.1839 17.3263 17.1355C16.4432 16.9422 16.4432 18.8033 16.4432 19.3351C16.4432 19.9393 16.3753 20.6403 16.4206 21.2446Z" fill="#02ABDA"/>
<path id="Vector_12" d="M15.2885 23.9763C15.1753 23.9522 15.0847 23.928 14.9715 23.8555C14.7224 23.6863 14.5186 23.4929 14.3601 23.227C14.1337 22.8403 14.1337 22.2844 14.1563 21.8251C14.1789 21.3175 14.2242 20.6891 14.428 20.2298C14.5412 19.964 14.813 19.7223 15.0394 19.8673C15.3564 20.0606 15.1979 20.5199 15.1979 20.8099C15.1753 21.2934 15.2206 21.7284 15.1073 22.2118C15.0847 22.3569 15.0394 22.5019 15.0394 22.6469C15.1526 22.4536 15.2885 22.2602 15.447 22.091C15.4017 22.5502 15.447 22.9853 15.4923 23.4204C15.6281 23.227 15.8772 23.0095 16.0584 23.1303C16.0584 23.2512 16.0357 23.3962 16.1037 23.4929C16.1489 23.6138 16.2848 23.6863 16.398 23.6138C16.7603 24.0247 17.417 24.7256 17.9151 24.919C17.6661 24.8223 17.4396 24.7256 17.1905 24.6289C17.5302 24.919 17.7566 25.209 18.051 25.5474C17.8246 25.4749 17.5981 25.4024 17.3717 25.3541C17.734 25.5474 18.051 25.8375 18.2774 26.2C17.9378 26.1034 17.5755 25.9825 17.2358 25.8858C17.3717 25.9825 17.5076 26.0792 17.6434 26.1759C17.1226 26.1275 16.6245 25.7408 16.466 25.209C16.3301 24.7981 16.3301 24.2422 15.9451 24.073C15.7187 23.9763 15.4923 24.0005 15.2885 23.9763Z" fill="#02ABDA"/>
<g id="Group_2">
<path id="Vector_13" d="M22.9193 19.9395C22.7835 19.9153 22.6476 19.8428 22.5118 19.7703C22.2627 19.6253 22.0362 19.4319 21.8777 19.1902C21.5834 18.8034 21.2211 18.1992 21.4928 17.6916C21.5834 17.5466 21.6966 17.4257 21.8098 17.329C21.8325 17.3049 21.8777 17.2807 21.9004 17.2565C21.9457 17.2565 21.9683 17.2565 22.0136 17.2565C22.4665 17.329 22.8741 17.6191 23.1911 17.9575C23.4401 18.2233 24.0062 18.8276 23.961 19.2385C23.893 19.6494 23.259 19.9878 22.9193 19.9395Z" fill="#3B69AD"/>
<path id="Vector_14" d="M22.8967 20.1809C22.7382 20.1567 22.5797 20.0842 22.3985 19.9875C22.1268 19.8183 21.8777 19.6008 21.6966 19.3591C21.0173 18.4889 21.1078 17.9088 21.289 17.5946C21.3796 17.4254 21.5381 17.2804 21.6513 17.1595C21.6966 17.1353 21.7419 17.0628 21.8324 17.0387C21.923 17.0145 22.0136 17.0145 22.0589 17.0387C22.5118 17.1353 22.9646 17.4012 23.3496 17.8121C23.8251 18.3197 24.2327 18.8273 24.1874 19.2865C24.1647 19.5041 24.0289 19.6975 23.8024 19.8666C23.5986 20.0358 23.2816 20.1809 23.0099 20.1809C22.9646 20.1809 22.9193 20.1809 22.8967 20.1809ZM21.9457 17.4979C21.8324 17.5946 21.7419 17.6913 21.6739 17.8121C21.4701 18.1747 21.7645 18.6823 22.0589 19.0448C22.2174 19.2624 22.4212 19.4316 22.6476 19.5766C22.7835 19.6491 22.8741 19.6975 22.9873 19.7216C23.1005 19.7458 23.3496 19.6733 23.5534 19.5041C23.6666 19.4074 23.7345 19.3107 23.7572 19.2382C23.7798 19.1174 23.6666 18.8273 23.0552 18.1505C22.7835 17.8846 22.4212 17.5704 21.9457 17.4979Z" fill="#112848"/>
</g>
<g id="Group_3">
<path id="Vector_15" d="M16.5338 18.0096C16.3074 17.6471 16.2621 16.9461 16.398 16.5352C16.4885 16.2452 16.6923 16.0035 16.9414 15.9068C17.0546 15.8584 17.1905 15.8584 17.3037 15.8826C17.3943 15.9068 17.4849 15.9793 17.5528 16.0518C17.8245 16.3419 17.8471 16.7044 17.8245 17.0912C17.8245 17.357 17.8019 17.6229 17.7113 17.8405C17.6207 18.0822 17.4169 18.2755 17.1905 18.3239C16.964 18.3964 16.6923 18.2514 16.5338 18.0096Z" fill="#3B69AD"/>
<path id="Vector_16" d="M16.3527 18.1537C16.081 17.7187 16.0357 16.921 16.1942 16.4618C16.3074 16.0992 16.5791 15.8092 16.8735 15.6883C17.0547 15.6158 17.2132 15.6158 17.3717 15.6641C17.5075 15.7125 17.6207 15.785 17.734 15.9058C18.0736 16.2684 18.0963 16.7035 18.0736 17.1144C18.0736 17.3803 18.051 17.6703 17.9378 17.9604C17.8019 18.2988 17.5528 18.5405 17.2584 18.5888C17.2132 18.5888 17.1679 18.5888 17.1226 18.5888C16.8282 18.613 16.5339 18.4438 16.3527 18.1537ZM17.032 15.8333C17.0094 15.8333 16.9641 15.8092 16.9414 15.8333C16.9188 15.8333 16.8962 15.8575 16.8735 15.8817C16.6924 16.0992 16.6924 16.3409 16.6018 16.6068C16.4886 16.9452 16.5112 17.5736 16.715 17.8637C16.8282 18.0329 17.0094 18.1296 17.1679 18.1054C17.3037 18.0812 17.4396 17.9362 17.5302 17.767C17.6207 17.5736 17.6207 17.3078 17.6207 17.0902C17.6207 16.6551 17.5981 16.1476 17.2584 15.93C17.1905 15.9058 17.1226 15.8575 17.032 15.8333Z" fill="#112848"/>
</g>
<g id="Group_4">
<path id="Vector_17" d="M14.4506 18.9247C14.5186 18.7797 14.6091 18.6105 14.7224 18.5138C14.8582 18.3929 15.0847 18.3446 15.1979 18.4896C15.2658 18.5863 15.2884 18.7072 15.2884 18.828C15.3111 19.4081 15.3564 20.5683 14.5865 20.5925C13.7713 20.6408 14.2695 19.3356 14.4506 18.9247Z" fill="#3B69AD"/>
<path id="Vector_18" d="M14.0204 20.5683C13.7486 20.1091 14.043 19.2873 14.2468 18.828C14.3147 18.6588 14.4279 18.4654 14.5865 18.3446C14.8129 18.1512 15.1752 18.1029 15.379 18.3446C15.5148 18.5138 15.5375 18.7072 15.5375 18.828C15.5601 19.4565 15.5601 20.1574 15.2205 20.5683C15.062 20.7617 14.8582 20.8584 14.6317 20.8584C14.6091 20.8584 14.6091 20.8584 14.5865 20.8584C14.2694 20.8342 14.1109 20.6892 14.0204 20.5683ZM14.8582 18.7072C14.7676 18.7797 14.6997 18.9247 14.6544 19.0214C14.4053 19.5773 14.2921 20.1332 14.4053 20.3024C14.4053 20.3266 14.4506 20.3749 14.5865 20.3508C14.6997 20.3508 14.7902 20.3024 14.8582 20.2057C15.1299 19.8915 15.0846 19.1181 15.062 18.828C15.062 18.7797 15.062 18.683 15.0167 18.6346C15.0167 18.6346 14.994 18.6346 14.9714 18.6346C14.9714 18.6346 14.9035 18.6588 14.8582 18.7072Z" fill="#112848"/>
</g>
<g id="Group_5">
<path id="Vector_19" d="M13.3864 23.2495C13.5675 22.9594 13.6355 22.621 13.6581 22.2827C13.6581 22.1618 13.6807 22.0651 13.6581 21.9443C13.6355 21.8476 13.5675 21.7267 13.4543 21.7026C13.3637 21.6784 13.2505 21.7267 13.1826 21.7992C13.1147 21.8717 13.0467 21.9684 13.0014 22.0651C12.8656 22.3793 12.458 23.177 12.5712 23.5154C12.7071 23.9021 13.2279 23.467 13.3864 23.2495Z" fill="#3B69AD"/>
<path id="Vector_20" d="M12.707 23.9026C12.5485 23.8784 12.4127 23.7576 12.3447 23.5884C12.2089 23.2016 12.4806 22.549 12.7523 21.9931L12.775 21.9448C12.8202 21.8239 12.8882 21.7031 13.0014 21.6064C13.1373 21.4613 13.3184 21.413 13.4996 21.4613C13.6581 21.5097 13.8166 21.6547 13.8619 21.8722C13.9071 22.0173 13.8845 22.1623 13.8845 22.3073C13.8619 22.6215 13.7939 23.0566 13.5675 23.395C13.4316 23.5884 13.092 23.9268 12.775 23.9268C12.7523 23.9026 12.7297 23.9026 12.707 23.9026ZM13.2052 23.105C13.3637 22.8391 13.4316 22.5007 13.4543 22.2348C13.4543 22.1381 13.4769 22.0656 13.4543 21.9931C13.4316 21.9448 13.409 21.9206 13.409 21.9206C13.409 21.9206 13.3637 21.9206 13.3411 21.9448C13.2958 21.9931 13.2505 22.0656 13.2278 22.1381L13.2052 22.1865C12.8202 22.9841 12.775 23.2742 12.7976 23.395C12.8429 23.4434 13.092 23.25 13.2052 23.105Z" fill="#112848"/>
</g>
<g id="Group_6">
<g id="Group_7">
<path id="Vector_21" d="M23.8932 9.03937C23.6441 10.2237 23.2591 11.3598 22.8968 12.52C22.5572 13.5593 22.0817 14.6712 21.9232 15.783C22.4666 14.9371 23.0327 13.9944 23.7573 13.2934C25.7952 11.3114 27.8331 9.30525 30.3239 7.51661C29.1691 5.92133 26.8142 4.54359 24.663 4.2052C24.5498 4.18103 24.5498 4.13269 24.414 4.13269C24.3687 5.77631 24.2555 7.41993 23.8932 9.03937Z" fill="url(#paint0_linear_1_13702)"/>
</g>
<g id="Group_8" opacity="0.42">
<path id="Vector_22" d="M23.8932 9.03767C23.6441 10.222 23.2592 11.3581 22.8969 12.5183C22.5572 13.5576 22.0591 14.6211 21.9459 15.733C22.7384 14.5728 23.7121 13.6301 24.4367 12.4216C24.8442 11.7448 25.116 10.9713 25.3651 10.1979C25.8632 8.72345 26.384 7.07983 25.8632 5.60541C25.7274 5.21868 25.4556 4.63858 25.1386 4.39687C25.0707 4.34853 24.4367 4.10682 24.4367 4.13099C24.3687 5.77461 24.2555 7.41822 23.8932 9.03767Z" fill="#600E24"/>
</g>
<g id="Group_9">
<path id="Vector_23" d="M26.7462 12.9335C28.4218 12.0151 30.3918 11.58 32.2033 12.0634C31.9316 11.3383 31.4561 10.6857 31.0032 10.0814C30.573 9.50129 30.2333 8.84867 29.7351 8.29274C29.6219 8.17189 28.4445 9.1629 28.3312 9.23541C27.1764 10.1539 25.9989 11.0966 25.0479 12.2326C23.644 13.9246 21.7193 15.2539 21.4249 17.4777C21.8099 16.8009 23.0553 15.9549 23.6666 15.3023C24.6177 14.408 25.614 13.562 26.7462 12.9335Z" fill="url(#paint1_linear_1_13702)"/>
</g>
<g id="Group_10" opacity="0.47">
<path id="Vector_24" d="M26.0443 12.4012C26.9501 11.4827 28.037 10.5159 28.9201 9.57319C29.1465 9.30731 29.6447 8.53384 29.1012 8.4855C28.9201 8.46133 28.2634 9.33148 28.1049 9.47651C27.0633 10.395 25.9764 11.1926 25.0706 12.2803C24.5498 12.9088 24.029 13.4889 23.5309 14.1415C23.2139 14.5524 22.761 15.3984 22.761 15.8334C23.3497 14.9875 24.8668 13.5855 26.0443 12.4012Z" fill="#600E24"/>
</g>
<g id="Group_11">
<path id="Vector_25" d="M20.9948 14.3318C20.9268 15.4437 20.9495 16.5072 21.0853 17.5949C21.6288 16.1204 22.1722 14.6702 22.761 13.2199C24.2554 9.47346 24.7762 5.36442 24.2328 1.4004C22.1496 2.31889 19.5682 3.62412 18.3681 3.91417C18.3002 3.93834 18.2775 3.86582 18.187 3.89C18.187 4.01085 18.2775 4.1317 18.3681 4.20422C19.6135 5.43693 20.3834 7.15306 20.7457 8.9417C21.108 10.7303 21.0853 12.519 20.9948 14.3318Z" fill="url(#paint2_linear_1_13702)"/>
</g>
<g id="Group_12" opacity="0.53">
<path id="Vector_26" d="M21.0854 17.5969C20.9948 16.8476 21.9232 15.6149 22.0364 14.8173C22.1496 14.0196 22.3987 13.4153 22.6252 12.6177C23.1007 10.9016 22.6478 8.96791 22.1949 7.30012C21.9459 6.42997 21.6288 5.53565 21.0854 4.83469C20.7005 4.32711 20.0211 3.72283 19.3871 3.65032C19.2739 3.65032 18.187 3.84369 18.187 3.84369C18.187 3.96454 18.2776 4.0854 18.3682 4.15791C19.6136 5.39062 20.3834 7.10675 20.7457 8.89539C21.108 10.684 21.108 12.4969 21.0175 14.3097C20.9269 15.4457 20.9269 16.485 21.0854 17.5969Z" fill="#600E24"/>
</g>
<g id="Group_13">
<path id="Vector_27" d="M19.7946 14.8425C19.9531 15.9785 19.9305 17.3321 20.4965 18.3231C20.7683 16.4619 21.2438 14.5766 21.2891 12.6913C21.3344 10.9026 21.1079 9.08982 20.4286 7.42203C19.4097 4.88409 17.3038 2.10444 15.13 0.436656C15.0847 0.412485 15.0394 0.364143 14.9715 0.364143C14.9262 0.364143 14.8583 0.388314 14.813 0.436656C13.6582 1.95942 13.16 2.15279 12.1184 3.16796C12.0278 3.19213 12.0958 3.04711 12.0958 3.16796C12.4128 3.26465 12.7298 3.36133 13.0468 3.48218C14.2695 3.94143 15.3564 4.73907 16.1943 5.80258C16.4433 6.1168 16.6698 6.47937 16.8962 6.81776C18.3907 9.23484 19.3644 11.9903 19.7946 14.8425Z" fill="url(#paint3_linear_1_13702)"/>
</g>
<g id="Group_14" opacity="0.51">
<path id="Vector_28" d="M19.7947 14.8387C19.9532 15.9747 19.9306 17.3283 20.4966 18.3193C20.2476 17.8842 20.9042 16.0231 20.9948 15.4913C21.1307 14.6937 21.0627 13.8719 20.9948 13.0501C20.8363 11.3098 20.4966 9.52112 19.523 8.0467C18.7078 6.81398 17.5077 5.91966 16.3302 5.07368C15.583 4.54192 14.8131 3.96182 13.9073 3.91348C14.881 4.34856 15.5377 4.92866 16.217 5.79881C16.4661 6.11303 16.6925 6.47559 16.919 6.81398C18.3908 9.23107 19.3645 11.9865 19.7947 14.8387Z" fill="#600E24"/>
</g>
<g id="Group_15">
<path id="Vector_29" d="M23.5534 23.0102C21.8551 21.5842 21.1532 20.0131 20.4512 17.7893C19.7493 15.5656 20.0889 13.1485 19.2511 10.949C17.6887 6.76743 14.3375 3.38351 10.3295 1.93326C9.3785 3.43185 8.51805 5.00296 7.74816 6.59823C7.58966 6.67074 7.70288 6.86411 7.79345 7.03331C7.88402 7.17833 8.04253 7.27502 8.17839 7.34753C8.51805 7.54089 8.8577 7.71009 9.19736 7.92763C10.873 8.91863 12.3901 10.2239 13.7261 11.6983C14.4054 12.4234 15.0394 13.1969 15.6508 13.9703C15.9904 14.4054 16.6245 15.5898 17.2358 15.4689C17.6434 15.3964 18.051 15.6381 18.3227 15.9765C18.5945 16.3149 18.7303 16.7258 18.8662 17.1609C19.1606 18.0552 19.4776 18.9495 19.704 19.868C19.8852 20.6415 20.655 21.1491 21.2211 21.6325C21.9004 22.2126 22.6024 22.8169 23.4402 23.0827C23.2817 22.7927 23.1232 22.5268 22.9194 22.2851" fill="url(#paint4_linear_1_13702)"/>
</g>
<g id="Group_16" opacity="0.64">
<path id="Vector_30" d="M23.5533 23.0103C21.8551 21.5842 21.1531 20.0131 20.4511 17.7894C19.9756 16.2425 20.1341 14.5988 19.7492 13.0277C19.4775 11.8917 18.934 10.6107 18.3 9.64382C16.5791 6.98502 13.6581 5.19638 10.6238 4.95467C8.94818 4.80965 7.27255 6.45326 9.01611 7.80683C10.6691 9.08789 12.2994 10.1272 13.7486 11.6983C14.4279 12.4235 15.062 13.1969 15.6733 13.9704C16.013 14.4055 16.647 15.5898 17.2584 15.469C17.666 15.3965 18.0736 15.6382 18.3453 15.9766C18.617 16.315 18.7529 16.7259 18.8887 17.161C19.1831 18.0553 19.5001 18.9496 19.7266 19.8681C19.9077 20.6416 20.6776 21.1491 21.2437 21.6326C21.923 22.2127 22.6249 22.8169 23.4628 23.0828C23.3042 22.7928 23.1457 22.5269 22.9419 22.2852" fill="#600E24"/>
</g>
<g id="Group_17">
<path id="Vector_31" d="M9.31069 13.8731C10.5787 14.4532 11.7562 15.1299 12.7525 16.1451C13.3639 16.7736 14.0659 17.4987 14.5187 18.2721C14.6546 18.1755 14.7905 18.0788 14.949 18.1029C15.1301 18.1271 15.2433 18.3205 15.3339 18.4655C15.515 18.7797 15.6962 19.094 15.8773 19.4082C15.9226 18.3688 15.9 17.4262 16.1717 16.411C16.2623 16.0968 16.3755 15.7584 16.6246 15.5892C16.9416 15.3716 17.3718 15.4442 17.6662 15.6859C17.9606 15.9276 18.1644 16.266 18.3229 16.6285C18.7531 17.547 19.0927 18.5139 19.2739 19.529C19.3418 19.8674 19.3871 20.23 19.5456 20.5442C19.9079 21.3418 20.7457 21.7769 21.493 22.1153C21.0627 21.6077 20.791 20.9793 20.4514 20.4234C19.8626 19.5049 19.4324 18.4897 19.1154 17.4262C18.6625 15.9034 18.187 14.3806 17.7341 12.8579C16.9416 10.2474 15.6056 7.70949 12.9563 6.88768C10.9184 6.23507 8.42759 5.2924 6.43495 6.0417C5.5292 6.83934 3.44599 9.44979 2.81197 10.0299C1.92886 10.8275 1.18162 11.8669 0.298523 13.0754C3.06105 12.6645 6.79725 12.737 9.31069 13.8731Z" fill="url(#paint5_linear_1_13702)"/>
</g>
<g id="Group_18" opacity="0.54">
<path id="Vector_32" d="M14.1563 17.1627C14.1336 17.211 14.111 17.2352 14.0884 17.2835C13.9299 17.6703 14.1789 18.057 14.4733 18.2745C14.5865 18.202 14.813 18.0812 14.9488 18.1053C15.13 18.1295 15.2432 18.3229 15.3338 18.4679C15.5149 18.7821 15.6961 19.0963 15.8772 19.4106C15.9225 18.3712 15.8999 17.4285 16.1716 16.4134C16.2622 16.0991 16.3754 15.7608 16.6244 15.5916C16.9415 15.374 17.3717 15.4465 17.6661 15.6882C17.9604 15.93 18.1642 16.2683 18.3227 16.6309C18.753 17.5494 19.0926 18.5162 19.2738 19.5314C19.3417 19.8698 19.387 20.2324 19.5455 20.5466C19.9078 21.3442 20.7456 21.7793 21.4928 22.1177C21.0626 21.6101 20.7909 20.9817 20.4512 20.4257C19.8625 19.5072 19.4323 18.4921 19.1152 17.4285C18.2548 14.5522 17.8019 11.41 15.764 9.13795C15.062 8.34031 14.111 7.63935 13.092 7.68769C13.1147 8.12277 13.3864 8.46116 13.6355 8.79955C14.5639 10.129 15.4243 12.2318 15.5376 13.8996C15.6055 14.8181 15.3564 15.8091 14.745 16.4617C14.5639 16.7034 14.3148 16.8968 14.1563 17.1627Z" fill="#600E24"/>
</g>
<g id="Group_19" opacity="0.6">
<path id="Vector_33" d="M15.4017 17.452C15.3564 17.8629 15.3337 18.2497 15.3337 18.6606C15.3337 18.7331 15.3337 18.8298 15.379 18.9023C15.4243 18.9748 15.4696 18.9989 15.5149 19.0473C15.696 19.1923 15.6281 19.4824 15.8093 19.6274C15.9904 18.8298 16.081 18.0805 16.2168 17.3795C16.3074 16.8961 16.4659 16.1226 16.8962 15.8084C17.349 15.47 17.6207 15.8084 17.8925 16.1951C18.5944 17.1861 18.9341 18.2255 19.0926 19.4582C19.1832 20.1108 19.2737 20.5701 19.6813 21.0776C20.0889 21.5852 20.4965 22.0686 20.9494 22.5037C21.8778 23.3739 22.9194 24.099 24.0515 24.6066C24.6403 24.8725 25.2517 25.09 25.7498 25.5009C25.3649 25.2109 25.3196 24.099 25.3422 23.6397C24.7761 24.2198 24.5497 24.389 23.8025 23.9781C23.1232 23.6156 22.5571 23.108 22.0589 22.4795C21.8551 22.2378 21.606 22.0445 21.4249 21.7786C21.1532 21.416 21.0173 20.981 20.7682 20.6426C19.7719 19.0715 19.4096 17.1378 18.3001 15.6392C18.1416 15.4217 17.9604 15.2041 17.7113 15.0833C16.8056 14.5999 16.2168 14.9141 15.8545 15.8326C15.6281 16.3402 15.4922 16.8961 15.4017 17.452Z" fill="#241539"/>
</g>
</g>
<g id="Group_20">
<g id="Group_21">
<path id="Vector_34" d="M21.7872 17.2576C22.1269 16.2665 23.3043 14.212 24.0063 13.5594L24.4365 13.1485C24.595 12.9793 24.7535 12.8343 24.9347 12.6651C25.9084 11.7224 26.9047 10.7798 27.9463 9.88545C28.4897 9.4262 29.0332 8.96695 29.5766 8.53188C29.8484 8.31434 30.1427 8.07263 30.4371 7.87927C30.6862 7.71007 30.8447 7.58922 30.6182 7.275C29.4181 5.58304 26.9953 4.18113 24.7309 3.84274L24.6403 4.56786C26.565 4.85791 28.6935 6.04228 29.8484 7.44419C27.6293 9.06364 25.7725 10.8765 23.961 12.6168L23.5308 13.0277C22.7609 13.777 21.5155 15.9282 21.1306 17.0158L21.7872 17.2576Z" fill="url(#paint6_linear_1_13702)"/>
</g>
</g>
<g id="Group_22">
<g id="Group_23">
<path id="Vector_35" d="M21.6739 16.6315C21.7645 16.1239 22.0588 15.6889 22.2853 15.2538C22.8514 14.287 23.576 13.441 24.2779 12.595C24.4591 12.4016 24.6176 12.1841 24.7987 11.9907C25.7497 10.8305 26.9272 9.91204 28.0367 9.01771L28.1953 8.89686C29.418 7.88168 29.735 7.73666 29.9841 8.02671C30.3011 8.38927 30.5502 8.77601 30.7993 9.16274C30.9578 9.40445 31.1163 9.62199 31.2748 9.83952C31.5918 10.2504 33.0636 11.8215 32.4523 12.2808C32.2032 12.4741 31.8635 12.45 31.5465 12.4258C30.2558 12.3775 28.9878 12.7884 27.7424 13.1993C25.7271 13.8519 24.1194 15.2296 22.5117 16.6074C22.1268 16.9458 21.7192 17.2841 21.4474 17.7434C21.6739 17.4292 21.606 17.0424 21.6739 16.6315ZM31.6144 11.5798C31.388 11.1447 31.071 10.7338 30.754 10.3229C30.5728 10.0812 30.4143 9.83952 30.2558 9.59781C30.052 9.28359 29.8482 8.99354 29.6444 8.72766C29.5086 8.82435 29.2142 9.01771 28.6255 9.50113L28.467 9.62199C27.3801 10.4921 26.2253 11.4106 25.3195 12.4983C25.161 12.6917 24.9799 12.9092 24.7987 13.1026C24.0968 13.9244 23.3948 14.7462 22.874 15.6405C22.9872 15.5438 23.0778 15.4472 23.1684 15.3505C23.2816 15.2538 23.3722 15.1571 23.4627 15.0604C24.5043 13.9969 25.5233 13.1993 26.5876 12.6192C27.9235 11.8699 29.3048 11.5073 30.6408 11.5073C30.9804 11.5073 31.2974 11.5315 31.6144 11.5798Z" fill="url(#paint7_linear_1_13702)"/>
</g>
</g>
<g id="Group_24">
<g id="Group_25">
<path id="Vector_36" d="M23.7346 15.6624C24.2101 14.5989 25.1158 13.8496 26.0669 13.2695C26.9273 12.7619 27.8331 12.351 28.8067 12.1818C29.6672 12.0368 30.5729 12.061 31.3881 11.7226C31.4787 11.6984 31.5466 11.6501 31.5919 11.5534C31.6372 11.4567 31.6145 11.36 31.6145 11.2633C31.5013 10.6591 31.3428 10.1031 31.0711 9.5472C31.456 9.98228 33.177 11.8676 32.4524 12.2785C32.1806 12.4235 31.8636 12.4477 31.5466 12.4235C30.2559 12.3752 28.9879 12.7861 27.7425 13.197C26.9952 13.5837 26.2254 13.8254 25.5008 14.2847C24.8667 14.6956 24.3686 15.2515 23.7346 15.6624Z" fill="#02ABDA"/>
</g>
</g>
<g id="Group_26">
<g id="Group_27">
<path id="Vector_37" d="M29.9843 8.31727C29.305 8.84903 28.6483 9.42913 27.9916 9.98506C27.4482 10.4443 26.9048 10.9519 26.4066 11.4595C26.1575 11.7254 25.9084 11.9671 25.6594 12.2329C25.4556 12.4505 25.1612 12.6197 24.98 12.8614C25.1385 12.4263 25.4556 12.0637 25.7499 11.7012C26.7236 10.5652 27.6973 9.4533 28.8295 8.51064C29.1918 8.22059 29.622 7.95471 29.8937 7.56797C30.1428 7.22958 29.9616 6.9637 29.7578 6.62531C29.6446 6.43194 29.5541 6.26275 29.4408 6.06938C29.7578 6.19024 29.9616 6.33526 30.1881 6.57697C30.2787 6.67365 30.3466 6.77034 30.4372 6.86702C30.7768 7.25375 30.9353 7.5438 30.4824 7.90637C30.3013 8.05139 30.1428 8.17224 29.9843 8.31727Z" fill="#02ABDA"/>
</g>
</g>
<g id="Group_28">
<g id="Group_29">
<path id="Vector_38" d="M21.1984 19.1681C21.2664 19.3131 21.3343 19.4581 21.4022 19.6032C21.2211 17.742 21.991 15.905 22.6929 14.2372C22.8288 13.923 22.942 13.633 23.0779 13.3429C24.1421 10.6841 24.7308 7.78361 24.7761 4.88311C24.7988 4.13382 24.7761 3.40869 24.7082 2.65939C24.6629 2.20015 24.7761 1.54754 24.4818 1.13663C24.278 0.846581 23.961 1.08829 23.7119 1.18497C23.2137 1.40251 22.7156 1.64422 22.1948 1.88593C20.6776 2.58688 19.0926 3.31201 18.2774 3.50537L18.4133 4.20633C19.319 3.98879 20.8361 3.28784 22.4665 2.53854C22.9646 2.321 23.4628 2.07929 23.9383 1.86176C24.3685 5.63241 23.8477 9.47557 22.4212 13.0287C22.308 13.3187 22.1721 13.633 22.0589 13.923C21.6739 14.8657 21.2664 15.8083 21.0399 16.8235C20.8361 17.742 20.9041 18.3946 21.1984 19.1681Z" fill="url(#paint8_linear_1_13702)"/>
</g>
</g>
<g id="Group_30">
<g id="Group_31">
<path id="Vector_39" d="M20.9041 18.4424C20.406 17.4272 20.6777 16.412 20.7683 15.3485C20.8589 14.4783 20.9041 13.584 20.9268 12.7139C20.9721 10.9494 20.7683 9.16075 20.1116 7.5413C19.1153 5.07588 17.0774 2.36874 14.9942 0.773467C14.2243 1.76447 13.7488 2.17538 13.2053 2.65879C12.843 2.97301 12.6392 3.23889 12.1863 2.82799C11.9826 2.63462 12.6392 2.22372 12.7524 2.10286C13.2959 1.61945 13.7714 1.20854 14.5413 0.193367C14.6319 0.0725128 14.7904 0 14.9489 0C15.1074 0 15.2432 0.0966835 15.2885 0.145025C17.485 1.81281 19.6587 4.68914 20.7004 7.27542C21.3344 8.84653 21.5835 10.5385 21.5835 12.2304C21.5835 13.2456 21.4929 14.2608 21.357 15.276C21.2891 15.7836 21.1759 16.267 21.0853 16.7504C21.0174 17.3063 20.9268 17.8623 20.9041 18.4424Z" fill="url(#paint9_linear_1_13702)"/>
</g>
</g>
<g id="Group_32">
<g id="Group_33">
<path id="Vector_40" d="M23.9385 23.5411C23.4856 22.5017 22.6478 21.7766 22.0817 20.8339C21.5156 19.8913 21.0854 18.7311 20.7684 17.6676C20.4514 16.6524 20.3382 15.5647 20.2476 14.5012C20.1344 13.2685 20.0211 12.0116 19.5683 10.803C18.7305 8.6035 17.4171 6.59732 15.7868 5.00204C14.9716 4.2044 14.0659 3.50345 13.1148 2.89918C12.6393 2.60913 12.1412 2.31908 11.6204 2.07737C11.2807 1.90817 10.9637 1.69063 10.5787 1.61812C10.0353 1.52144 9.85415 2.00485 9.60507 2.41576C8.94841 3.45511 8.35967 4.51862 7.83887 5.63048C8.40496 6.08973 8.81254 5.19541 9.03898 4.7845C9.49185 3.96269 9.96737 3.16506 10.4655 2.36742C14.2697 3.81767 17.4171 7.05656 18.9342 11.0689C19.3418 12.1808 19.4551 13.341 19.5683 14.5495C19.6588 15.6372 19.7721 16.7732 20.1117 17.8851C20.4967 19.0936 20.9948 20.278 21.6968 21.3415C22.0138 21.8008 22.3534 22.2359 22.7384 22.6226C23.0101 22.9126 23.8026 23.2269 23.9385 23.5411Z" fill="url(#paint10_linear_1_13702)"/>
</g>
</g>
<g id="Group_34">
<g id="Group_35">
<path id="Vector_41" d="M23.8931 23.2783C23.4176 22.7224 22.8062 22.4082 22.2854 21.9489C21.7193 21.4413 21.1985 20.8854 20.7682 20.2328C20.2248 19.3868 19.7946 18.42 19.4776 17.3323L18.0963 12.764C17.0547 9.30759 15.4243 7.27724 13.0921 6.55211C12.8883 6.4796 12.7071 6.43125 12.5033 6.35874C10.5107 5.7303 8.26896 4.98101 6.36689 5.70613L6.29896 5.7303L6.25368 5.77864C5.73287 6.23789 4.84977 7.25306 4.05724 8.17156C3.44587 8.87251 2.87977 9.52512 2.63069 9.76683C1.77024 10.5403 1.04564 11.5313 0.230469 12.6432L0.0719632 12.8607C-0.109186 13.1266 0.0719632 13.4891 0.388974 13.4408C2.85713 13.0782 6.66126 13.0782 9.17471 14.2143C10.1937 14.6735 11.19 15.2053 12.0504 15.9787C12.458 16.3413 12.7977 16.728 13.16 17.1389C13.5902 17.5982 14.2242 17.8641 14.6092 18.3233C13.9752 17.574 13.477 16.6797 12.8656 15.8821C12.0052 14.746 10.6918 14.1176 9.44643 13.5617C7.06885 12.4498 3.62701 12.3531 1.11357 12.619C1.77024 11.7247 2.38161 10.9512 3.08357 10.3228C3.37793 10.0569 3.94403 9.40427 4.57805 8.65497C5.32529 7.78482 6.1631 6.81799 6.66126 6.38291C8.33689 5.77864 10.4427 6.45543 12.2995 7.0597C12.5033 7.13221 12.7071 7.18055 12.9109 7.25306C14.9941 7.90568 16.466 9.791 17.4396 12.9816L19.1379 17.429C19.4776 18.565 19.9078 19.9428 20.4739 20.8371C21.3343 22.2148 22.3986 23.1091 23.644 24.0035C23.8025 24.1243 24.0516 24.1243 24.1874 23.9793C24.2101 23.9551 24.2101 23.9068 24.2101 23.8826C24.1648 23.6651 24.0516 23.4959 23.9157 23.3267C23.9157 23.3025 23.9157 23.2783 23.8931 23.2783Z" fill="url(#paint11_linear_1_13702)"/>
</g>
</g>
<g id="Group_36">
<g id="Group_37">
<g id="Group_38">
<path id="Vector_42" d="M8.11067 12.5239C7.40872 12.3789 6.97849 12.3063 6.23125 12.0405C6.11803 12.1613 6.02746 12.258 5.91424 12.3789L5.86895 12.4272L5.82366 12.403C5.71044 12.3547 5.66516 12.3305 5.55194 12.2822L5.43872 12.2338L5.5293 12.1372C5.89159 11.7746 6.0501 11.6054 6.36711 11.2187L6.4124 11.1703L6.45768 11.1945C6.5709 11.2187 6.61619 11.2428 6.72941 11.2912L6.86527 11.3395L6.7747 11.4362C6.66148 11.5571 6.59355 11.6296 6.52562 11.7262C7.20492 11.9438 7.61251 12.0163 8.26918 12.1613L8.72205 12.258L8.42768 12.5722L8.11067 12.5239Z" fill="#600E24"/>
<path id="Vector_43" d="M6.45762 11.2893C6.57084 11.3376 6.61613 11.3376 6.72935 11.386C6.59348 11.5552 6.52555 11.6277 6.38969 11.7727C7.25015 12.0628 7.70302 12.1353 8.58612 12.3045C8.51819 12.377 8.49555 12.4253 8.42762 12.4978C7.54452 12.3286 7.09164 12.2561 6.25383 11.9419C6.11797 12.0869 6.05004 12.1836 5.89153 12.3286C5.77831 12.2803 5.73303 12.2561 5.64245 12.232C5.95946 11.8452 6.11797 11.676 6.45762 11.2893ZM6.41233 11.0959L6.3444 11.1684C6.02739 11.531 5.84624 11.7244 5.50659 12.0869L5.32544 12.2803L5.55188 12.377C5.66509 12.4253 5.71038 12.4495 5.8236 12.4978L5.91417 12.5462L5.98211 12.4737C6.09532 12.3528 6.1859 12.2803 6.27647 12.1594C7.00107 12.4012 7.40865 12.4978 8.11061 12.6187L8.38233 12.667L8.47291 12.6912L8.54084 12.6187L8.69934 12.4253L8.88049 12.2078L8.60877 12.1594L8.3144 12.1111C7.70302 11.9902 7.29544 11.9177 6.68406 11.7244C6.72934 11.676 6.77463 11.6035 6.84256 11.531L7.02371 11.3376L6.77463 11.2651C6.66141 11.241 6.61613 11.2168 6.50291 11.1684L6.41233 11.0959Z" fill="#A86102"/>
</g>
<g id="Group_39">
<path id="Vector_44" d="M8.5859 11.726C7.8613 11.6052 7.36314 11.5085 6.54797 11.2426L6.43475 11.1943L6.70648 10.8801L6.75176 10.9042C7.54429 11.1701 8.01981 11.2426 8.7444 11.3876C8.88027 11.4118 9.33314 11.4843 9.33314 11.4843L9.08406 11.7985L8.5859 11.726Z" fill="#600E24"/>
<path id="Vector_45" d="M6.7066 10.9756C7.68027 11.2899 8.17843 11.3624 9.15211 11.5316C9.10682 11.6041 9.06153 11.6283 9.01625 11.7008C8.01993 11.5316 7.52177 11.4591 6.54809 11.1207C6.63867 11.0965 6.66131 11.0482 6.7066 10.9756ZM6.66131 10.7823L6.59338 10.8548C6.54809 10.9273 6.5028 10.9515 6.45752 11.024L6.27637 11.2174L6.52545 11.2899C7.34062 11.5799 7.83878 11.6524 8.58602 11.7975C8.72188 11.8216 8.85774 11.8458 9.01625 11.87L9.10682 11.8941L9.17475 11.8216L9.31061 11.6524L9.49176 11.4349L9.22004 11.3866C9.06153 11.3624 8.90303 11.3382 8.76717 11.314C8.06521 11.1932 7.5897 11.0965 6.79717 10.8306L6.66131 10.7823Z" fill="#A86102"/>
</g>
<g id="Group_40">
<path id="Vector_46" d="M8.69909 11.2396C8.51794 11.2396 8.31415 11.2155 8.11036 11.1671C7.63484 11.0704 7.29518 10.8529 7.20461 10.5629C7.13668 10.3937 7.18197 10.1761 7.31783 10.0069C7.47633 9.81356 7.65748 9.74105 7.70277 9.71688L7.72541 9.69271L7.74806 9.71688C7.83863 9.76522 7.88392 9.78939 7.97449 9.83774L8.133 9.93442L7.97449 10.0069C7.86128 10.0553 7.7707 10.1278 7.70277 10.2003C7.63484 10.297 7.6122 10.3695 7.63484 10.4662C7.68013 10.6112 7.90656 10.7562 8.24622 10.8287C8.40472 10.8529 8.56323 10.8771 8.69909 10.8771C9.06139 10.8771 9.35576 10.7804 9.51426 10.587C9.58219 10.5145 9.60484 10.4178 9.58219 10.3937L9.55955 10.2728L9.98978 10.3212L10.0124 10.3937C10.0351 10.5145 9.98978 10.6595 9.87656 10.8046C9.69541 11.0704 9.24254 11.2396 8.69909 11.2396Z" fill="#600E24"/>
<path id="Vector_47" d="M7.74809 9.81184C7.83866 9.86018 7.88395 9.88435 7.97452 9.93269C7.86131 9.98103 7.74809 10.0535 7.68016 10.1502C7.43108 10.4403 7.63487 10.7787 8.26889 10.8995C8.4274 10.9479 8.5859 10.9479 8.74441 10.9479C9.12935 10.9479 9.44636 10.827 9.62751 10.6336C9.69544 10.537 9.74073 10.4403 9.71808 10.3678C9.8313 10.3678 9.87659 10.3919 9.98981 10.3919C10.0125 10.4644 9.96716 10.5853 9.85395 10.7303C9.65015 10.972 9.24257 11.1654 8.69912 11.1654C8.51797 11.1654 8.33682 11.1412 8.13303 11.0929C7.36315 10.9237 7.09142 10.4886 7.40843 10.0777C7.54429 9.93269 7.68016 9.83601 7.74809 9.81184ZM7.77073 9.61847L7.7028 9.64264C7.63487 9.66681 7.45372 9.76349 7.29521 9.95686C7.13671 10.1502 7.09142 10.3678 7.15935 10.5853C7.27257 10.8995 7.61223 11.1412 8.11039 11.2379C8.31418 11.2863 8.51797 11.3104 8.72176 11.3104C9.26521 11.3104 9.74073 11.1412 9.98981 10.827C10.1257 10.6578 10.171 10.4886 10.1483 10.3436L10.1257 10.2227L10.0125 10.1986C9.89923 10.1986 9.85395 10.1744 9.74073 10.1744L9.53694 10.1502L9.58222 10.3678C9.58222 10.3919 9.55958 10.4403 9.51429 10.4886C9.37843 10.6578 9.10671 10.7545 8.76705 10.7545C8.63119 10.7545 8.47268 10.7303 8.31418 10.7062C7.95188 10.6336 7.79337 10.4886 7.74809 10.3919C7.72544 10.3436 7.74809 10.2953 7.79337 10.2227C7.86131 10.1502 7.92924 10.0777 8.04245 10.0535L8.38211 9.90852L8.0651 9.73932C7.97452 9.69098 7.92924 9.66681 7.83866 9.61847H7.77073Z" fill="#A86102"/>
</g>
<g id="Group_41">
<path id="Vector_48" d="M10.1938 10.3223C9.94472 10.2497 9.71829 10.2014 9.51449 10.1531C8.97105 10.008 8.51817 9.91136 7.83887 9.66965L7.72565 9.62131L7.97473 9.30709L8.02001 9.33126C8.35967 9.45211 8.56346 9.52462 8.83518 9.59714C8.63139 9.3796 8.51817 9.25874 8.29174 8.99287L8.24645 8.94452L8.49553 8.60613L8.56346 8.67864C8.81254 8.99287 8.9484 9.16206 9.17484 9.42794H9.37863C9.74093 9.40377 10.0127 9.40377 10.3297 9.40377C10.4655 9.40377 10.624 9.40377 10.8052 9.40377H10.9863L10.7146 9.71799H10.6693C10.5787 9.71799 10.4882 9.71799 10.4202 9.71799C10.0806 9.71799 9.80886 9.71799 9.44656 9.74216L9.46921 9.76633L9.76357 9.83885C9.94472 9.88719 10.1032 9.93553 10.3297 9.98387L10.4429 10.008L10.2164 10.2981L10.1938 10.3223Z" fill="#600E24"/>
<path id="Vector_49" d="M8.49547 8.75062C8.74455 9.08901 8.88041 9.23404 9.15213 9.52409C9.65029 9.49992 9.9673 9.49992 10.3522 9.49992C10.4881 9.49992 10.6466 9.49992 10.8278 9.49992C10.7825 9.57243 10.7598 9.5966 10.6919 9.66911C10.6013 9.66911 10.5108 9.66911 10.4428 9.66911C10.0352 9.66911 9.76351 9.69328 9.26535 9.69328C9.33328 9.7658 9.35593 9.81414 9.42386 9.88665C9.78615 9.98333 9.9673 10.0317 10.307 10.1284C10.2617 10.1767 10.239 10.2009 10.1937 10.2734C9.26535 10.0317 8.78983 9.95916 7.8388 9.62077C7.88409 9.54826 7.90673 9.52409 7.97466 9.45157C8.42754 9.62077 8.65397 9.69328 9.10684 9.81414C9.03891 9.7658 8.99363 9.69328 8.9257 9.64494C8.69926 9.40323 8.5634 9.25821 8.33696 8.96816C8.40489 8.87147 8.45018 8.82313 8.49547 8.75062ZM8.51811 8.48474L8.38225 8.62977L8.24639 8.79896L8.22374 8.82313L8.13317 8.94399L8.22374 9.06484C8.3596 9.23404 8.45018 9.35489 8.5634 9.45157C8.40489 9.40323 8.24639 9.35489 8.01995 9.25821L7.90673 9.20987L7.8388 9.30655L7.70294 9.47575L7.54443 9.66911L7.77087 9.74162C8.45018 9.98333 8.90305 10.1042 9.4465 10.225C9.65029 10.2734 9.87673 10.3217 10.1258 10.3942L10.2164 10.4184L10.2843 10.3459L10.3975 10.2009L10.556 9.98333L10.307 9.91082C10.1485 9.86248 10.0352 9.83831 9.89937 9.81414C10.0579 9.81414 10.1937 9.81414 10.3749 9.81414C10.4428 9.81414 10.5334 9.81414 10.624 9.81414H10.6919L10.7372 9.7658C10.7825 9.69328 10.8051 9.66911 10.873 9.62077L11.0995 9.35489H10.7598C10.5787 9.35489 10.4202 9.35489 10.2843 9.35489C9.9673 9.35489 9.69558 9.35489 9.33328 9.37906H9.17478C8.94834 9.13735 8.83512 8.99233 8.58604 8.67811L8.51811 8.48474Z" fill="#A86102"/>
</g>
<g id="Group_42">
<path id="Vector_50" d="M10.8729 9.47321C10.5333 9.35235 10.2616 9.25567 10.0125 9.18316C9.58226 9.03813 9.17467 8.91728 8.60858 8.67557L8.49536 8.62723L8.56329 8.53054C8.76708 8.26466 8.85766 8.14381 9.06145 7.9021L9.10674 7.85376L9.15203 7.87793C9.2426 7.92627 9.31053 7.95044 9.40111 7.97461L9.51432 8.02296L9.44639 8.11964C9.33318 8.26466 9.26525 8.36135 9.15203 8.4822C9.35582 8.55471 9.49168 8.60306 9.71812 8.69974C9.83134 8.55471 9.89927 8.45803 10.0351 8.31301L10.0804 8.26466L10.488 8.40969L10.3974 8.50637C10.2842 8.62723 10.2163 8.72391 10.1257 8.82059L10.2389 8.86894C10.4201 8.94145 10.5559 8.98979 10.7597 9.0623C10.8956 8.91728 10.9635 8.82059 11.0994 8.67557L11.1447 8.62723L11.19 8.6514C11.2805 8.69974 11.3258 8.69974 11.4164 8.74808L11.5296 8.79642L11.439 8.89311C11.2352 9.11064 11.1447 9.2315 10.9635 9.44904L10.9182 9.49738L10.8729 9.47321Z" fill="#600E24"/>
<path id="Vector_51" d="M9.10668 7.9769C9.19725 8.02524 9.26518 8.04941 9.35576 8.07358C9.21989 8.26695 9.12932 8.33946 8.99346 8.53283C9.28782 8.65368 9.42369 8.70202 9.71805 8.79871C9.85392 8.62951 9.92185 8.53283 10.0577 8.36363C10.1483 8.41197 10.1936 8.41197 10.3068 8.46032C10.1709 8.62951 10.103 8.70202 9.96713 8.87122C10.2841 8.99207 10.4653 9.04042 10.7823 9.16127C10.9408 8.99207 11.0087 8.89539 11.1672 8.7262C11.2578 8.77454 11.3031 8.77454 11.3937 8.82288C11.1899 9.04042 11.0993 9.16127 10.9182 9.37881C10.0351 9.06459 9.55955 8.9679 8.6538 8.58117C8.83495 8.33946 8.92553 8.21861 9.10668 7.9769ZM9.06139 7.75936L8.99346 7.85604C8.78966 8.09775 8.69909 8.21861 8.4953 8.48449L8.35944 8.67785L8.56323 8.77454C9.12932 9.01624 9.5369 9.1371 9.96713 9.28212C10.2389 9.37881 10.5106 9.45132 10.8276 9.57217L10.9182 9.59635L10.9861 9.52383C11.1672 9.3063 11.2578 9.18544 11.4616 8.9679L11.6201 8.77454L11.3937 8.67785C11.3031 8.62951 11.2578 8.62951 11.1672 8.58117L11.0767 8.53283L11.0314 8.62951C10.8955 8.77454 10.8276 8.87122 10.7144 8.99207C10.5332 8.91956 10.3974 8.87122 10.2389 8.82288C10.2841 8.75037 10.3521 8.70202 10.42 8.60534L10.5785 8.41197L10.3521 8.31529H10.3294L10.103 8.21861L10.0124 8.19444L9.94449 8.29112C9.83127 8.43614 9.76334 8.50866 9.67277 8.62951C9.51426 8.58117 9.40104 8.53283 9.26518 8.48449C9.33311 8.3878 9.40104 8.31529 9.49162 8.21861L9.65012 8.02524L9.44633 7.92856C9.35576 7.88021 9.28783 7.85604 9.19725 7.83187L9.06139 7.75936Z" fill="#A86102"/>
</g>
<g id="Group_43">
<path id="Vector_52" d="M11.6883 8.53299C11.2581 8.33963 10.9411 8.21877 10.6014 8.07375C10.3524 7.97707 10.0806 7.88038 9.74098 7.73536C9.6504 7.83204 9.60512 7.90455 9.51454 8.00124L9.46925 8.04958L9.42397 8.02541C9.33339 7.97706 9.26546 7.95289 9.17489 7.90455H9.06167L9.1296 7.80787C9.40132 7.46948 9.51454 7.32445 9.76362 7.05857L9.80891 7.01023L9.8542 7.0344C9.96741 7.08274 10.0127 7.10691 10.1033 7.13109L10.2391 7.17943L10.1486 7.27611C10.0806 7.34862 10.0353 7.42114 9.96741 7.46948C10.2618 7.59033 10.5109 7.68701 10.7373 7.7837C11.0996 7.92872 11.4166 8.04958 11.8695 8.26712L11.9827 8.31546L11.7336 8.58134L11.6883 8.53299Z" fill="#600E24"/>
<path id="Vector_53" d="M9.83149 7.10565C9.94471 7.15399 9.98999 7.17816 10.1032 7.22651C9.98999 7.34736 9.94471 7.3957 9.83149 7.51656C10.6693 7.85495 11.0769 7.99997 11.8468 8.33836C11.8015 8.38671 11.7788 8.41088 11.7336 8.45922C10.9637 8.12083 10.5561 7.99997 9.74091 7.63741C9.6277 7.75826 9.58241 7.83078 9.46919 7.95163C9.37862 7.90329 9.31069 7.87912 9.22011 7.85495C9.46919 7.54073 9.58241 7.37153 9.83149 7.10565ZM9.7862 6.91228L9.71827 6.9848C9.46919 7.25068 9.35597 7.3957 9.08425 7.73409L8.94839 7.90329L9.15218 7.99997C9.2654 8.04831 9.31069 8.07249 9.40126 8.12083L9.51448 8.16917L9.58241 8.07249C9.65034 7.9758 9.71827 7.92746 9.76356 7.83078C10.0806 7.95163 10.3296 8.04831 10.5561 8.145C10.8957 8.26585 11.2128 8.41088 11.643 8.60424L11.7336 8.65259L11.8015 8.58007C11.8468 8.53173 11.8694 8.50756 11.9147 8.45922L12.0959 8.29002L11.8694 8.19334C11.4165 7.9758 11.0769 7.85495 10.7372 7.70992C10.5334 7.63741 10.3296 7.54073 10.0806 7.44404C10.1032 7.41987 10.1485 7.37153 10.1711 7.32319L10.3296 7.12982L10.1032 7.03314C9.98999 6.9848 9.94471 6.96063 9.85413 6.93646L9.7862 6.91228Z" fill="#A86102"/>
</g>
</g>
</g>
<path id="Vector_54" d="M12.9788 23.2045C12.9335 23.3012 12.8656 23.3737 12.775 23.3737C12.6618 23.3737 12.9109 22.5519 12.9335 22.4794C13.0241 22.2377 13.1147 21.9234 13.4091 21.8751C13.4091 22.0443 13.2732 22.2377 13.2053 22.4068C13.16 22.576 13.0468 22.7211 13.0241 22.9144C13.0015 23.0111 13.0015 23.1078 12.9788 23.2045Z" fill="#02ABDA"/>
<path id="Vector_55" d="M14.5412 20.2798C14.5412 20.3039 14.5186 20.3281 14.5186 20.3523C14.4959 20.3765 14.4506 20.3523 14.428 20.3281C14.4053 20.3039 14.4053 20.2556 14.3827 20.2073C14.3374 19.8689 14.2468 18.7812 14.7903 18.7328C15.0394 18.7087 14.9261 18.902 14.8582 19.1196C14.7676 19.5063 14.6544 19.893 14.5412 20.2798Z" fill="#02ABDA"/>
<path id="Vector_56" d="M16.9188 17.282C16.9415 17.4754 16.9868 17.6688 16.9188 17.8621C16.2622 17.6688 16.4207 16.4844 16.715 16.0493C16.8282 15.8801 16.8962 15.7351 16.9868 15.9526C17.032 16.0735 16.8962 16.4602 16.8735 16.6294C16.8735 16.8469 16.8962 17.0645 16.9188 17.282Z" fill="#02ABDA"/>
<path id="Vector_57" d="M23.7119 18.7799C23.7572 18.8766 23.7798 18.9733 23.7572 19.0458C23.7345 19.1183 23.6666 19.1908 23.5987 19.2392C23.576 19.2633 23.5307 19.2875 23.4854 19.2875C23.4175 19.2875 23.3722 19.215 23.3269 19.1667C23.0779 18.7558 22.7835 18.224 22.4438 17.9098C22.3306 17.8131 22.1948 17.6922 22.1948 17.523C22.8741 17.5956 23.4175 18.1757 23.7119 18.7799Z" fill="#02ABDA"/>
<path id="Vector_58" opacity="0.43" d="M25.5007 21.9242C25.5687 21.9726 25.6139 22.0451 25.6819 22.1176C25.7951 22.2385 26.4291 23.8821 26.2027 23.8821C26.1121 23.8821 26.0442 23.8821 25.9536 23.9062C26.0215 24.4138 26.1347 24.7522 26.3838 25.2115C26.0895 25.1148 25.8177 24.9939 25.546 24.8247C25.7951 25.3323 25.9762 25.8641 26.0895 26.42C25.5234 25.9366 24.9573 25.4532 24.4818 24.8489C23.7572 23.9546 22.942 23.1569 22.3533 22.1659C22.0589 21.6583 21.8325 21.1266 21.6513 20.5707C21.4475 19.9906 20.9494 19.2171 21.3796 18.6128C21.6513 19.0962 21.9683 19.5555 22.308 19.9664C22.6703 20.3773 23.1684 20.5707 23.6439 20.8124C23.576 20.6673 23.5307 20.5223 23.5081 20.3531C23.5307 20.5948 24.3459 20.9816 24.527 21.1266C24.8441 21.3925 25.2064 21.6342 25.5007 21.9242Z" fill="#541355"/>
<path id="Vector_59" d="M25.5462 22.0209C26.6784 22.3351 25.4783 23.3503 25.0933 23.8337C25.0027 23.9304 24.9348 24.0271 24.8216 24.0996C24.0291 24.5347 22.6931 22.7702 22.3308 22.1901C22.0364 21.6825 21.81 21.1508 21.6288 20.5948C21.5156 20.2806 21.3571 19.9906 21.3118 19.628C21.2892 19.483 21.2892 19.3138 21.2892 19.1688C21.2892 19.0479 21.3798 18.6853 21.3345 18.6128C21.3798 18.7578 21.4477 18.927 21.493 19.0721C21.6062 19.3621 21.7647 19.6763 21.9458 19.918C22.127 20.1356 22.3308 20.3531 22.5346 20.5223C23.4177 21.2716 24.4819 21.7309 25.5462 22.0209Z" fill="url(#paint12_linear_1_13702)"/>
<path id="Vector_60" d="M25.433 22.4299C25.4783 22.4541 25.5462 22.4541 25.5688 22.5266C25.5915 22.5749 25.5688 22.5991 25.5462 22.6474C25.3877 23.1067 25.0933 23.4934 24.731 23.7834C24.6178 23.856 24.5046 23.9285 24.3914 23.9526C24.2555 23.9768 24.1196 23.9285 24.0064 23.856C22.6252 23.1792 21.7647 21.1488 21.2892 19.7227C22.444 21.1972 23.6668 21.9948 25.433 22.4299Z" fill="url(#paint13_linear_1_13702)"/>
<path id="Vector_61" opacity="0.43" d="M35.3508 32.5348C34.3771 32.3898 33.4714 31.9547 32.7921 31.2296C32.9732 31.4472 33.2449 31.5922 33.494 31.6405C33.3129 31.2054 33.177 30.722 33.1543 30.2386C33.4487 30.577 33.7884 30.8671 34.1507 31.0846C34.3318 31.2054 34.9658 31.6405 35.1696 31.6405C34.6035 31.6647 34.0375 31.5438 33.5393 31.2538C34.0827 31.7614 34.7168 32.1481 35.3508 32.5348Z" fill="#541355"/>
<path id="Vector_62" opacity="0.43" d="M34.898 34.4442C34.513 34.2992 34.0375 34.1541 33.6979 33.8641C33.4261 33.6224 33.2223 33.3081 32.8827 33.139C33.2676 33.3323 33.6299 33.5257 34.0149 33.7432C34.1281 33.7916 34.2413 33.8641 34.3772 33.8157C33.9243 33.3807 33.5846 32.7764 33.4261 32.1479C34.3545 32.8247 35.3056 33.3081 36.3698 33.7191C35.6905 33.7916 35.0112 33.6949 34.3998 33.4048C34.8527 33.9366 35.3735 34.3958 35.9396 34.7584C35.5546 34.7101 35.215 34.565 34.898 34.4442Z" fill="#541355"/>
<path id="Vector_63" opacity="0.43" d="M33.1769 35.7729C33.2449 35.6521 32.9731 34.9511 32.9052 34.8303C32.7467 34.5161 32.4523 34.226 32.2485 33.936C32.5429 34.0568 32.8373 34.226 33.109 34.4436C32.9958 34.1293 32.8826 33.8151 32.8146 33.5009C33.743 34.2985 34.6035 35.2654 35.0337 36.4497C34.5355 35.8455 34.0147 35.2895 33.426 34.7578C33.4034 35.0962 33.3128 35.4587 33.1769 35.7729Z" fill="#541355"/>
</g>
<defs>
<linearGradient id="paint0_linear_1_13702" x1="28.4301" y1="10.6333" x2="23.7147" y2="10.0868" gradientUnits="userSpaceOnUse">
<stop offset="0.0330256" stop-color="white"/>
<stop offset="0.2086" stop-color="#FFDD15"/>
<stop offset="0.678" stop-color="#B17100"/>
<stop offset="1" stop-color="#722B00"/>
</linearGradient>
<linearGradient id="paint1_linear_1_13702" x1="26.1201" y1="13.5327" x2="24.747" y2="11.5566" gradientUnits="userSpaceOnUse">
<stop stop-color="white"/>
<stop offset="0.2086" stop-color="#FFDD15"/>
<stop offset="0.7366" stop-color="#B17100"/>
<stop offset="1" stop-color="#722B00"/>
</linearGradient>
<linearGradient id="paint2_linear_1_13702" x1="25.9671" y1="8.18597" x2="21.3885" y2="9.75411" gradientUnits="userSpaceOnUse">
<stop offset="0.0330256" stop-color="white"/>
<stop offset="0.4168" stop-color="#FFDD15"/>
<stop offset="0.7366" stop-color="#B17100"/>
<stop offset="1" stop-color="#722B00"/>
</linearGradient>
<linearGradient id="paint3_linear_1_13702" x1="19.8078" y1="3.98977" x2="16.6415" y2="9.32584" gradientUnits="userSpaceOnUse">
<stop offset="0.0330256" stop-color="white"/>
<stop offset="0.3886" stop-color="#FFDD15"/>
<stop offset="0.7366" stop-color="#B17100"/>
<stop offset="1" stop-color="#722B00"/>
</linearGradient>
<linearGradient id="paint4_linear_1_13702" x1="18.904" y1="5.78423" x2="17.2208" y2="9.85373" gradientUnits="userSpaceOnUse">
<stop offset="0.0330256" stop-color="white"/>
<stop offset="0.2086" stop-color="#FFDD15"/>
<stop offset="0.7366" stop-color="#B17100"/>
<stop offset="1" stop-color="#722B00"/>
</linearGradient>
<linearGradient id="paint5_linear_1_13702" x1="3.72663" y1="8.37182" x2="16.058" y2="14.1014" gradientUnits="userSpaceOnUse">
<stop offset="0.0330256" stop-color="white"/>
<stop offset="0.3683" stop-color="#FFDD15"/>
<stop offset="0.7366" stop-color="#B17100"/>
<stop offset="1" stop-color="#722B00"/>
</linearGradient>
<linearGradient id="paint6_linear_1_13702" x1="20.7055" y1="19.4123" x2="27.2822" y2="8.15496" gradientUnits="userSpaceOnUse">
<stop stop-color="#722B00"/>
<stop offset="0.2959" stop-color="#B17100"/>
<stop offset="0.7914" stop-color="#D8CC88"/>
</linearGradient>
<linearGradient id="paint7_linear_1_13702" x1="23.6227" y1="21.1191" x2="30.1994" y2="9.86168" gradientUnits="userSpaceOnUse">
<stop stop-color="#722B00"/>
<stop offset="0.2959" stop-color="#B17100"/>
<stop offset="0.7914" stop-color="#D8CC88"/>
</linearGradient>
<linearGradient id="paint8_linear_1_13702" x1="16.9479" y1="17.2154" x2="23.441" y2="6.10093" gradientUnits="userSpaceOnUse">
<stop stop-color="#722B00"/>
<stop offset="0.2959" stop-color="#B17100"/>
<stop offset="0.7914" stop-color="#D8CC88"/>
</linearGradient>
<linearGradient id="paint9_linear_1_13702" x1="14.0145" y1="15.5038" x2="20.5912" y2="4.24643" gradientUnits="userSpaceOnUse">
<stop stop-color="#722B00"/>
<stop offset="0.2959" stop-color="#B17100"/>
<stop offset="0.7914" stop-color="#D8CC88"/>
</linearGradient>
<linearGradient id="paint10_linear_1_13702" x1="15.1018" y1="16.1376" x2="21.6784" y2="4.88021" gradientUnits="userSpaceOnUse">
<stop stop-color="#722B00"/>
<stop offset="0.2959" stop-color="#B17100"/>
<stop offset="0.7914" stop-color="#D8CC88"/>
</linearGradient>
<linearGradient id="paint11_linear_1_13702" x1="11.5565" y1="16.8787" x2="7.64514" y2="7.00114" gradientUnits="userSpaceOnUse">
<stop stop-color="#722B00"/>
<stop offset="0.2959" stop-color="#B17100"/>
<stop offset="0.7914" stop-color="#D8CC88"/>
</linearGradient>
<linearGradient id="paint12_linear_1_13702" x1="19.9778" y1="19.9732" x2="25.6045" y2="22.3892" gradientUnits="userSpaceOnUse">
<stop stop-color="#722B00"/>
<stop offset="0.2959" stop-color="#B17100"/>
<stop offset="0.7914" stop-color="#D8CC88"/>
</linearGradient>
<linearGradient id="paint13_linear_1_13702" x1="25.5815" y1="21.8062" x2="21.2852" y2="21.8062" gradientUnits="userSpaceOnUse">
<stop offset="0.0330256" stop-color="white"/>
<stop offset="0.4168" stop-color="#FFDD15"/>
<stop offset="0.7366" stop-color="#B17100"/>
<stop offset="1" stop-color="#722B00"/>
</linearGradient>
</defs>
</svg>
