<svg width="20" height="20" viewBox="0 0 20 20" fill="none" xmlns="http://www.w3.org/2000/svg">
<g id="Group 2131328637">
<path id="Vector" d="M9.48814 1.16373C9.38921 1.26229 9.31854 1.38901 9.31854 1.45942C9.31854 1.52982 9.2196 1.90999 9.10654 2.31832L8.89453 3.03642L7.84865 3.36027C7.25505 3.54331 6.37877 3.9798 5.82756 4.33181L4.86648 4.97951L4.04674 4.52894C2.63338 3.74044 2.28005 4.21917 3.18459 5.71169L3.6934 6.54243L3.41073 7.11973C3.26939 7.4295 3.05739 8.02087 2.95846 8.42921C2.77472 9.11915 2.73232 9.17547 2.19525 9.30219C1.17763 9.55564 0.951496 9.69644 1.00803 10.0485C1.0363 10.2878 1.23417 10.4145 1.91258 10.6257C2.74645 10.8933 2.78885 10.9214 2.85952 11.4142C2.88779 11.6959 3.07152 12.3013 3.26939 12.766L3.6086 13.6108L3.14219 14.3711C2.30831 15.751 2.63338 16.2157 3.9478 15.5257L4.72515 15.1174L5.29049 15.5961C5.99716 16.2016 7.63665 17.0042 8.44226 17.1309C8.76733 17.1872 9.03587 17.2858 9.03587 17.3562C9.03587 17.4407 9.1348 17.849 9.262 18.2714C9.45987 18.9754 9.51641 19.0317 9.85561 18.9895C10.1807 18.9473 10.2796 18.8205 10.5199 18.1024L10.8026 17.2576L11.4951 17.145C12.3855 17.0042 13.7423 16.3846 14.5903 15.7228L15.2688 15.2019L16.0461 15.582C16.668 15.8777 16.8517 15.92 17.0213 15.7792C17.3322 15.5257 17.2898 15.2582 16.7952 14.4697L16.357 13.7657L16.7245 12.9631C16.9224 12.5125 17.1344 11.8648 17.1768 11.5269C17.2616 10.9074 17.2616 10.9074 18.1379 10.6257C18.8869 10.3864 19 10.316 19 10.0062C19 9.69644 18.8869 9.62604 18.1237 9.38667C17.2898 9.11915 17.2474 9.0769 17.1626 8.58409C17.1061 8.30248 16.8941 7.68295 16.668 7.23237L16.2722 6.38755L16.7528 5.62721C17.2898 4.76831 17.3322 4.4867 17.0072 4.21917C16.8093 4.05021 16.6538 4.09245 15.933 4.4867L15.085 4.93727L14.4349 4.47262C13.5021 3.79676 12.9791 3.54331 11.8202 3.26171L10.8167 3.00826L10.5906 2.17752C10.4634 1.71286 10.322 1.26229 10.2514 1.16373C10.1241 0.952522 9.71428 0.938442 9.48814 1.16373ZM10.2372 3.74044C10.3786 4.27549 10.5199 4.81055 10.5623 4.89503C10.6047 5.02175 10.4068 5.07807 9.88388 5.07807C9.19134 5.07807 9.14894 5.06399 9.23374 4.75423C9.29027 4.58526 9.43161 4.02205 9.55881 3.48699C9.68601 2.96602 9.84148 2.58585 9.88388 2.64217C9.94041 2.71257 10.0959 3.1913 10.2372 3.74044ZM6.20917 6.75364C6.20917 6.79588 5.99716 7.00709 5.72863 7.21829L5.23395 7.61254L4.59794 6.55651C4.24461 5.96514 3.9478 5.47233 3.9478 5.43008C3.9478 5.40192 4.45661 5.66945 5.07848 6.02146C5.70036 6.37347 6.20917 6.69732 6.20917 6.75364ZM15.9189 5.45825C15.4242 6.34531 14.6327 7.61254 14.5762 7.61254C14.5338 7.61254 14.2794 7.41542 14.025 7.16197L13.5727 6.72548L14.7317 6.04962C15.9896 5.31744 16.0037 5.30336 15.9189 5.45825ZM10.4492 9.44299C10.6047 9.59788 10.7319 9.85133 10.7319 10.0062C10.7319 10.3441 10.2514 10.851 9.92628 10.851C9.64361 10.851 9.03587 10.316 9.03587 10.0766C9.03587 9.76684 9.61534 9.16139 9.89801 9.16139C10.0393 9.16139 10.2938 9.28811 10.4492 9.44299ZM5.77103 12.8786L6.2233 13.3433L5.09262 13.991C4.45661 14.343 3.9478 14.6105 3.9478 14.5823C3.9478 14.5119 5.23395 12.3999 5.27635 12.3999C5.29049 12.3999 5.51662 12.6111 5.77103 12.8786ZM15.0426 13.0617C15.2546 13.4418 15.5656 13.9628 15.721 14.2303L16.0178 14.7091L15.5373 14.4134C15.2688 14.2585 14.7458 13.9487 14.3783 13.7375C13.9967 13.5263 13.6999 13.3151 13.6999 13.2729C13.6999 13.1461 14.4349 12.3999 14.5621 12.3999C14.6186 12.3999 14.8306 12.6956 15.0426 13.0617ZM10.534 15.1737C10.4916 15.3145 10.3644 15.8073 10.2372 16.272C10.11 16.7366 9.96868 17.2154 9.92628 17.328C9.86975 17.497 9.19134 15.4272 9.1772 15.0329C9.1772 14.9766 9.50227 14.9343 9.89801 14.9343C10.5058 14.9343 10.6047 14.9625 10.534 15.1737Z" fill="#62656E"/>
</g>
</svg>
