<svg width="20" height="20" viewBox="0 0 20 20" fill="none" xmlns="http://www.w3.org/2000/svg">
<g id="Group 2131328638">
<g id="&#208;&#161;&#208;&#187;&#208;&#190;&#208;&#185; 1">
<g id="Group">
<path id="Vector" d="M17.9958 9.02644C17.9958 10.9477 17.9964 12.8691 17.9977 14.7906C17.9977 15.1575 17.8965 15.4797 17.5858 15.7326C17.3509 15.9259 17.0422 16.0303 16.724 16.0241C15.9147 16.0241 15.1058 16.022 14.2965 16.0241C14.1863 16.0243 14.0769 16.0404 13.9723 16.0717C11.9989 16.6813 10.0263 17.2926 8.05443 17.9054C7.21908 18.1645 6.57227 17.8858 6.28526 17.1374C4.88843 13.4968 3.49211 9.85591 2.09629 6.21483C1.82155 5.49815 2.14381 4.9117 2.94696 4.6619C4.38339 4.21535 5.82033 3.76914 7.25779 3.32328C7.35243 3.294 7.42409 3.27022 7.42754 3.14825C7.44631 2.46671 7.95901 2.00672 8.72615 2.005C11.3829 1.99833 14.0387 1.99833 16.6937 2.005C17.4911 2.005 18.0042 2.537 18 3.19683C17.9881 5.13911 17.9958 7.08278 17.9958 9.02644ZM8.26863 9.01025C8.26863 10.9308 8.26863 12.8515 8.26863 14.7723C8.26863 15.162 8.38358 15.2671 8.8139 15.2675H16.6121C17.0282 15.2675 17.1627 15.1455 17.1627 14.7689C17.1627 10.9328 17.1627 7.09667 17.1627 3.26057C17.1627 2.88741 17.0221 2.76096 16.6098 2.76096C14.0103 2.76096 11.4107 2.76096 8.81121 2.76096C8.40082 2.76096 8.26863 2.87949 8.26863 3.24748C8.26837 5.16852 8.26837 7.08944 8.26863 9.01025ZM11.446 16.0565L11.4322 16.0262C10.5555 16.0262 9.67874 16.0262 8.80202 16.0262C8.66655 16.0312 8.53089 16.0221 8.39776 15.999C7.78466 15.866 7.42332 15.4349 7.42294 14.8412C7.42294 11.3322 7.42294 7.82324 7.42294 4.31424V4.08476C7.3463 4.10337 7.28652 4.11405 7.23135 4.13162C5.89914 4.54509 4.56707 4.95856 3.23512 5.37204C2.85691 5.48988 2.77261 5.64975 2.90596 5.99672C4.29309 9.61621 5.68111 13.2355 7.07002 16.8545C7.21908 17.2428 7.3827 17.3162 7.80574 17.1856C8.63802 16.9286 9.47016 16.6712 10.3022 16.4135C10.6838 16.2954 11.0651 16.1764 11.446 16.0565Z" fill="#62656E"/>
<path id="Vector_2" d="M12.2854 10.6228C12.1854 10.6603 12.1321 10.672 12.0896 10.6975C11.3999 11.1079 10.6228 10.927 10.1457 10.3257C9.66864 9.72449 9.66864 9.10359 10.0334 8.46064C10.2603 8.06061 10.622 7.77153 10.9818 7.47245C11.4991 7.04416 11.9995 6.59933 12.5027 6.15761C12.6943 5.98946 12.7146 5.99118 12.9008 6.15244C13.5583 6.72165 14.2308 7.27743 14.8803 7.85388C15.3175 8.24185 15.603 8.71183 15.6298 9.2776C15.6662 10.0491 15.0305 10.8229 14.2573 10.906C13.9426 10.9396 13.6246 10.8747 13.3568 10.7223C13.2985 10.6906 13.2254 10.6817 13.1587 10.6624C13.1587 10.7237 13.1445 10.7899 13.1652 10.8453C13.2675 11.1175 13.3771 11.3873 13.4886 11.6568C13.5901 11.9011 13.4848 12.0475 13.1924 12.051C12.8655 12.0544 12.5379 12.0554 12.2111 12.051C11.9225 12.0465 11.8217 11.8994 11.9225 11.6547C12.0356 11.3791 12.1429 11.1034 12.249 10.8278C12.2674 10.7775 12.2682 10.723 12.2854 10.6228Z" fill="#62656E"/>
<path id="Vector_3" d="M9.61679 4.2309C9.60759 4.31429 9.62215 4.43006 9.5869 4.44384C9.50041 4.4729 9.40516 4.4729 9.31867 4.44384C9.28648 4.43282 9.29491 4.3229 9.28303 4.24469C9.23092 4.23814 9.14317 4.24227 9.07075 4.21471C8.8895 4.1458 8.80252 3.91563 8.92246 3.76196C9.06653 3.579 9.25085 3.42153 9.42673 3.24512C9.61832 3.41223 9.79229 3.5504 9.94441 3.70683C10.0479 3.8133 10.0563 3.95043 9.9789 4.08136C9.90149 4.2123 9.77083 4.26088 9.61679 4.2309Z" fill="#62656E"/>
<path id="Vector_4" d="M15.7937 13.8316C15.7554 13.6032 15.7899 13.5832 16.129 13.6404L16.0853 13.8361C16.2742 13.8016 16.4129 13.8637 16.4922 14.017C16.5773 14.1817 16.5064 14.3205 16.3811 14.4408C16.274 14.5482 16.1588 14.6488 16.0363 14.7419C16.0002 14.7681 15.8987 14.764 15.8596 14.7364C15.7457 14.651 15.6381 14.5589 15.5377 14.4608C15.4059 14.3395 15.3185 14.201 15.3967 14.027C15.4661 13.8719 15.6021 13.7982 15.7937 13.8316Z" fill="#62656E"/>
<path id="Vector_5" d="M7.68699 4.52612L3.61719 5.8954L7.49118 16.5254L10.006 15.7112L8.32154 15.3994L7.80424 15.132L7.68699 4.52612Z" fill="#62656E"/>
</g>
</g>
</g>
</svg>
