<svg width="20" height="20" viewBox="0 0 20 20" fill="none" xmlns="http://www.w3.org/2000/svg">
<g id="Group 2131328636">
<g id="Group 1597882599">
<g id="Group">
<path id="Vector" d="M10 2C5.58167 2 2 5.58167 2 10C2 14.4183 5.58167 18 10 18C14.4183 18 18 14.4183 18 10C17.995 5.58374 14.4163 2.005 10 2ZM10 17.4667C5.87622 17.4667 2.53333 14.1238 2.53333 10C2.53333 5.87622 5.87622 2.53333 10 2.53333C14.1238 2.53333 17.4667 5.87622 17.4667 10C17.4619 14.1218 14.1218 17.4619 10 17.4667Z" fill="#62656E"/>
<path id="Vector_2" d="M11.0034 12.6034C11.002 12.2655 10.7886 11.9651 10.4701 11.8524V11.2322C10.8435 11.135 11.135 10.8435 11.2322 10.4701H11.8524C11.9823 10.8374 12.3579 11.0577 12.7419 10.9918C13.126 10.9259 13.4067 10.593 13.4067 10.2034C13.4067 9.81372 13.126 9.48084 12.7419 9.41492C12.3579 9.349 11.9823 9.56934 11.8524 9.93665H11.2322C11.135 9.56323 10.8435 9.27173 10.4701 9.17456V8.55432C10.8374 8.42444 11.0577 8.04883 10.9918 7.66479C10.9259 7.28076 10.593 7 10.2034 7C9.81372 7 9.48083 7.28076 9.41492 7.66479C9.349 8.04883 9.56934 8.42444 9.93665 8.55432V9.17456C9.56323 9.27173 9.27173 9.56323 9.17456 9.93665H8.55432C8.42444 9.56934 8.04883 9.349 7.66479 9.41492C7.28076 9.48084 7 9.81372 7 10.2034C7 10.593 7.28076 10.9259 7.66479 10.9918C8.04883 11.0577 8.42444 10.8374 8.55432 10.4701H9.17456C9.27173 10.8435 9.56323 11.135 9.93665 11.2322V11.8524C9.5542 11.9886 9.33472 12.3904 9.42688 12.7859C9.51892 13.1814 9.89319 13.4448 10.2965 13.3982C10.7 13.3514 11.0042 13.0095 11.0034 12.6034ZM12.6034 9.93665C12.7506 9.93665 12.87 10.0562 12.87 10.2034C12.87 10.3506 12.7506 10.4701 12.6034 10.4701C12.4561 10.4701 12.3367 10.3506 12.3367 10.2034C12.3367 10.0562 12.4561 9.93665 12.6034 9.93665ZM10.2034 7.53674C10.3506 7.53674 10.4701 7.65613 10.4701 7.80334C10.4701 7.95068 10.3506 8.07007 10.2034 8.07007C10.0562 8.07007 9.93665 7.95068 9.93665 7.80334C9.93665 7.65613 10.0562 7.53674 10.2034 7.53674ZM7.80334 10.4701C7.65613 10.4701 7.53674 10.3506 7.53674 10.2034C7.53674 10.0562 7.65613 9.93665 7.80334 9.93665C7.95068 9.93665 8.07007 10.0562 8.07007 10.2034C8.07007 10.3506 7.95068 10.4701 7.80334 10.4701ZM9.67004 10.2034C9.67004 9.90881 9.90881 9.67004 10.2034 9.67004C10.4979 9.67004 10.7367 9.90881 10.7367 10.2034C10.7367 10.4979 10.4979 10.7367 10.2034 10.7367C9.90881 10.7367 9.67004 10.4979 9.67004 10.2034ZM9.93665 12.6034C9.93665 12.4561 10.0562 12.3367 10.2034 12.3367C10.3506 12.3367 10.4701 12.4561 10.4701 12.6034C10.4701 12.7506 10.3506 12.87 10.2034 12.87C10.0562 12.87 9.93665 12.7506 9.93665 12.6034Z" fill="#62656E"/>
<path id="Vector_3" d="M15.5588 5.86096C15.1562 5.3219 14.6781 4.84387 14.139 4.44141L14.1359 4.43848H14.1343C11.6812 2.61035 8.3186 2.61035 5.86548 4.43848H5.86389L5.86072 4.44141C5.32166 4.84375 4.84351 5.3219 4.44116 5.86096L4.43823 5.86414V5.86572C2.61011 8.31885 2.61011 11.6814 4.43823 14.1345V14.1361C4.44019 14.1393 4.44312 14.1417 4.44519 14.1451L4.44897 14.15C4.45898 14.1658 4.47046 14.1805 4.4834 14.194C4.87683 14.7107 5.34045 15.17 5.86072 15.5588L5.86389 15.5618H5.86572C8.31873 17.3896 11.681 17.3896 14.134 15.5618H14.1359L14.139 15.5588C14.6593 15.17 15.1229 14.7107 15.5164 14.194C15.5293 14.1805 15.5408 14.1658 15.5508 14.15L15.5546 14.1451C15.5566 14.1417 15.5596 14.1393 15.5615 14.1361V14.1345C17.3896 11.6814 17.3896 8.31885 15.5615 5.86572V5.86414L15.5588 5.86096ZM15.9978 12.2313L14.5865 11.4166C14.6221 11.3022 14.65 11.1847 14.6766 11.0668H16.3092C16.2427 11.464 16.1383 11.8539 15.9978 12.2313ZM15.2532 13.65L13.8578 12.845C14.0708 12.5583 14.2512 12.2489 14.3956 11.9222L15.7889 12.7266C15.6364 13.0487 15.4572 13.3575 15.2532 13.65ZM12.7268 15.7887L11.9225 14.3953C12.2491 14.251 12.5587 14.0706 12.8452 13.8574L13.6498 15.2534C13.3573 15.4572 13.0485 15.6362 12.7263 15.7887H12.7268ZM6.34998 15.2534L7.15503 13.858C7.44165 14.071 7.7511 14.2515 8.07776 14.3959L7.27344 15.7892C6.95129 15.6366 6.64246 15.4574 6.34998 15.2534ZM4.2113 12.7271L5.60474 11.9227C5.74902 12.2494 5.92944 12.559 6.14258 12.8455L4.74658 13.65C4.54285 13.3575 4.36377 13.0487 4.2113 12.7266V12.7271ZM4.00195 7.76892L5.41321 8.58362C5.37769 8.698 5.34973 8.81555 5.32312 8.93347H3.69055C3.75708 8.53625 3.86145 8.14636 4.00195 7.76892ZM4.74707 6.35022L6.14258 7.15527C5.92944 7.44189 5.74902 7.75134 5.60474 8.078L4.2113 7.27368C4.36377 6.95154 4.54285 6.6427 4.74658 6.35022H4.74707ZM7.27344 4.21155L8.07776 5.60498C7.7511 5.74927 7.44165 5.92969 7.15503 6.14282L6.34998 4.74683C6.64246 4.54309 6.95129 4.36401 7.27344 4.21155ZM8.58337 5.41345L7.76868 4.0022C8.14612 3.86169 8.53601 3.75732 8.93323 3.6908V5.32385C8.81531 5.35046 8.69775 5.37854 8.58337 5.41345ZM5.23132 9.4668C5.18933 9.82117 5.18933 10.1791 5.23132 10.5334H3.6239C3.60925 10.3574 3.59985 10.1798 3.59985 10.0001C3.59985 9.82043 3.60925 9.64282 3.6239 9.4668H5.23132ZM3.69055 11.0668H5.32361C5.35022 11.1847 5.3783 11.3022 5.4137 11.4166L4.00195 12.2313C3.86145 11.8539 3.75708 11.464 3.69055 11.0668ZM8.58337 14.5868C8.69775 14.6223 8.81531 14.6503 8.93323 14.6769V16.3094C8.53601 16.2429 8.14612 16.1385 7.76868 15.998L8.58337 14.5868ZM5.73315 10.0001C5.73254 9.0022 6.08337 8.03589 6.72412 7.27075C6.72839 7.26685 6.73157 7.26221 6.7356 7.2583C7.54431 6.29187 8.73975 5.73352 9.99988 5.73352C11.26 5.73352 12.4554 6.29187 13.2642 7.2583C13.2682 7.26221 13.2714 7.26685 13.2756 7.27075C14.4829 8.71741 14.5984 10.7848 13.5596 12.3568C12.5209 13.9288 10.5739 14.6334 8.76965 14.0901C6.96545 13.5469 5.7312 11.8844 5.73315 10.0001ZM13.6498 4.74683L12.8447 6.14221C12.5581 5.9292 12.2487 5.74878 11.922 5.60437L12.7263 4.21106C13.0485 4.36365 13.3573 4.54285 13.6498 4.74683ZM11.4164 5.41345C11.302 5.37793 11.1844 5.34998 11.0665 5.32336V3.6908C11.4637 3.75732 11.8536 3.86169 12.2311 4.0022L11.4164 5.41345ZM11.4164 14.5868L12.2311 15.9985C11.8536 16.1389 11.4637 16.243 11.0665 16.3094V14.6764C11.1844 14.6498 11.302 14.6217 11.4164 14.5868ZM14.7684 10.5334C14.8104 10.1791 14.8104 9.82117 14.7684 9.4668H16.3759C16.3905 9.64282 16.3999 9.82043 16.3999 10.0001C16.3999 10.1798 16.3905 10.3574 16.3759 10.5334H14.7684ZM16.3092 8.93347H14.6761C14.6495 8.81555 14.6228 8.698 14.5861 8.58362L15.9978 7.76892C16.1383 8.14636 16.2427 8.53625 16.3092 8.93347ZM14.395 8.078C14.2507 7.75134 14.0703 7.44189 13.8572 7.15527L15.2532 6.35022C15.4572 6.6427 15.6364 6.95154 15.7889 7.27368L14.395 8.078ZM14.9285 5.92175L13.5116 6.73877C13.431 6.65198 13.3477 6.5686 13.2612 6.4884L14.0782 5.0719C14.3873 5.32812 14.6719 5.61267 14.9281 5.92175H14.9285ZM10.5332 3.62415V5.23157C10.1788 5.18958 9.82092 5.18958 9.46655 5.23157V3.62415C9.64258 3.6095 9.82019 3.6001 9.99988 3.6001C10.1796 3.6001 10.3572 3.6095 10.5332 3.62415ZM5.92151 5.0719L6.73853 6.4884C6.65173 6.56897 6.56836 6.65234 6.48816 6.73877L5.07166 5.92175C5.32788 5.61267 5.61243 5.32812 5.92151 5.0719ZM5.07166 14.0785L6.48816 13.2615C6.56873 13.3483 6.6521 13.4316 6.73853 13.5118L5.92151 14.9283C5.61243 14.6721 5.32788 14.3876 5.07166 14.0785ZM9.46655 16.3761V14.7687C9.82092 14.8107 10.1788 14.8107 10.5332 14.7687V16.3761C10.3572 16.3907 10.1796 16.4001 9.99988 16.4001C9.82019 16.4001 9.64258 16.3907 9.46655 16.3761ZM14.0782 14.9283L13.2612 13.5118C13.348 13.4313 13.4314 13.3479 13.5116 13.2615L14.9281 14.0785C14.6719 14.3876 14.3873 14.6721 14.0782 14.9283Z" fill="#62656E"/>
</g>
</g>
</g>
</svg>
