<svg width="20" height="20" viewBox="0 0 20 20" fill="none" xmlns="http://www.w3.org/2000/svg">
<g id="Group 2131328641">
<g id="Group 2131328620">
<path id="Vector" d="M3.45163 2.06164C3.27628 2.22441 3.37648 2.63758 3.67708 3.00067C3.85243 3.20099 3.99021 3.43888 3.99021 3.52652C3.99021 3.78945 3.62698 4.20262 3.30133 4.27774C2.82537 4.40295 2.75022 4.9288 3.16355 5.30441C3.70213 5.81774 3.52678 6.43124 2.77527 6.65661C2.61244 6.70669 2.48719 6.79433 2.48719 6.85693C2.48719 6.91954 2.44962 7.04474 2.41204 7.15742C2.37447 7.2701 2.47467 7.45791 2.66255 7.62067C3.22618 8.10897 3.02577 8.81011 2.26174 9.04799C2.02376 9.1106 1.97366 9.21076 2.01124 9.52377L2.04881 9.92442L8.37401 11.2015C11.856 11.9026 14.7743 12.4786 14.862 12.4911C14.9497 12.4911 15.075 12.3408 15.1501 12.153C15.2503 11.8776 15.2253 11.7774 14.9497 11.4895C14.4737 10.9886 14.5489 10.5004 15.1752 10.1999C15.5509 10.0121 15.6386 9.89938 15.6386 9.61141C15.6386 9.41108 15.5634 9.19824 15.4632 9.14816C15.3756 9.09808 15.2378 8.92279 15.1501 8.76003C14.9497 8.38442 15.1626 8.00881 15.7137 7.78344C16.0644 7.63319 16.1396 7.53303 16.1396 7.23254C16.1396 7.0197 16.0895 6.85693 16.0143 6.85693C15.9517 6.85693 15.8014 6.71921 15.6887 6.54392C15.4257 6.13075 15.601 5.6675 16.102 5.45465C16.3024 5.36701 16.4903 5.24181 16.5404 5.16669C16.6281 5.054 16.6782 4.47807 16.603 4.47807C16.5905 4.47807 13.7598 3.91465 10.3154 3.22603C4.09041 1.98652 3.60193 1.89888 3.45163 2.06164ZM6.31988 4.15254C6.42009 4.41547 5.51828 8.76003 5.34292 8.87271C5.15505 8.98539 4.86697 8.87271 4.86697 8.6849C4.86697 8.42198 5.7312 4.22766 5.80635 4.08994C5.91908 3.91465 6.24473 3.95221 6.31988 4.15254ZM13.6721 5.64246C13.7097 5.74262 13.5344 6.81937 13.2839 8.05889C12.8956 9.94946 12.7829 10.3 12.5825 10.3376C12.4572 10.3626 12.3069 10.3251 12.2568 10.2374C12.1816 10.1247 12.858 6.4062 13.0835 5.69254C13.1586 5.44213 13.5845 5.40457 13.6721 5.64246Z" fill="#62656E"/>
<path id="Vector_2" d="M15.9768 10.0997C15.9392 10.2374 15.7137 10.4377 15.4632 10.5379C14.9246 10.7632 14.8996 10.926 15.3254 11.3141C15.9267 11.865 15.6135 12.8667 14.8495 12.8667C14.624 12.8667 12.094 12.3909 9.21318 11.8149C4.06535 10.7883 3.9902 10.7758 3.9902 11.0512C3.9902 11.4143 3.61444 11.7398 3.20112 11.7398C2.87546 11.7398 2.61243 12.0403 2.61243 12.4034C2.61243 12.6163 14.1731 18 14.6115 18C14.9747 18 15.125 17.4491 14.837 17.1361C14.3861 16.6353 14.7117 15.9341 15.4507 15.8465C15.9392 15.7964 16.1646 15.2455 15.8515 14.895C15.7388 14.7698 15.6386 14.5444 15.6386 14.3941C15.6386 14.0811 16.1897 13.6179 16.5905 13.6179C16.9913 13.6179 17.0915 13.1922 16.8159 12.6789C16.5279 12.1405 16.7157 11.6522 17.2293 11.552C17.7804 11.4268 17.9557 11.3016 17.9933 10.9636C18.0309 10.6881 17.9307 10.613 17.1666 10.2624C16.1646 9.79917 16.0644 9.78665 15.9768 10.0997Z" fill="#62656E"/>
</g>
</g>
</svg>
