<svg width="20" height="20" viewBox="0 0 20 20" fill="none" xmlns="http://www.w3.org/2000/svg">
<g id="Group 2131328640">
<path id="Vector" d="M17.8834 4.40197L16.0365 2.17372C15.8518 2.00232 15.544 1.94518 15.2978 2.05945L14.559 2.40226C12.7736 3.20214 10.8036 3.37355 8.89513 2.85933C8.09481 2.6308 7.23291 2.57366 6.43259 2.57366H2.61564C2.24625 2.57366 2 2.8022 2 3.14501V9.77262C2 10.1154 2.24625 10.344 2.61564 10.344H5.07819C5.44757 10.344 5.69382 10.1154 5.69382 9.77262C5.69382 8.85847 6.49415 8.11572 7.54073 8.11572H10.6594L9.73596 9.14414C7.58123 11.5438 6.04214 14.2863 5.18024 17.3144C5.18024 17.4287 5.18024 17.6572 5.30337 17.7715C5.4265 17.8857 5.61119 18 5.79588 18H12.4658C12.8352 18 13.0815 17.7715 13.0815 17.4287C13.0815 14.2863 14.0049 11.201 15.7287 8.45852L17.8834 5.03045C18.0681 4.85904 18.0066 4.63051 17.8834 4.40197Z" fill="url(#paint0_radial_1_6998)"/>
</g>
<defs>
<radialGradient id="paint0_radial_1_6998" cx="0" cy="0" r="1" gradientUnits="userSpaceOnUse" gradientTransform="translate(9.9597 2) rotate(90) scale(15.8489 19.813)">
<stop stop-color="#73DEFB"/>
<stop offset="0.484375" stop-color="#28C5F0"/>
<stop offset="1" stop-color="#0D91B5"/>
</radialGradient>
</defs>
</svg>
