<svg width="20" height="20" viewBox="0 0 20 20" fill="none" xmlns="http://www.w3.org/2000/svg">
<g id="Group 2131328630">
<path id="Vector" d="M6 6.6875C6.76367 6.6875 7.43633 6.49207 7.9918 6.24268C7.42787 7.23743 7.08997 8.38892 7.02292 9.57642C4.7681 9.80334 3 11.5768 3 13.75C3 16.0763 5.01862 18 7.5 18C8.26445 18 8.99675 17.7981 9.65352 17.4603C8.63464 16.5239 8 15.1902 8 13.75C8 12.3098 8.63464 11.0073 9.65352 10.0709C9.14779 9.81079 8.59675 9.63391 8.02135 9.56519C8.2388 6.25195 10.9078 3.51904 14.3491 3.02039C13.4727 4.17395 13 5.55042 13 6.99561V9.57861C10.7561 9.81531 9 11.5841 9 13.75C9 16.0763 11.0186 18 13.5 18C15.9814 18 18 16.0763 18 13.75C18 11.5841 16.2439 9.81531 14 9.57861V6.99561C14 5.41077 14.6582 3.92078 15.8535 2.80017L16.707 2H15.5C13.1516 2 11.0232 2.89783 9.4832 4.34607C9.07891 3.98218 7.78255 2.9375 6 2.9375C3.89063 2.9375 2.44727 4.41101 2.37747 4.47375L2 4.8125L2.37747 5.15125C2.44727 5.21399 3.89063 6.6875 6 6.6875ZM13.5 12.3438C12.6729 12.3438 12 12.9746 12 13.75H11C11 12.4578 12.1216 11.4062 13.5 11.4062V12.3438ZM7.5 12.3438C6.67292 12.3438 6 12.9746 6 13.75H5C5 12.4578 6.12161 11.4062 7.5 11.4062V12.3438Z" fill="#62656E"/>
</g>
</svg>
