<svg width="44" height="44" viewBox="0 0 44 44" fill="none" xmlns="http://www.w3.org/2000/svg">
<g id="Group 2131327968">
<g id="Rectangle 2953" filter="url(#filter0_i_1_13834)">
<rect width="44" height="44" rx="12" fill="#181C27"/>
</g>
<path id="Vector" d="M22 10.8C16.4182 10.8 11.8 14.6429 11.8 19.736V22.676V22.6765V22.677V22.6775V22.678V22.6784V22.6789V22.6794V22.6799V22.6804V22.6808V22.6813V22.6818V22.6822V22.6827V22.6832V22.6836V22.6841V22.6846V22.685V22.6855V22.6859V22.6864V22.6868V22.6873V22.6877V22.6882V22.6886V22.6891V22.6895V22.6899V22.6904V22.6908V22.6912V22.6917V22.6921V22.6925V22.693V22.6934V22.6938V22.6942V22.6946V22.6951V22.6955V22.6959V22.6963V22.6967V22.6971V22.6975V22.698V22.6984V22.6988V22.6992V22.6996V22.7V22.7004V22.7008V22.7012V22.7016V22.7019V22.7023V22.7027V22.7031V22.7035V22.7039V22.7043V22.7047V22.705V22.7054V22.7058V22.7062V22.7065V22.7069V22.7073V22.7077V22.708V22.7084V22.7088V22.7091V22.7095V22.7099V22.7102V22.7106V22.7109V22.7113V22.7117V22.712V22.7124V22.7127V22.7131V22.7134V22.7138V22.7141V22.7145V22.7148V22.7152V22.7155V22.7158V22.7162V22.7165V22.7169V22.7172V22.7175V22.7179V22.7182V22.7185V22.7189V22.7192V22.7195V22.7198V22.7202V22.7205V22.7208V22.7211V22.7215V22.7218V22.7221V22.7224V22.7227V22.7231V22.7234V22.7237V22.724V22.7243V22.7246V22.7249V22.7253V22.7256V22.7259V22.7262V22.7265V22.7268V22.7271V22.7274V22.7277V22.728V22.7283V22.7286V22.7289V22.7292V22.7295V22.7298V22.7301V22.7304V22.7307V22.731V22.7313V22.7316V22.7318V22.7321V22.7324V22.7327V22.733V22.7333V22.7336V22.7339V22.7341V22.7344V22.7347V22.735V22.7353V22.7355V22.7358V22.7361V22.7364V22.7367V22.7369V22.7372V22.7375V22.7378V22.738V22.7383V22.7386V22.7389V22.7391V22.7394V22.7397V22.7399V22.7402V22.7405V22.7407V22.741V22.7413V22.7415V22.7418V22.7421V22.7423V22.7426V22.7429V22.7431V22.7434V22.7437V22.7439V22.7442V22.7444V22.7447V22.745V22.7452V22.7455V22.7457V22.746V22.7463V22.7465V22.7468V22.747V22.7473V22.7475V22.7478V22.748V22.7483V22.7486V22.7488V22.7491V22.7493V22.7496V22.7498V22.7501V22.7503V22.7506V22.7508V22.7511V22.7513V22.7516V22.7518V22.7521V22.7523V22.7526V22.7528V22.7531V22.7533V22.7536V22.7538V22.7541V22.7543V22.7546V22.7548V22.7551V22.7553V22.7556V22.7558V22.7561V22.7563V22.7566V22.7568V22.757V22.7573V22.7575V22.7578V22.758V22.7583V22.7585V22.7588V22.759V22.7593V22.7595V22.7598V22.76V22.7602V22.7605V22.7607V22.761V22.7612V22.7615V22.7617V22.762V22.7622V22.7625V22.7627V22.763V22.7632V22.7634V22.7637V22.7639V22.7642V22.7644V22.7647V22.7649V22.7652V22.7654V22.7657V22.7659V22.7662V22.7664V22.7667V22.7669V22.7672V22.7674V22.7677V22.7679V22.7682V22.7684V22.7687V22.7689V22.7692V22.7694V22.7697V22.7699V22.7702V22.7704V22.7707V22.7709V22.7712V22.7714V22.7717V22.772V22.7722V22.7725V22.7727V22.773V22.7732V22.7735V22.7737V22.774V22.7743V22.7745V22.7748V22.775V22.7753V22.7756V22.7758V22.7761V22.7763V22.7766V22.7769V22.7771V22.7774V22.7777V22.7779V22.7782V22.7785V22.7787V22.779V22.7793V22.7795V22.7798V22.7801V22.7803V22.7806V22.7809V22.7811V22.7814V22.7817V22.782V22.7822V22.7825V22.7828V22.7831V22.7833V22.7836V22.7839V22.7842V22.7845V22.7847V22.785V22.7853V22.7856V22.7859V22.7861V22.7864V22.7867V22.787V22.7873V22.7876V22.7879V22.7882V22.7884V22.7887V22.789V22.7893V22.7896V22.7899V22.7902V22.7905V22.7908V22.7911V22.7914V22.7917V22.792V22.7923V22.7926V22.7929V22.7932V22.7935V22.7938V22.7941V22.7944V22.7947V22.7951V22.7954V22.7957V22.796V22.7963V22.7966V22.7969V22.7973V22.7976V22.7979V22.7982V22.7985V22.7989V22.7992V22.7995V22.7998V22.8002V22.8005V22.8008V22.8011V22.8015V22.8018V22.8021V22.8025V22.8028V22.8031V22.8035V22.8038V22.8042V22.8045V22.8048V22.8052V22.8055V22.8059V22.8062V22.8066V22.8069V22.8073V22.8076V22.808V22.8083V22.8087V22.8091V22.8094V22.8098V22.8101V22.8105V22.8109V22.8112V22.8116V22.812V22.8123V22.8127V22.8131V22.8135V22.8138V22.8142V22.8146V22.815V22.8153V22.8157V22.8161V22.8165V22.8169V22.8173V22.8177V22.8181V22.8184V22.8188V22.8192V22.8196V22.82V22.8204V22.8208V22.8212V22.8216V22.822V22.8225V22.8229V22.8233V22.8237V22.8241V22.8245V22.8249V22.8253V22.8258V22.8262V22.8266V22.827V22.8275V22.8279V22.8283V22.8288V22.8292V22.8296V22.8301V22.8305V22.8309V22.8314V22.8318V22.8323V22.8327V22.8332V22.8336V22.8341V22.8345V22.835V22.8354V22.8359V22.8364V22.8368V22.8373V22.8378V22.8382V22.8387V22.8392V22.8396V22.8401V22.8406V22.8411V22.8416V22.842V22.8425V22.843V22.8435V22.844V22.8445V22.845V22.8455V22.846V22.8465V22.847V22.8475V22.848V22.8485V22.849V22.8495V22.85V22.8506V22.8511V22.8516V22.8521V22.8526V22.8532V22.8537V22.8542V22.8547V22.8553V22.8558V22.8563V22.8569V22.8574V22.858V22.8585V22.8591V22.8596V22.8601V22.8607V22.8612V22.8618V22.8624V22.8629V22.8635V22.864V22.8646V22.8651V22.8657V22.8663V22.8668V22.8674V22.868V22.8686V22.8691V22.8697V22.8703V22.8709V22.8714V22.872V22.8726V22.8732V22.8738V22.8744V22.8749V22.8755V22.8761V22.8767V22.8773V22.8779V22.8785V22.8791V22.8797V22.8803V22.8809V22.8815V22.8821V22.8827V22.8833V22.884V22.8846V22.8852V22.8858V22.8864V22.887V22.8876V22.8883V22.8889V22.8895V22.8901V22.8908V22.8914V22.892V22.8926V22.8933V22.8939V22.8945V22.8952V22.8958V22.8964V22.8971V22.8977V22.8984V22.899V22.8996V22.9003V22.9009V22.9016V22.9022V22.9029V22.9035V22.9042V22.9048V22.9055V22.9061V22.9068V22.9074V22.9081V22.9088V22.9094V22.9101V22.9107V22.9114V22.9121V22.9127V22.9134V22.9141V22.9147V22.9154V22.9161V22.9168V22.9174V22.9181V22.9188V22.9194V22.9201V22.9208V22.9215V22.9222V22.9228V22.9235V22.9242V22.9249V22.9256V22.9263V22.9269V22.9276V22.9283V22.929V22.9297V22.9304V22.9311V22.9318V22.9325V22.9331V22.9338V22.9345V22.9352V22.9359V22.9366V22.9373V22.938V22.9387V22.9394V22.9401V22.9408V22.9415V22.9422V22.9429V22.9436V22.9443V22.9451V22.9458V22.9465V22.9472V22.9479V22.9486V22.9493V22.95V22.9507V22.9514V22.9522V22.9529V22.9536V22.9543V22.955V22.9557V22.9564V22.9572V22.9579V22.9586V22.9593V22.96V22.9607V22.9615V22.9622V22.9629V22.9636V22.9644V22.9651V22.9658V22.9665V22.9672V22.968V22.9687V22.9694V22.9701V22.9709V22.9716V22.9723V22.9731V22.9738V22.9745V22.9752V22.976V22.9767V22.9774V22.9782V22.9789V22.9796V22.9804V22.9811V22.9818V22.9825V22.9833V22.984V22.9847V22.9855V22.9862V22.9869V22.9877V22.9884V22.9892V22.9899V22.9906V22.9914V22.9921V22.9928V22.9936V22.9943V22.995V22.9958V22.9965V22.9972V22.998V22.9987V22.9995V23.0002V23.0009V23.0017V23.0024V23.0031V23.0039V23.0046V23.0054V23.0061V23.0068V23.0076V23.0083V23.009V23.0098V23.0105V23.0113V23.012V23.0127V23.0135V23.0142V23.015V23.0157V23.0164V23.0172V23.0179V23.0186V23.0194V23.0201V23.0209V23.0216V23.0223V23.0231V23.0238V23.0245V23.0253V23.026V23.0268V23.0275V23.0282V23.029V23.0297V23.0304V23.0312V23.0319V23.0326V23.0334V23.0341V23.0348V23.0356V23.0363V23.0371V23.0378V23.0385V23.0393V23.04V23.0407V23.0415V23.0422V23.0429V23.0436V23.0444V23.0451V23.0458V23.0466V23.0473V23.048V23.0488V23.0495V23.0502V23.0509V23.0517V23.0524V23.0531V23.0539V23.0546V23.0553V23.056V23.0568V23.0575V23.0582V23.0589V23.0596V23.0604V23.0611V23.0618V23.0625V23.0632V23.064V23.0647V23.0654V23.0661V23.0668V23.0676V23.0683V23.069V23.0697V23.0704V23.0711V23.0718V23.0726V23.0733V23.074V23.0747V23.0754V23.0761V23.0768V23.0775V23.0782V23.0789V23.0797V23.0804V23.0811V23.0818V23.0825V23.0832V23.0839V23.0846V23.0853V23.086V23.0867V23.0874V23.0881V23.0888V23.0895V23.0902V23.0909V23.0915V23.0922V23.0929V23.0936V23.0943V23.095V23.0957V23.0964V23.0971V23.0977V23.0984V23.0991V23.0998V23.1005V23.1012V23.1018V23.1025V23.1032V23.1039V23.1046V23.1052V23.1059V23.1066V23.1072V23.1079V23.1086V23.1093V23.1099V23.1106V23.1113V23.1119V23.1126V23.1133V23.1139V23.1146V23.1152V23.1159V23.1166V23.1172V23.1179V23.1185V23.1192V23.1198V23.1205V23.1211V23.1218V23.1224V23.1231V23.1237V23.1244V23.125V23.1256V23.1263V23.1269V23.1276V23.1282V23.1288V23.1295V23.1301V23.1307V23.1314V23.132V23.1326V23.1332V23.1339V23.1345V23.1351V23.1357V23.1364V23.137V23.1376V23.1382V23.1388V23.1394V23.14V23.1407V23.1413V23.1419V23.1425V23.1431V23.1437V23.1443V23.1449V23.1455V23.1461V23.1467V23.1473V23.1479V23.1485V23.1491V23.1496V23.1502V23.1508V23.1514V23.152V23.1526V23.1531V23.1537V23.1543V23.1549V23.1554V23.156V23.1566V23.1572V23.1577V23.1583V23.1589V23.1594V23.16V23.1605V23.1611V23.1616V23.1622V23.1628V23.1633V23.1639V23.1644V23.1649V23.1655V23.166V23.1666V23.1671V23.1677V23.1682V23.1687V23.1693V23.1698V23.1703V23.1708V23.1714V23.1719V23.1724V23.1729V23.1734V23.174V23.1745V23.175V23.1755V23.176V23.1765V23.177V23.1775V23.178V23.1785V23.179V23.1795V23.18C11.8 25.641 13.7214 27.58 16.1667 27.58C16.4626 27.58 16.7245 27.4797 16.9128 27.2899C17.101 27.1002 17.2 26.837 17.2 26.54V19.82C17.2 19.523 17.101 19.2598 16.9128 19.0701C16.7245 18.8803 16.4626 18.78 16.1667 18.78C15.346 18.78 14.5281 19.0356 13.8712 19.4389C14.0157 16.045 17.5888 12.88 22 12.88C26.3752 12.88 29.9284 15.9944 30.1248 19.4364C29.4685 19.0346 28.6523 18.78 27.8333 18.78C27.5374 18.78 27.2755 18.8803 27.0872 19.0701C26.899 19.2598 26.8 19.523 26.8 19.82V26.54C26.8 26.837 26.899 27.1002 27.0872 27.2899C27.2755 27.4797 27.5374 27.58 27.8333 27.58C28.033 27.58 28.2054 27.6036 28.3829 27.6278C28.4511 27.6371 28.5201 27.6466 28.5917 27.6548C28.6808 27.6651 28.7714 27.6729 28.8644 27.6744C28.0742 28.5627 26.8687 29.2334 25.5321 29.4225C25.5201 29.1491 25.4221 28.9075 25.2461 28.7301C25.0579 28.5403 24.7959 28.44 24.5 28.44H22C21.7041 28.44 21.4421 28.5403 21.2538 28.7301C21.0657 28.9198 20.9667 29.183 20.9667 29.48V31.16C20.9667 31.457 21.0657 31.7202 21.2538 31.9099C21.4421 32.0997 21.7041 32.2 22 32.2C24.7857 32.2 27.3325 31.4131 29.1874 29.9302C31.0466 28.4439 32.2 26.2657 32.2 23.516V22.676V20.66V19.736C32.2 15.0687 27.5884 10.8 22 10.8Z" fill="#62656E" stroke="#62656E" stroke-width="0.4"/>
</g>
<defs>
<filter id="filter0_i_1_13834" x="0" y="0" width="44" height="47.6201" filterUnits="userSpaceOnUse" color-interpolation-filters="sRGB">
<feFlood flood-opacity="0" result="BackgroundImageFix"/>
<feBlend mode="normal" in="SourceGraphic" in2="BackgroundImageFix" result="shape"/>
<feColorMatrix in="SourceAlpha" type="matrix" values="0 0 0 0 0 0 0 0 0 0 0 0 0 0 0 0 0 0 127 0" result="hardAlpha"/>
<feOffset dy="3.62007"/>
<feGaussianBlur stdDeviation="1.81003"/>
<feComposite in2="hardAlpha" operator="arithmetic" k2="-1" k3="1"/>
<feColorMatrix type="matrix" values="0 0 0 0 0 0 0 0 0 0 0 0 0 0 0 0 0 0 0.05 0"/>
<feBlend mode="normal" in2="shape" result="effect1_innerShadow_1_13834"/>
</filter>
</defs>
</svg>
