<svg width="22" height="23" viewBox="0 0 22 23" fill="none" xmlns="http://www.w3.org/2000/svg">
<path id="Vector" d="M11 0.8C5.41818 0.8 0.8 4.64293 0.8 9.736V12.676V12.6765V12.677V12.6775V12.678V12.6784V12.6789V12.6794V12.6799V12.6804V12.6808V12.6813V12.6818V12.6822V12.6827V12.6832V12.6836V12.6841V12.6846V12.685V12.6855V12.6859V12.6864V12.6868V12.6873V12.6877V12.6882V12.6886V12.6891V12.6895V12.6899V12.6904V12.6908V12.6912V12.6917V12.6921V12.6925V12.693V12.6934V12.6938V12.6942V12.6946V12.6951V12.6955V12.6959V12.6963V12.6967V12.6971V12.6975V12.698V12.6984V12.6988V12.6992V12.6996V12.7V12.7004V12.7008V12.7012V12.7016V12.7019V12.7023V12.7027V12.7031V12.7035V12.7039V12.7043V12.7047V12.705V12.7054V12.7058V12.7062V12.7065V12.7069V12.7073V12.7077V12.708V12.7084V12.7088V12.7091V12.7095V12.7099V12.7102V12.7106V12.7109V12.7113V12.7117V12.712V12.7124V12.7127V12.7131V12.7134V12.7138V12.7141V12.7145V12.7148V12.7152V12.7155V12.7158V12.7162V12.7165V12.7169V12.7172V12.7175V12.7179V12.7182V12.7185V12.7189V12.7192V12.7195V12.7198V12.7202V12.7205V12.7208V12.7211V12.7215V12.7218V12.7221V12.7224V12.7227V12.7231V12.7234V12.7237V12.724V12.7243V12.7246V12.7249V12.7253V12.7256V12.7259V12.7262V12.7265V12.7268V12.7271V12.7274V12.7277V12.728V12.7283V12.7286V12.7289V12.7292V12.7295V12.7298V12.7301V12.7304V12.7307V12.731V12.7313V12.7316V12.7318V12.7321V12.7324V12.7327V12.733V12.7333V12.7336V12.7339V12.7341V12.7344V12.7347V12.735V12.7353V12.7355V12.7358V12.7361V12.7364V12.7367V12.7369V12.7372V12.7375V12.7378V12.738V12.7383V12.7386V12.7389V12.7391V12.7394V12.7397V12.7399V12.7402V12.7405V12.7407V12.741V12.7413V12.7415V12.7418V12.7421V12.7423V12.7426V12.7429V12.7431V12.7434V12.7437V12.7439V12.7442V12.7444V12.7447V12.745V12.7452V12.7455V12.7457V12.746V12.7463V12.7465V12.7468V12.747V12.7473V12.7475V12.7478V12.748V12.7483V12.7486V12.7488V12.7491V12.7493V12.7496V12.7498V12.7501V12.7503V12.7506V12.7508V12.7511V12.7513V12.7516V12.7518V12.7521V12.7523V12.7526V12.7528V12.7531V12.7533V12.7536V12.7538V12.7541V12.7543V12.7546V12.7548V12.7551V12.7553V12.7556V12.7558V12.7561V12.7563V12.7566V12.7568V12.757V12.7573V12.7575V12.7578V12.758V12.7583V12.7585V12.7588V12.759V12.7593V12.7595V12.7598V12.76V12.7602V12.7605V12.7607V12.761V12.7612V12.7615V12.7617V12.762V12.7622V12.7625V12.7627V12.763V12.7632V12.7634V12.7637V12.7639V12.7642V12.7644V12.7647V12.7649V12.7652V12.7654V12.7657V12.7659V12.7662V12.7664V12.7667V12.7669V12.7672V12.7674V12.7677V12.7679V12.7682V12.7684V12.7687V12.7689V12.7692V12.7694V12.7697V12.7699V12.7702V12.7704V12.7707V12.7709V12.7712V12.7714V12.7717V12.772V12.7722V12.7725V12.7727V12.773V12.7732V12.7735V12.7737V12.774V12.7743V12.7745V12.7748V12.775V12.7753V12.7756V12.7758V12.7761V12.7763V12.7766V12.7769V12.7771V12.7774V12.7777V12.7779V12.7782V12.7785V12.7787V12.779V12.7793V12.7795V12.7798V12.7801V12.7803V12.7806V12.7809V12.7811V12.7814V12.7817V12.782V12.7822V12.7825V12.7828V12.7831V12.7833V12.7836V12.7839V12.7842V12.7845V12.7847V12.785V12.7853V12.7856V12.7859V12.7861V12.7864V12.7867V12.787V12.7873V12.7876V12.7879V12.7882V12.7884V12.7887V12.789V12.7893V12.7896V12.7899V12.7902V12.7905V12.7908V12.7911V12.7914V12.7917V12.792V12.7923V12.7926V12.7929V12.7932V12.7935V12.7938V12.7941V12.7944V12.7947V12.7951V12.7954V12.7957V12.796V12.7963V12.7966V12.7969V12.7973V12.7976V12.7979V12.7982V12.7985V12.7989V12.7992V12.7995V12.7998V12.8002V12.8005V12.8008V12.8011V12.8015V12.8018V12.8021V12.8025V12.8028V12.8031V12.8035V12.8038V12.8042V12.8045V12.8048V12.8052V12.8055V12.8059V12.8062V12.8066V12.8069V12.8073V12.8076V12.808V12.8083V12.8087V12.8091V12.8094V12.8098V12.8101V12.8105V12.8109V12.8112V12.8116V12.812V12.8123V12.8127V12.8131V12.8135V12.8138V12.8142V12.8146V12.815V12.8153V12.8157V12.8161V12.8165V12.8169V12.8173V12.8177V12.8181V12.8184V12.8188V12.8192V12.8196V12.82V12.8204V12.8208V12.8212V12.8216V12.822V12.8225V12.8229V12.8233V12.8237V12.8241V12.8245V12.8249V12.8253V12.8258V12.8262V12.8266V12.827V12.8275V12.8279V12.8283V12.8288V12.8292V12.8296V12.8301V12.8305V12.8309V12.8314V12.8318V12.8323V12.8327V12.8332V12.8336V12.8341V12.8345V12.835V12.8354V12.8359V12.8364V12.8368V12.8373V12.8378V12.8382V12.8387V12.8392V12.8396V12.8401V12.8406V12.8411V12.8416V12.842V12.8425V12.843V12.8435V12.844V12.8445V12.845V12.8455V12.846V12.8465V12.847V12.8475V12.848V12.8485V12.849V12.8495V12.85V12.8506V12.8511V12.8516V12.8521V12.8526V12.8532V12.8537V12.8542V12.8547V12.8553V12.8558V12.8563V12.8569V12.8574V12.858V12.8585V12.8591V12.8596V12.8601V12.8607V12.8612V12.8618V12.8624V12.8629V12.8635V12.864V12.8646V12.8651V12.8657V12.8663V12.8668V12.8674V12.868V12.8686V12.8691V12.8697V12.8703V12.8709V12.8714V12.872V12.8726V12.8732V12.8738V12.8744V12.8749V12.8755V12.8761V12.8767V12.8773V12.8779V12.8785V12.8791V12.8797V12.8803V12.8809V12.8815V12.8821V12.8827V12.8833V12.884V12.8846V12.8852V12.8858V12.8864V12.887V12.8876V12.8883V12.8889V12.8895V12.8901V12.8908V12.8914V12.892V12.8926V12.8933V12.8939V12.8945V12.8952V12.8958V12.8964V12.8971V12.8977V12.8984V12.899V12.8996V12.9003V12.9009V12.9016V12.9022V12.9029V12.9035V12.9042V12.9048V12.9055V12.9061V12.9068V12.9074V12.9081V12.9088V12.9094V12.9101V12.9107V12.9114V12.9121V12.9127V12.9134V12.9141V12.9147V12.9154V12.9161V12.9168V12.9174V12.9181V12.9188V12.9194V12.9201V12.9208V12.9215V12.9222V12.9228V12.9235V12.9242V12.9249V12.9256V12.9263V12.9269V12.9276V12.9283V12.929V12.9297V12.9304V12.9311V12.9318V12.9325V12.9331V12.9338V12.9345V12.9352V12.9359V12.9366V12.9373V12.938V12.9387V12.9394V12.9401V12.9408V12.9415V12.9422V12.9429V12.9436V12.9443V12.9451V12.9458V12.9465V12.9472V12.9479V12.9486V12.9493V12.95V12.9507V12.9514V12.9522V12.9529V12.9536V12.9543V12.955V12.9557V12.9564V12.9572V12.9579V12.9586V12.9593V12.96V12.9607V12.9615V12.9622V12.9629V12.9636V12.9644V12.9651V12.9658V12.9665V12.9672V12.968V12.9687V12.9694V12.9701V12.9709V12.9716V12.9723V12.9731V12.9738V12.9745V12.9752V12.976V12.9767V12.9774V12.9782V12.9789V12.9796V12.9804V12.9811V12.9818V12.9825V12.9833V12.984V12.9847V12.9855V12.9862V12.9869V12.9877V12.9884V12.9892V12.9899V12.9906V12.9914V12.9921V12.9928V12.9936V12.9943V12.995V12.9958V12.9965V12.9972V12.998V12.9987V12.9995V13.0002V13.0009V13.0017V13.0024V13.0031V13.0039V13.0046V13.0054V13.0061V13.0068V13.0076V13.0083V13.009V13.0098V13.0105V13.0113V13.012V13.0127V13.0135V13.0142V13.015V13.0157V13.0164V13.0172V13.0179V13.0186V13.0194V13.0201V13.0209V13.0216V13.0223V13.0231V13.0238V13.0245V13.0253V13.026V13.0268V13.0275V13.0282V13.029V13.0297V13.0304V13.0312V13.0319V13.0326V13.0334V13.0341V13.0348V13.0356V13.0363V13.0371V13.0378V13.0385V13.0393V13.04V13.0407V13.0415V13.0422V13.0429V13.0436V13.0444V13.0451V13.0458V13.0466V13.0473V13.048V13.0488V13.0495V13.0502V13.0509V13.0517V13.0524V13.0531V13.0539V13.0546V13.0553V13.056V13.0568V13.0575V13.0582V13.0589V13.0596V13.0604V13.0611V13.0618V13.0625V13.0632V13.064V13.0647V13.0654V13.0661V13.0668V13.0676V13.0683V13.069V13.0697V13.0704V13.0711V13.0718V13.0726V13.0733V13.074V13.0747V13.0754V13.0761V13.0768V13.0775V13.0782V13.0789V13.0797V13.0804V13.0811V13.0818V13.0825V13.0832V13.0839V13.0846V13.0853V13.086V13.0867V13.0874V13.0881V13.0888V13.0895V13.0902V13.0909V13.0915V13.0922V13.0929V13.0936V13.0943V13.095V13.0957V13.0964V13.0971V13.0977V13.0984V13.0991V13.0998V13.1005V13.1012V13.1018V13.1025V13.1032V13.1039V13.1046V13.1052V13.1059V13.1066V13.1072V13.1079V13.1086V13.1093V13.1099V13.1106V13.1113V13.1119V13.1126V13.1133V13.1139V13.1146V13.1152V13.1159V13.1166V13.1172V13.1179V13.1185V13.1192V13.1198V13.1205V13.1211V13.1218V13.1224V13.1231V13.1237V13.1244V13.125V13.1256V13.1263V13.1269V13.1276V13.1282V13.1288V13.1295V13.1301V13.1307V13.1314V13.132V13.1326V13.1332V13.1339V13.1345V13.1351V13.1357V13.1364V13.137V13.1376V13.1382V13.1388V13.1394V13.14V13.1407V13.1413V13.1419V13.1425V13.1431V13.1437V13.1443V13.1449V13.1455V13.1461V13.1467V13.1473V13.1479V13.1485V13.1491V13.1496V13.1502V13.1508V13.1514V13.152V13.1526V13.1531V13.1537V13.1543V13.1549V13.1554V13.156V13.1566V13.1572V13.1577V13.1583V13.1589V13.1594V13.16V13.1605V13.1611V13.1616V13.1622V13.1628V13.1633V13.1639V13.1644V13.1649V13.1655V13.166V13.1666V13.1671V13.1677V13.1682V13.1687V13.1693V13.1698V13.1703V13.1708V13.1714V13.1719V13.1724V13.1729V13.1734V13.174V13.1745V13.175V13.1755V13.176V13.1765V13.177V13.1775V13.178V13.1785V13.179V13.1795V13.18C0.8 15.641 2.72138 17.58 5.16667 17.58C5.4626 17.58 5.72453 17.4797 5.91282 17.2899C6.10096 17.1002 6.2 16.837 6.2 16.54V9.82C6.2 9.52303 6.10096 9.2598 5.91282 9.07014C5.72453 8.88035 5.4626 8.78 5.16667 8.78C4.34603 8.78 3.52812 9.03562 2.87121 9.43887C3.0157 6.04497 6.58882 2.88 11 2.88C15.3752 2.88 18.9284 5.99442 19.1248 9.43641C18.4685 9.03459 17.6523 8.78 16.8333 8.78C16.5374 8.78 16.2755 8.88035 16.0872 9.07014C15.899 9.2598 15.8 9.52303 15.8 9.82V16.54C15.8 16.837 15.899 17.1002 16.0872 17.2899C16.2755 17.4797 16.5374 17.58 16.8333 17.58C17.033 17.58 17.2054 17.6036 17.3829 17.6278C17.4511 17.6371 17.5201 17.6466 17.5917 17.6548C17.6808 17.6651 17.7714 17.6729 17.8644 17.6744C17.0742 18.5627 15.8687 19.2334 14.5321 19.4225C14.5201 19.1491 14.4221 18.9075 14.2461 18.7301C14.0579 18.5403 13.7959 18.44 13.5 18.44H11C10.7041 18.44 10.4421 18.5403 10.2538 18.7301C10.0657 18.9198 9.96667 19.183 9.96667 19.48V21.16C9.96667 21.457 10.0657 21.7202 10.2538 21.9099C10.4421 22.0997 10.7041 22.2 11 22.2C13.7857 22.2 16.3325 21.4131 18.1874 19.9302C20.0466 18.4439 21.2 16.2657 21.2 13.516V12.676V10.66V9.736C21.2 5.06869 16.5884 0.8 11 0.8Z" fill="#62656E" stroke="#62656E" stroke-width="0.4"/>
</svg>
