<svg width="52" height="52" viewBox="0 0 52 52" fill="none" xmlns="http://www.w3.org/2000/svg">
<g id="Group 2131327887">
<g id="Rectangle 36468" filter="url(#filter0_d_1_7143)">
<rect x="4" width="44" height="44" rx="12" fill="url(#paint0_radial_1_7143)" fill-opacity="0.24" shape-rendering="crispEdges"/>
<rect x="4.5" y="0.5" width="43" height="43" rx="11.5" stroke="white" stroke-opacity="0.01" shape-rendering="crispEdges"/>
</g>
<path id="Vector" d="M17.3749 20.749C22.7436 18.2088 26.3236 16.5341 28.1148 15.725C33.2292 13.4148 34.2919 13.0135 34.9846 13.0001C35.1369 12.9974 35.4776 13.0384 35.6982 13.2328C35.8845 13.397 35.9358 13.6188 35.9603 13.7744C35.9848 13.9301 36.0154 14.2847 35.9911 14.5617C35.714 17.7242 34.5147 25.3986 33.9046 28.9406C33.6465 30.4394 33.1382 30.9419 32.6461 30.9911C31.5766 31.098 30.7645 30.2235 29.7287 29.4861C28.1078 28.3323 27.1921 27.614 25.6188 26.488C23.8005 25.1868 24.9792 24.4716 26.0154 23.3028C26.2866 22.9969 30.9987 18.3423 31.0899 17.9201C31.1013 17.8673 31.1119 17.6705 31.0042 17.5665C30.8965 17.4626 30.7376 17.4981 30.6229 17.5264C30.4604 17.5665 27.871 19.4251 22.8549 23.1023C22.1199 23.6504 21.4542 23.9174 20.8577 23.9035C20.2001 23.888 18.9353 23.4997 17.995 23.1678C16.8417 22.7606 15.925 22.5454 16.0048 21.8539C16.0464 21.4938 16.5031 21.1255 17.3749 20.749Z" fill="#28A8EA"/>
</g>
<defs>
<filter id="filter0_d_1_7143" x="0" y="0" width="52" height="52" filterUnits="userSpaceOnUse" color-interpolation-filters="sRGB">
<feFlood flood-opacity="0" result="BackgroundImageFix"/>
<feColorMatrix in="SourceAlpha" type="matrix" values="0 0 0 0 0 0 0 0 0 0 0 0 0 0 0 0 0 0 127 0" result="hardAlpha"/>
<feOffset dy="4"/>
<feGaussianBlur stdDeviation="2"/>
<feComposite in2="hardAlpha" operator="out"/>
<feColorMatrix type="matrix" values="0 0 0 0 0 0 0 0 0 0 0 0 0 0 0 0 0 0 0.07 0"/>
<feBlend mode="normal" in2="BackgroundImageFix" result="effect1_dropShadow_1_7143"/>
<feBlend mode="normal" in="SourceGraphic" in2="effect1_dropShadow_1_7143" result="shape"/>
</filter>
<radialGradient id="paint0_radial_1_7143" cx="0" cy="0" r="1" gradientUnits="userSpaceOnUse" gradientTransform="translate(26) rotate(90) scale(44)">
<stop stop-color="#28A8EA"/>
<stop offset="0.927083" stop-color="#28A8EA" stop-opacity="0.6"/>
</radialGradient>
</defs>
</svg>
