<svg width="20" height="20" viewBox="0 0 20 20" fill="none" xmlns="http://www.w3.org/2000/svg">
<g id="Group 2131328640">
<g id="Black">
<path id="Vector" d="M5.01751 4.28254C4.8164 4.44913 4.54825 4.88225 4.43094 5.24873L4.19632 5.91507L7.11238 5.96505C8.72124 5.9817 11.3356 5.9817 12.9445 5.96505L15.8606 5.91507L15.6259 5.24873C15.1902 3.98269 15.274 3.99935 10.0284 3.99935C5.8387 3.99935 5.33593 4.03267 5.01751 4.28254Z" fill="#62656E"/>
<path id="Vector_2" d="M3.33928 6.3332C3.02086 6.64971 3.0041 6.88293 3.0041 10.3312C3.0041 15.0122 2.75271 14.6624 6.1883 14.6624H8.68539L9.27195 14.0794C10.0596 13.2964 10.6965 13.2964 11.4841 14.0794L12.0707 14.6624H14.5678C18.0034 14.6624 17.752 15.0122 17.752 10.3312C17.752 6.88293 17.7352 6.64971 17.4168 6.3332C17.0984 6.01669 16.8638 6.00003 10.378 6.00003C3.89232 6.00003 3.6577 6.01669 3.33928 6.3332ZM13.2438 7.49929C13.6628 7.73251 13.646 8.26558 13.2271 8.4988C12.5064 8.88194 11.8193 7.91575 12.5232 7.51595C12.8751 7.29939 12.8584 7.29939 13.2438 7.49929ZM15.9253 7.49929C16.3442 7.73251 16.3275 8.26558 15.9085 8.4988C15.1879 8.88194 14.5008 7.91575 15.2046 7.51595C15.5566 7.29939 15.5398 7.29939 15.9253 7.49929Z" fill="#62656E"/>
<path id="Vector_3" d="M0.0400926 9.54726C0.00657463 9.66387 -0.0101843 10.6967 0.00657463 11.8461L0.0568515 13.9118L0.693692 13.9617L1.31377 14.0117V11.6795V9.3307H0.72721C0.392031 9.3307 0.0903695 9.43065 0.0400926 9.54726Z" fill="#62656E"/>
<path id="Vector_4" d="M18.7431 11.6629V14.0117L19.3799 13.9617L20 13.9118V11.6629V9.41399L19.3799 9.36402L18.7431 9.31404V11.6629Z" fill="#62656E"/>
</g>
</g>
</svg>
